G04*
G04 #@! TF.GenerationSoftware,Altium Limited,Altium Designer,20.1.7 (139)*
G04*
G04 Layer_Color=65535*
%FSLAX25Y25*%
%MOIN*%
G70*
G04*
G04 #@! TF.SameCoordinates,8D634492-3E34-4B73-8720-EB9472E910E3*
G04*
G04*
G04 #@! TF.FilePolarity,Positive*
G04*
G01*
G75*
%ADD10C,0.00984*%
%ADD11C,0.00787*%
%ADD12C,0.00500*%
%ADD13C,0.01000*%
%ADD14R,0.01181X0.04724*%
D10*
X120335Y20541D02*
G03*
X120335Y20541I-492J0D01*
G01*
X97392Y20400D02*
G03*
X97392Y20400I-492J0D01*
G01*
X23887Y36290D02*
G03*
X23887Y36290I-492J0D01*
G01*
X125392Y7500D02*
G03*
X125392Y7500I-492J0D01*
G01*
X25658Y-20047D02*
G03*
X25658Y-20047I-492J0D01*
G01*
X64388Y-20321D02*
G03*
X64388Y-20321I-492J0D01*
G01*
D11*
X41698Y27588D02*
G03*
X42564Y28454I0J866D01*
G01*
X38036D02*
G03*
X38902Y27588I866J0D01*
G01*
X42564Y34399D02*
G03*
X41698Y35265I-866J0D01*
G01*
X38902D02*
G03*
X38036Y34399I0J-866D01*
G01*
X19798Y27361D02*
G03*
X20664Y28228I0J866D01*
G01*
X16136D02*
G03*
X17002Y27361I866J0D01*
G01*
X20664Y34172D02*
G03*
X19798Y35039I-866J0D01*
G01*
X17002D02*
G03*
X16136Y34172I0J-866D01*
G01*
X35998Y-9965D02*
G03*
X36864Y-9099I0J866D01*
G01*
X32336D02*
G03*
X33202Y-9965I866J0D01*
G01*
X36864Y-3154D02*
G03*
X35998Y-2288I-866J0D01*
G01*
X33202D02*
G03*
X32336Y-3154I0J-866D01*
G01*
X30598Y-9965D02*
G03*
X31464Y-9099I0J866D01*
G01*
X26936D02*
G03*
X27802Y-9965I866J0D01*
G01*
X31464Y-3154D02*
G03*
X30598Y-2288I-866J0D01*
G01*
X27802D02*
G03*
X26936Y-3154I0J-866D01*
G01*
X41498Y-18565D02*
G03*
X42364Y-17699I0J866D01*
G01*
X37836D02*
G03*
X38702Y-18565I866J0D01*
G01*
X42364Y-11754D02*
G03*
X41498Y-10888I-866J0D01*
G01*
X38702D02*
G03*
X37836Y-11754I0J-866D01*
G01*
X36098Y-18465D02*
G03*
X36964Y-17599I0J866D01*
G01*
X32436D02*
G03*
X33302Y-18465I866J0D01*
G01*
X36964Y-11654D02*
G03*
X36098Y-10788I-866J0D01*
G01*
X33302D02*
G03*
X32436Y-11654I0J-866D01*
G01*
X46798Y-20739D02*
G03*
X47664Y-19872I0J866D01*
G01*
X43136D02*
G03*
X44002Y-20739I866J0D01*
G01*
X47664Y-13928D02*
G03*
X46798Y-13061I-866J0D01*
G01*
X44002D02*
G03*
X43136Y-13928I0J-866D01*
G01*
X73841Y21431D02*
G03*
X73841Y21431I-394J0D01*
G01*
X105407Y-20432D02*
G03*
X105407Y-20432I-394J0D01*
G01*
X100157Y43966D02*
X119843D01*
X125748Y27234D02*
Y35600D01*
X94252Y27234D02*
Y35600D01*
X122992Y27234D02*
X125748D01*
X94252D02*
X97008D01*
X105943Y7798D02*
Y11046D01*
X100432Y7798D02*
X105943D01*
Y16754D02*
Y20002D01*
X100432D02*
X105943D01*
X88836Y15561D02*
Y18219D01*
Y20581D02*
Y23239D01*
X93364Y15561D02*
Y18219D01*
Y20581D02*
Y23239D01*
X88836Y15561D02*
X93364D01*
X88836Y23239D02*
X93364D01*
X14194Y17650D02*
X14982Y16890D01*
X14194Y22350D02*
X14982Y23110D01*
X18525D01*
X26143Y16890D02*
Y23110D01*
X14194Y17650D02*
Y22350D01*
X21675Y23110D02*
X26143D01*
X14982Y16890D02*
X18525D01*
X21675D02*
X26143D01*
X38902Y27588D02*
X41698D01*
X42564Y28474D02*
Y30246D01*
X38036Y28474D02*
Y30246D01*
X42564Y32608D02*
Y34380D01*
X38036Y32608D02*
Y34380D01*
X38902Y35265D02*
X41698D01*
X17002Y27361D02*
X19798D01*
X20664Y28247D02*
Y30019D01*
X16136Y28247D02*
Y30019D01*
X20664Y32381D02*
Y34153D01*
X16136Y32381D02*
Y34153D01*
X17002Y35039D02*
X19798D01*
X8981Y17836D02*
X11639D01*
X3961D02*
X6619D01*
X8981Y22364D02*
X11639D01*
X3961D02*
X6619D01*
X11639Y17836D02*
Y22364D01*
X3961Y17836D02*
Y22364D01*
X115857Y16854D02*
Y20102D01*
X121369D01*
X115857Y7898D02*
Y11146D01*
Y7898D02*
X121369D01*
X124708Y1636D02*
X127365D01*
X119688D02*
X122346D01*
X124708Y6164D02*
X127365D01*
X119688D02*
X122346D01*
X127365Y1636D02*
Y6164D01*
X119688Y1636D02*
Y6164D01*
X33202Y-9965D02*
X35998D01*
X36864Y-9080D02*
Y-7308D01*
X32336Y-9080D02*
Y-7308D01*
X36864Y-4946D02*
Y-3174D01*
X32336Y-4946D02*
Y-3174D01*
X33202Y-2288D02*
X35998D01*
X27802Y-9965D02*
X30598D01*
X31464Y-9080D02*
Y-7308D01*
X26936Y-9080D02*
Y-7308D01*
X31464Y-4946D02*
Y-3174D01*
X26936Y-4946D02*
Y-3174D01*
X27802Y-2288D02*
X30598D01*
X19457Y-27134D02*
X21426D01*
X37174D02*
X39143D01*
Y-35500D02*
Y-27134D01*
X19457Y-35500D02*
Y-27134D01*
X25363Y-43866D02*
X33237D01*
X38702Y-18565D02*
X41498D01*
X42364Y-17680D02*
Y-15908D01*
X37836Y-17680D02*
Y-15908D01*
X42364Y-13546D02*
Y-11774D01*
X37836Y-13546D02*
Y-11774D01*
X38702Y-10888D02*
X41498D01*
X33302Y-18465D02*
X36098D01*
X36964Y-17580D02*
Y-15808D01*
X32436Y-17580D02*
Y-15808D01*
X36964Y-13446D02*
Y-11674D01*
X32436Y-13446D02*
Y-11674D01*
X33302Y-10788D02*
X36098D01*
X48536Y-20839D02*
Y-18181D01*
Y-15819D02*
Y-13161D01*
X53064Y-20839D02*
Y-18181D01*
Y-15819D02*
Y-13161D01*
X48536Y-20839D02*
X53064D01*
X48536Y-13161D02*
X53064D01*
X62420Y-43844D02*
X77380D01*
X81711Y-36068D02*
Y-24356D01*
X58089Y-36068D02*
Y-24356D01*
X78561D02*
X81711D01*
X58089D02*
X61239D01*
X44002Y-20739D02*
X46798D01*
X47664Y-19853D02*
Y-18081D01*
X43136Y-19853D02*
Y-18081D01*
X47664Y-15719D02*
Y-13947D01*
X43136Y-15719D02*
Y-13947D01*
X44002Y-13061D02*
X46798D01*
X129500Y-20000D02*
Y20000D01*
X139500Y-20000D02*
Y20000D01*
X129500D02*
X139500D01*
X129500Y-20000D02*
X139500D01*
D12*
X39173Y8858D02*
G03*
X39173Y8858I-984J0D01*
G01*
X59842Y-9843D02*
Y-6890D01*
X56890Y-9843D02*
X59842D01*
X40157D02*
X43110D01*
X40157D02*
Y-6890D01*
X59842Y6890D02*
Y9843D01*
X56890D02*
X59842D01*
X40157Y6890D02*
Y8451D01*
X41549Y9843D01*
X43110D01*
X55120Y27928D02*
X62069D01*
X55120D02*
Y33558D01*
X75652Y27928D02*
X82601D01*
Y33518D01*
X59471Y43872D02*
X78329D01*
X100131Y-42872D02*
X124108D01*
X121391Y-26928D02*
X128340D01*
Y-32557D02*
Y-26928D01*
X95860D02*
X102809D01*
X95860Y-32518D02*
Y-26928D01*
D13*
X27332Y34912D02*
X31269D01*
X27332Y23888D02*
X31269D01*
X27332D02*
Y34912D01*
X31269Y23888D02*
Y34912D01*
X-3034Y-15748D02*
Y15748D01*
X-239Y-13346D02*
Y13307D01*
X-3034Y-15669D02*
X-2562D01*
X-239Y-13346D01*
X-2955Y15630D02*
X-2562D01*
X-239Y13307D01*
X19603Y-15748D02*
Y-13167D01*
Y13167D02*
Y15748D01*
X12605D02*
X19603D01*
X-2955D02*
X2883D01*
X12605Y-15748D02*
X19603D01*
X-3034D02*
X2883D01*
D14*
X12915Y20000D02*
D03*
M02*
