G04*
G04 #@! TF.GenerationSoftware,Altium Limited,Altium Designer,20.1.7 (139)*
G04*
G04 Layer_Physical_Order=2*
G04 Layer_Color=16711680*
%FSLAX25Y25*%
%MOIN*%
G70*
G04*
G04 #@! TF.SameCoordinates,8D634492-3E34-4B73-8720-EB9472E910E3*
G04*
G04*
G04 #@! TF.FilePolarity,Positive*
G04*
G01*
G75*
%ADD13C,0.01000*%
%ADD43C,0.02000*%
%ADD44C,0.03000*%
%ADD47C,0.00689*%
%ADD48C,0.05906*%
%ADD49R,0.05906X0.05906*%
%ADD50O,0.08658X0.05118*%
%ADD51C,0.05906*%
%ADD52C,0.03000*%
%ADD53C,0.02000*%
G36*
X136458Y44808D02*
X137368Y44431D01*
X138187Y43884D01*
X138884Y43187D01*
X139431Y42368D01*
X139808Y41458D01*
X140000Y40492D01*
Y40000D01*
Y-40000D01*
Y-40492D01*
X139808Y-41458D01*
X139431Y-42368D01*
X138884Y-43187D01*
X138187Y-43884D01*
X137368Y-44431D01*
X136458Y-44808D01*
X135493Y-45000D01*
X4507D01*
X3542Y-44808D01*
X2632Y-44431D01*
X1813Y-43884D01*
X1116Y-43187D01*
X569Y-42368D01*
X192Y-41458D01*
X0Y-40492D01*
Y-40000D01*
Y40000D01*
Y40492D01*
X192Y41458D01*
X569Y42368D01*
X1116Y43187D01*
X1813Y43884D01*
X2632Y44431D01*
X3542Y44808D01*
X4507Y45000D01*
X135493D01*
X136458Y44808D01*
D02*
G37*
%LPC*%
G36*
X47000Y35137D02*
X46259Y34990D01*
X45630Y34570D01*
X45210Y33941D01*
X45063Y33200D01*
X45210Y32459D01*
X45630Y31830D01*
X46259Y31410D01*
X46274Y31407D01*
X52591Y25091D01*
X53054Y24781D01*
X53600Y24673D01*
X53600Y24673D01*
X94916D01*
X95459Y24310D01*
X96200Y24163D01*
X96941Y24310D01*
X97570Y24730D01*
X97990Y25359D01*
X98137Y26100D01*
X97990Y26841D01*
X97570Y27470D01*
X96941Y27890D01*
X96200Y28037D01*
X95459Y27890D01*
X94916Y27527D01*
X54191D01*
X48868Y32851D01*
X48937Y33200D01*
X48790Y33941D01*
X48370Y34570D01*
X47741Y34990D01*
X47000Y35137D01*
D02*
G37*
G36*
X115900Y34227D02*
X115354Y34119D01*
X114891Y33809D01*
X114581Y33346D01*
X114473Y32800D01*
X114581Y32254D01*
X114891Y31791D01*
X114982Y31729D01*
Y22671D01*
X114891Y22609D01*
X114581Y22146D01*
X114473Y21600D01*
X114581Y21054D01*
X114891Y20591D01*
X115354Y20281D01*
X115900Y20173D01*
X116446Y20281D01*
X116909Y20591D01*
X117219Y21054D01*
X117327Y21600D01*
X117219Y22146D01*
X116909Y22609D01*
X116818Y22671D01*
Y31729D01*
X116909Y31791D01*
X117219Y32254D01*
X117327Y32800D01*
X117219Y33346D01*
X116909Y33809D01*
X116446Y34119D01*
X115900Y34227D01*
D02*
G37*
G36*
X134500Y18382D02*
X133625Y18267D01*
X132809Y17929D01*
X132109Y17391D01*
X131571Y16691D01*
X131234Y15875D01*
X131118Y15000D01*
X131234Y14125D01*
X131571Y13309D01*
X132109Y12609D01*
X132809Y12071D01*
X133625Y11733D01*
X134500Y11618D01*
X135375Y11733D01*
X136191Y12071D01*
X136891Y12609D01*
X137429Y13309D01*
X137767Y14125D01*
X137882Y15000D01*
X137767Y15875D01*
X137429Y16691D01*
X136891Y17391D01*
X136191Y17929D01*
X135375Y18267D01*
X134500Y18382D01*
D02*
G37*
G36*
X9514Y17158D02*
X5974D01*
X5202Y17056D01*
X4482Y16758D01*
X3864Y16284D01*
X3390Y15666D01*
X3091Y14946D01*
X2990Y14173D01*
X3091Y13401D01*
X3390Y12681D01*
X3864Y12063D01*
X4482Y11589D01*
X5202Y11290D01*
X5974Y11189D01*
X9514D01*
X10286Y11290D01*
X11006Y11589D01*
X11624Y12063D01*
X12099Y12681D01*
X12397Y13401D01*
X12498Y14173D01*
X12397Y14946D01*
X12099Y15666D01*
X11624Y16284D01*
X11006Y16758D01*
X10286Y17056D01*
X9514Y17158D01*
D02*
G37*
G36*
X45200Y16227D02*
X44654Y16119D01*
X44191Y15809D01*
X43881Y15346D01*
X43773Y14800D01*
X43881Y14254D01*
X44191Y13791D01*
X44654Y13481D01*
X45200Y13373D01*
X45746Y13481D01*
X46209Y13791D01*
X46271Y13882D01*
X58820D01*
X60794Y11908D01*
X60773Y11800D01*
X60881Y11254D01*
X61191Y10791D01*
X61654Y10481D01*
X62200Y10373D01*
X62746Y10481D01*
X63209Y10791D01*
X63519Y11254D01*
X63627Y11800D01*
X63519Y12346D01*
X63209Y12809D01*
X62746Y13119D01*
X62200Y13227D01*
X62092Y13206D01*
X59849Y15449D01*
X59551Y15648D01*
X59200Y15718D01*
X46271D01*
X46209Y15809D01*
X45746Y16119D01*
X45200Y16227D01*
D02*
G37*
G36*
X18256Y12929D02*
X17381Y12814D01*
X16565Y12476D01*
X15865Y11938D01*
X15327Y11238D01*
X14989Y10422D01*
X14874Y9547D01*
X14989Y8672D01*
X15327Y7856D01*
X15865Y7156D01*
X16565Y6619D01*
X17381Y6281D01*
X18256Y6165D01*
X19131Y6281D01*
X19947Y6619D01*
X20647Y7156D01*
X21184Y7856D01*
X21522Y8672D01*
X21638Y9547D01*
X21522Y10422D01*
X21184Y11238D01*
X20647Y11938D01*
X19947Y12476D01*
X19131Y12814D01*
X18256Y12929D01*
D02*
G37*
G36*
X134500Y8382D02*
X133625Y8266D01*
X132809Y7929D01*
X132109Y7391D01*
X131571Y6691D01*
X131234Y5875D01*
X131118Y5000D01*
X131234Y4125D01*
X131571Y3309D01*
X132109Y2609D01*
X132809Y2071D01*
X133625Y1733D01*
X134500Y1618D01*
X135375Y1733D01*
X136191Y2071D01*
X136891Y2609D01*
X137429Y3309D01*
X137767Y4125D01*
X137882Y5000D01*
X137767Y5875D01*
X137429Y6691D01*
X136891Y7391D01*
X136191Y7929D01*
X135375Y8266D01*
X134500Y8382D01*
D02*
G37*
G36*
X26000Y3827D02*
X25454Y3719D01*
X24991Y3409D01*
X24681Y2946D01*
X24584Y2458D01*
X23495Y1369D01*
X23200Y1427D01*
X22654Y1319D01*
X22191Y1009D01*
X21881Y546D01*
X21773Y0D01*
X21881Y-546D01*
X22191Y-1009D01*
X22654Y-1319D01*
X23200Y-1427D01*
X23746Y-1319D01*
X24209Y-1009D01*
X24519Y-546D01*
X24627Y0D01*
X24569Y295D01*
X25394Y1121D01*
X25454Y1081D01*
X26000Y973D01*
X26546Y1081D01*
X27009Y1391D01*
X27319Y1854D01*
X27427Y2400D01*
X27319Y2946D01*
X27009Y3409D01*
X26546Y3719D01*
X26000Y3827D01*
D02*
G37*
G36*
X18256Y-6165D02*
X17381Y-6281D01*
X16565Y-6619D01*
X15865Y-7156D01*
X15327Y-7856D01*
X14989Y-8672D01*
X14874Y-9547D01*
X14989Y-10422D01*
X15327Y-11238D01*
X15865Y-11938D01*
X16565Y-12476D01*
X17381Y-12814D01*
X18256Y-12929D01*
X19131Y-12814D01*
X19947Y-12476D01*
X20647Y-11938D01*
X21184Y-11238D01*
X21522Y-10422D01*
X21638Y-9547D01*
X21522Y-8672D01*
X21184Y-7856D01*
X20647Y-7156D01*
X19947Y-6619D01*
X19131Y-6281D01*
X18256Y-6165D01*
D02*
G37*
G36*
X9513Y-11188D02*
X5974D01*
X5201Y-11290D01*
X4482Y-11588D01*
X3863Y-12063D01*
X3389Y-12681D01*
X3091Y-13401D01*
X2989Y-14173D01*
X3091Y-14946D01*
X3389Y-15665D01*
X3863Y-16284D01*
X4482Y-16758D01*
X5201Y-17056D01*
X5974Y-17158D01*
X9513D01*
X10286Y-17056D01*
X11006Y-16758D01*
X11624Y-16284D01*
X12098Y-15665D01*
X12396Y-14946D01*
X12498Y-14173D01*
X12396Y-13401D01*
X12098Y-12681D01*
X11624Y-12063D01*
X11006Y-11588D01*
X10286Y-11290D01*
X9513Y-11188D01*
D02*
G37*
G36*
X34400Y7137D02*
X33659Y6990D01*
X33030Y6570D01*
X32610Y5941D01*
X32483Y5302D01*
X24982Y-2199D01*
X24673Y-2662D01*
X24602Y-3015D01*
X24430Y-3130D01*
X24010Y-3759D01*
X23863Y-4500D01*
X24010Y-5241D01*
X24430Y-5870D01*
X25059Y-6290D01*
X25800Y-6437D01*
X26541Y-6290D01*
X27170Y-5870D01*
X27590Y-5241D01*
X27737Y-4500D01*
X27590Y-3759D01*
X27538Y-3681D01*
X32511Y1292D01*
X32973Y1101D01*
Y-1800D01*
X32973Y-1800D01*
X33081Y-2346D01*
X33391Y-2809D01*
X51708Y-21126D01*
X51810Y-21641D01*
X52230Y-22270D01*
X52859Y-22690D01*
X53373Y-22792D01*
X57291Y-26709D01*
X57291Y-26709D01*
X57754Y-27019D01*
X58300Y-27127D01*
X100535D01*
X100630Y-27270D01*
X101259Y-27690D01*
X102000Y-27837D01*
X123600D01*
X124341Y-27690D01*
X124970Y-27270D01*
X133887Y-18353D01*
X137853D01*
Y-11647D01*
X131147D01*
Y-15613D01*
X122798Y-23963D01*
X102000D01*
X101259Y-24110D01*
X101016Y-24273D01*
X58891D01*
X55534Y-20915D01*
X55537Y-20900D01*
X55390Y-20159D01*
X54970Y-19530D01*
X54341Y-19110D01*
X53600Y-18963D01*
X53585Y-18966D01*
X35827Y-1209D01*
Y3916D01*
X36190Y4459D01*
X36337Y5200D01*
X36190Y5941D01*
X35770Y6570D01*
X35141Y6990D01*
X34400Y7137D01*
D02*
G37*
%LPD*%
D13*
X115900Y21600D02*
Y32800D01*
X59200Y14800D02*
X62200Y11800D01*
X45200Y14800D02*
X59200D01*
D43*
X34400Y-1800D02*
Y5200D01*
Y-1800D02*
X58300Y-25700D01*
X61200D02*
X101800D01*
X102000Y-25900D01*
X58300Y-25700D02*
X61200D01*
X25991Y-3209D02*
X34400Y5200D01*
X25991Y-4309D02*
Y-3209D01*
X25800Y-4500D02*
X25991Y-4309D01*
X47000Y32700D02*
X53600Y26100D01*
X47000Y32700D02*
Y33200D01*
X53600Y26100D02*
X96200D01*
D44*
X123600Y-25900D02*
X134500Y-15000D01*
X102000Y-25900D02*
X123600D01*
D47*
X23200Y0D02*
X25349Y2149D01*
X25749D01*
X26000Y2400D01*
D48*
X134500Y5000D02*
D03*
Y15000D02*
D03*
Y-5000D02*
D03*
D49*
Y-15000D02*
D03*
D50*
X7744Y-14173D02*
D03*
X7744Y14173D02*
D03*
D51*
X18256Y9547D02*
D03*
Y-9547D02*
D03*
D52*
X135200Y37000D02*
D03*
X88300Y38300D02*
D03*
X15700Y29400D02*
D03*
X53600Y-20900D02*
D03*
X23600Y-7900D02*
D03*
X25800Y-4500D02*
D03*
X34400Y5200D02*
D03*
X96200Y26100D02*
D03*
X47000Y33200D02*
D03*
D53*
X104200Y21200D02*
D03*
X77000Y29000D02*
D03*
X3700Y20100D02*
D03*
X40300Y26000D02*
D03*
X36900Y2000D02*
D03*
X25200Y-21100D02*
D03*
X40300Y-19100D02*
D03*
X109600Y-21200D02*
D03*
X68000Y-30200D02*
D03*
X115900Y21600D02*
D03*
Y32800D02*
D03*
X45200Y14800D02*
D03*
X62200Y11800D02*
D03*
X102000Y-25900D02*
D03*
X61200Y-25700D02*
D03*
X26000Y2400D02*
D03*
X23200Y0D02*
D03*
M02*
