G04*
G04 #@! TF.GenerationSoftware,Altium Limited,Altium Designer,20.1.7 (139)*
G04*
G04 Layer_Physical_Order=1*
G04 Layer_Color=255*
%FSLAX25Y25*%
%MOIN*%
G70*
G04*
G04 #@! TF.SameCoordinates,8D634492-3E34-4B73-8720-EB9472E910E3*
G04*
G04*
G04 #@! TF.FilePolarity,Positive*
G04*
G01*
G75*
%ADD13C,0.01000*%
%ADD15R,0.04724X0.07087*%
%ADD16R,0.02362X0.06102*%
%ADD17R,0.04528X0.02559*%
%ADD18R,0.02559X0.02362*%
%ADD19R,0.04331X0.02362*%
%ADD20R,0.03661X0.03858*%
%ADD21R,0.02362X0.02559*%
%ADD22R,0.01000X0.03543*%
%ADD23R,0.03543X0.01000*%
%ADD24R,0.03937X0.10630*%
%ADD25R,0.02362X0.06693*%
%ADD26R,0.07874X0.01772*%
%ADD42R,0.12205X0.12205*%
%ADD43C,0.02000*%
%ADD44C,0.03000*%
%ADD45C,0.01700*%
%ADD46C,0.01500*%
%ADD47C,0.00689*%
%ADD48C,0.05906*%
%ADD49R,0.05906X0.05906*%
%ADD50O,0.08658X0.05118*%
%ADD51C,0.05906*%
%ADD52C,0.03000*%
%ADD53C,0.02000*%
G36*
X136458Y44808D02*
X137368Y44431D01*
X138187Y43884D01*
X138884Y43187D01*
X139431Y42368D01*
X139808Y41458D01*
X140000Y40492D01*
Y40000D01*
Y22024D01*
X139500Y21872D01*
X139449Y21949D01*
X128049Y33349D01*
X127751Y33548D01*
X127400Y33618D01*
X117037D01*
X116909Y33809D01*
X116446Y34119D01*
X115900Y34227D01*
X115354Y34119D01*
X114891Y33809D01*
X114763Y33618D01*
X83808D01*
X83394Y33827D01*
X83394Y34118D01*
Y45000D01*
X92277D01*
Y37267D01*
X97802D01*
Y45000D01*
X122198D01*
Y37267D01*
X127723D01*
Y45000D01*
X135493D01*
X136458Y44808D01*
D02*
G37*
G36*
X78658Y34118D02*
X78658Y33827D01*
X78244Y33618D01*
X70292D01*
X69941Y33548D01*
X69643Y33349D01*
X68796Y32502D01*
X68149Y33149D01*
X67851Y33348D01*
X67500Y33418D01*
X60000D01*
X59649Y33348D01*
X59351Y33149D01*
X47383Y21180D01*
X47184Y20883D01*
X47114Y20531D01*
Y14917D01*
X46614Y14868D01*
X46519Y15346D01*
X46209Y15809D01*
X45746Y16119D01*
X45200Y16227D01*
X44654Y16119D01*
X44191Y15809D01*
X43881Y15346D01*
X43773Y14800D01*
X43794Y14692D01*
X43446Y14343D01*
X43247Y14046D01*
X43177Y13694D01*
Y10197D01*
X43194Y10108D01*
Y8025D01*
X44995Y8025D01*
X45494Y8025D01*
X46963Y8025D01*
X47463Y8025D01*
X48932D01*
Y8025D01*
X49100D01*
X49100Y8025D01*
X50900Y8025D01*
X51400Y8025D01*
X52868Y8025D01*
X53369Y8025D01*
X54837Y8025D01*
X55337Y8025D01*
X56805D01*
Y12369D01*
X55006Y12369D01*
X54505Y12369D01*
X53037Y12369D01*
X52886Y12806D01*
Y12888D01*
X59180Y19182D01*
X86400D01*
X86751Y19252D01*
X87049Y19451D01*
X87780Y20182D01*
X89067D01*
X89420Y19829D01*
Y19492D01*
X89420Y18992D01*
Y16146D01*
X92779D01*
Y16809D01*
X93929D01*
Y15961D01*
X99257D01*
Y18972D01*
X99757Y19179D01*
X102282Y16654D01*
Y13500D01*
X102352Y13149D01*
X102551Y12851D01*
X105651Y9751D01*
X105851Y9618D01*
X105766Y9118D01*
X99323D01*
X99274Y9166D01*
Y9380D01*
X99257Y9469D01*
Y11839D01*
X93929D01*
Y11078D01*
X64220D01*
X63606Y11692D01*
X63627Y11800D01*
X63519Y12346D01*
X63209Y12809D01*
X62746Y13119D01*
X62200Y13227D01*
X61654Y13119D01*
X61191Y12809D01*
X60881Y12346D01*
X60773Y11800D01*
X60881Y11254D01*
X61191Y10791D01*
X61654Y10481D01*
X62200Y10373D01*
X62308Y10394D01*
X63191Y9511D01*
X63489Y9312D01*
X63840Y9242D01*
X93929D01*
Y8480D01*
X97500D01*
X97509Y8435D01*
X97708Y8137D01*
X98294Y7551D01*
X98591Y7352D01*
X98943Y7282D01*
X117174D01*
X120272Y4183D01*
Y2221D01*
X123119D01*
X123435Y2221D01*
X123935Y2221D01*
X126781D01*
Y5579D01*
X126125D01*
Y8580D01*
X127164D01*
X127282Y8437D01*
Y-16845D01*
X121563Y-22565D01*
X121063Y-22357D01*
Y-22197D01*
X119661D01*
X119649Y-22135D01*
X119450Y-21837D01*
X115964Y-18351D01*
X115666Y-18152D01*
X115315Y-18082D01*
X82638D01*
X82287Y-18152D01*
X81989Y-18351D01*
X77887Y-22454D01*
X77387Y-22381D01*
Y-22381D01*
X76110D01*
Y-22092D01*
X76040Y-21741D01*
X75841Y-21443D01*
X74749Y-20351D01*
X74451Y-20152D01*
X74100Y-20082D01*
X60400D01*
X60049Y-20152D01*
X59751Y-20351D01*
X55166Y-24937D01*
X34818D01*
Y-22403D01*
X31656D01*
Y-29305D01*
X34818D01*
Y-26772D01*
X55546D01*
X55897Y-26702D01*
X56195Y-26503D01*
X60780Y-21918D01*
X62325D01*
X62413Y-22381D01*
X62413Y-22418D01*
Y-24273D01*
X61200D01*
X60654Y-24381D01*
X60191Y-24691D01*
X59881Y-25154D01*
X59773Y-25700D01*
X59881Y-26246D01*
X60191Y-26709D01*
X60654Y-27019D01*
X61200Y-27127D01*
X62413D01*
Y-29283D01*
X65576D01*
Y-22418D01*
X65576Y-22381D01*
X65664Y-21918D01*
X70199D01*
X70287Y-22381D01*
X70287D01*
Y-29283D01*
X70951D01*
Y-31182D01*
X31680D01*
X30303Y-29805D01*
X30424Y-29305D01*
X30881D01*
Y-22403D01*
X27719D01*
Y-29305D01*
X28382D01*
Y-30100D01*
X28452Y-30451D01*
X28651Y-30749D01*
X30651Y-32749D01*
X30949Y-32948D01*
X31300Y-33018D01*
X95066D01*
Y-44257D01*
X99803D01*
Y-33018D01*
X120000D01*
X120351Y-32948D01*
X120649Y-32749D01*
X130249Y-23149D01*
X130448Y-22851D01*
X130518Y-22500D01*
Y-280D01*
X132852Y2054D01*
X133625Y1733D01*
X134500Y1618D01*
X135375Y1733D01*
X136191Y2071D01*
X136891Y2609D01*
X137429Y3309D01*
X137767Y4125D01*
X137882Y5000D01*
X137767Y5875D01*
X137446Y6649D01*
X139449Y8651D01*
X139500Y8728D01*
X140000Y8576D01*
Y-40000D01*
Y-40492D01*
X139808Y-41458D01*
X139431Y-42368D01*
X138884Y-43187D01*
X138187Y-43884D01*
X137368Y-44431D01*
X136458Y-44808D01*
X135493Y-45000D01*
X83686D01*
Y-37145D01*
X78162D01*
Y-45000D01*
X61638D01*
Y-37145D01*
X56114D01*
Y-45000D01*
X41117D01*
Y-37167D01*
X35593D01*
Y-45000D01*
X23007D01*
Y-37167D01*
X17483D01*
Y-45000D01*
X4507D01*
X3542Y-44808D01*
X2632Y-44431D01*
X1813Y-43884D01*
X1116Y-43187D01*
X569Y-42368D01*
X192Y-41458D01*
X0Y-40492D01*
Y-40000D01*
Y40000D01*
Y40492D01*
X192Y41458D01*
X569Y42368D01*
X1116Y43187D01*
X1813Y43884D01*
X2632Y44431D01*
X3542Y44808D01*
X4507Y45000D01*
X54327D01*
Y33827D01*
X59064D01*
Y45000D01*
X78658D01*
Y34118D01*
D02*
G37*
G36*
X106450Y29406D02*
X106450Y29182D01*
Y22503D01*
X107114D01*
Y15579D01*
X105543D01*
Y13108D01*
X105081Y12916D01*
X104118Y13880D01*
Y17034D01*
X104048Y17385D01*
X103849Y17683D01*
X99809Y21722D01*
X99512Y21921D01*
X99160Y21991D01*
X92779D01*
Y22654D01*
X89420D01*
Y22018D01*
X87400D01*
X87049Y21948D01*
X86751Y21749D01*
X86020Y21018D01*
X85434D01*
X85349Y21518D01*
X85549Y21651D01*
X93580Y29682D01*
X98191D01*
X98576Y29406D01*
X98576Y29182D01*
Y27382D01*
X97629D01*
X97570Y27470D01*
X96941Y27890D01*
X96200Y28037D01*
X95459Y27890D01*
X94830Y27470D01*
X94410Y26841D01*
X94263Y26100D01*
X94410Y25359D01*
X94830Y24730D01*
X95459Y24310D01*
X96200Y24163D01*
X96941Y24310D01*
X97266Y24527D01*
X98576D01*
Y22503D01*
X101739D01*
Y29182D01*
X101739Y29406D01*
X102124Y29682D01*
X106065D01*
X106450Y29406D01*
D02*
G37*
G36*
X92601Y31282D02*
X92551Y31249D01*
X84520Y23218D01*
X70402D01*
Y30690D01*
X70287D01*
X70079Y31190D01*
X70672Y31782D01*
X92450D01*
X92601Y31282D01*
D02*
G37*
G36*
X117883Y-22866D02*
Y-23097D01*
X117901Y-23186D01*
Y-29690D01*
X120405D01*
X120613Y-30190D01*
X119620Y-31182D01*
X115478D01*
Y-29690D01*
X116142D01*
Y-22197D01*
X112979D01*
Y-29690D01*
X113643D01*
Y-31182D01*
X72786D01*
Y-29283D01*
X73450D01*
Y-22381D01*
X73450D01*
X73454Y-22359D01*
X73794Y-22254D01*
X74224Y-22602D01*
Y-29283D01*
X77387D01*
Y-24655D01*
X77901D01*
X78252Y-24585D01*
X78550Y-24386D01*
X83018Y-19918D01*
X114935D01*
X117883Y-22866D01*
D02*
G37*
%LPC*%
G36*
X47000Y35137D02*
X46259Y34990D01*
X45630Y34570D01*
X45602Y34527D01*
X41980D01*
Y34681D01*
X38620D01*
Y34568D01*
X37377D01*
Y34721D01*
X32246D01*
Y31559D01*
X37377D01*
Y31713D01*
X38620D01*
Y31519D01*
X41980D01*
X42173Y31099D01*
Y21991D01*
X33391Y13209D01*
X33081Y12746D01*
X32973Y12200D01*
X32973Y12200D01*
Y6484D01*
X32610Y5941D01*
X32463Y5200D01*
X32610Y4459D01*
X33030Y3830D01*
X33659Y3410D01*
X34400Y3263D01*
X35141Y3410D01*
X35770Y3830D01*
X36190Y4459D01*
X36337Y5200D01*
X36190Y5941D01*
X35827Y6484D01*
Y11609D01*
X44609Y20391D01*
X44609Y20391D01*
X44919Y20854D01*
X45027Y21400D01*
Y31673D01*
X45866D01*
X46259Y31410D01*
X47000Y31263D01*
X47741Y31410D01*
X48370Y31830D01*
X48790Y32459D01*
X48937Y33200D01*
X48790Y33941D01*
X48370Y34570D01*
X47741Y34990D01*
X47000Y35137D01*
D02*
G37*
G36*
X37377Y27241D02*
X32246D01*
Y24079D01*
X37377D01*
Y27241D01*
D02*
G37*
G36*
X19299Y22329D02*
X14838D01*
Y21527D01*
X11054D01*
Y21779D01*
X7892D01*
Y18420D01*
X11054D01*
Y18673D01*
X14838D01*
Y17671D01*
X19299D01*
Y22329D01*
D02*
G37*
G36*
X9514Y17158D02*
X5974D01*
X5202Y17056D01*
X4482Y16758D01*
X3864Y16284D01*
X3390Y15666D01*
X3091Y14946D01*
X2990Y14173D01*
X3091Y13401D01*
X3390Y12681D01*
X3864Y12063D01*
X4482Y11589D01*
X5202Y11290D01*
X5974Y11189D01*
X9514D01*
X10286Y11290D01*
X11006Y11589D01*
X11624Y12063D01*
X12099Y12681D01*
X12397Y13401D01*
X12498Y14173D01*
X12397Y14946D01*
X12099Y15666D01*
X11624Y16284D01*
X11006Y16758D01*
X10286Y17056D01*
X9514Y17158D01*
D02*
G37*
G36*
X27243Y35077D02*
X23788D01*
X23047Y34930D01*
X22868Y34810D01*
X18400D01*
X17659Y34663D01*
X17346Y34454D01*
X16721D01*
Y33779D01*
X16610Y33615D01*
X16463Y32873D01*
X16610Y32132D01*
X16721Y31967D01*
Y31292D01*
X17346D01*
X17659Y31084D01*
X18400Y30936D01*
X23521D01*
X24263Y31084D01*
X24441Y31203D01*
X26440D01*
X27063Y30580D01*
Y28102D01*
X26201Y27241D01*
X21223D01*
Y24079D01*
X22386D01*
X22577Y23617D01*
X22418Y23458D01*
X21998Y22829D01*
X21899Y22329D01*
X20901D01*
Y17671D01*
X22363D01*
Y6700D01*
X21908Y6470D01*
X20574D01*
X20404Y6970D01*
X20647Y7156D01*
X21184Y7856D01*
X21522Y8672D01*
X21638Y9547D01*
X21522Y10422D01*
X21184Y11238D01*
X20647Y11938D01*
X19947Y12476D01*
X19131Y12814D01*
X18256Y12929D01*
X17381Y12814D01*
X16565Y12476D01*
X15865Y11938D01*
X15327Y11238D01*
X14989Y10422D01*
X14874Y9547D01*
X14989Y8672D01*
X15327Y7856D01*
X15865Y7156D01*
X16140Y6945D01*
X15970Y6445D01*
X13888D01*
Y6434D01*
X12596D01*
X12108Y6336D01*
X11695Y6060D01*
X10699Y5064D01*
X10423Y4651D01*
X10326Y4163D01*
Y-9600D01*
X10423Y-10088D01*
X10699Y-10501D01*
X11650Y-11453D01*
X11320Y-11830D01*
X11006Y-11588D01*
X10286Y-11290D01*
X9513Y-11188D01*
X5974D01*
X5201Y-11290D01*
X4482Y-11588D01*
X3863Y-12063D01*
X3389Y-12681D01*
X3091Y-13401D01*
X2989Y-14173D01*
X3091Y-14946D01*
X3389Y-15665D01*
X3863Y-16284D01*
X4482Y-16758D01*
X5201Y-17056D01*
X5974Y-17158D01*
X9513D01*
X10286Y-17056D01*
X11006Y-16758D01*
X11624Y-16284D01*
X12098Y-15665D01*
X12396Y-14946D01*
X12498Y-14173D01*
X12396Y-13401D01*
X12098Y-12681D01*
X11857Y-12366D01*
X12234Y-12036D01*
X14999Y-14801D01*
X15412Y-15078D01*
X15900Y-15175D01*
X23900D01*
X24388Y-15078D01*
X24801Y-14801D01*
X25528Y-14074D01*
X33020D01*
Y-14535D01*
X36380D01*
Y-14126D01*
X38421D01*
Y-14635D01*
X41780D01*
Y-11473D01*
X42237Y-11369D01*
X43194D01*
Y-12369D01*
X44995D01*
X45145Y-12806D01*
Y-13646D01*
X43720D01*
Y-16808D01*
X47080D01*
Y-16244D01*
X48767D01*
X49121Y-16598D01*
Y-16908D01*
X49121Y-17408D01*
Y-20254D01*
X50362D01*
X51826Y-21718D01*
X51826Y-21718D01*
X51890Y-21761D01*
X52230Y-22270D01*
X52859Y-22690D01*
X53600Y-22837D01*
X54341Y-22690D01*
X54970Y-22270D01*
X55390Y-21641D01*
X55537Y-20900D01*
X55390Y-20159D01*
X54970Y-19530D01*
X54341Y-19110D01*
X53600Y-18963D01*
X53190Y-19044D01*
X52479Y-18334D01*
X52479Y-17092D01*
X52479Y-16592D01*
Y-13746D01*
X49121D01*
Y-14409D01*
X47080D01*
Y-13646D01*
X46981D01*
Y-12806D01*
X47131Y-12369D01*
X47481Y-12369D01*
X48932Y-12369D01*
X49431Y-12369D01*
X50900Y-12369D01*
X51400Y-12369D01*
X52868Y-12369D01*
X53369Y-12369D01*
X54837Y-12369D01*
X55337Y-12369D01*
X56805D01*
Y-8025D01*
X55006Y-8025D01*
X54505Y-8025D01*
X53037Y-8025D01*
X52537Y-8025D01*
X51069Y-8025D01*
X50568Y-8025D01*
X49100Y-8025D01*
X48600Y-8025D01*
X47131Y-8025D01*
X46632Y-8025D01*
X45163D01*
X45163Y-8025D01*
X44995D01*
Y-8025D01*
X44663Y-8025D01*
X43194D01*
Y-9024D01*
X41273D01*
Y-6805D01*
X41975D01*
Y-5337D01*
X41975Y-5006D01*
X41975D01*
Y-4837D01*
X41975D01*
Y-3368D01*
X41975Y-3037D01*
X41975D01*
Y-2868D01*
X41975D01*
Y-1068D01*
X41975D01*
Y-900D01*
X41975D01*
Y900D01*
X37631D01*
Y319D01*
X32654D01*
X31537Y1437D01*
X31537Y1437D01*
X30948Y2026D01*
X30702Y2190D01*
X30411Y2248D01*
X27552D01*
X27427Y2400D01*
X27319Y2946D01*
X27009Y3409D01*
X26546Y3719D01*
X26000Y3827D01*
X25454Y3719D01*
X24991Y3409D01*
X24681Y2946D01*
X24651Y2796D01*
X24109Y2632D01*
X23733Y3008D01*
X23486Y3173D01*
X23196Y3230D01*
X22562D01*
Y3920D01*
X22795D01*
X23283Y4017D01*
X23696Y4294D01*
X24187Y4785D01*
X24300Y4763D01*
X25041Y4910D01*
X25670Y5330D01*
X26090Y5959D01*
X26237Y6700D01*
Y18733D01*
X26090Y19475D01*
X25904Y19753D01*
X25902Y19761D01*
X25725Y20025D01*
Y21286D01*
X30370Y25930D01*
X30790Y26559D01*
X30937Y27300D01*
Y31383D01*
X30790Y32124D01*
X30370Y32753D01*
X28613Y34510D01*
X27984Y34930D01*
X27243Y35077D01*
D02*
G37*
G36*
X41975Y6805D02*
X37631D01*
X37631Y5006D01*
X37631Y4505D01*
Y3037D01*
X41975D01*
X41975Y4837D01*
X41975Y5337D01*
Y6805D01*
D02*
G37*
G36*
X56502Y6502D02*
X43498D01*
Y-6502D01*
X56502D01*
Y6502D01*
D02*
G37*
G36*
X62369Y6805D02*
X58025D01*
X58025Y5006D01*
X58025Y4505D01*
X58025Y3037D01*
X58025Y2537D01*
X58025Y1068D01*
X58025Y569D01*
X58025Y-900D01*
X58025Y-1400D01*
X58025Y-2868D01*
X58025Y-3368D01*
X58025Y-4837D01*
X58025Y-5337D01*
Y-6805D01*
X62369D01*
X62369Y-5006D01*
X62369Y-4505D01*
X62369Y-3037D01*
X62369Y-2537D01*
X62369Y-1068D01*
X62369Y-569D01*
X62369Y900D01*
X62369Y1400D01*
X62369Y2868D01*
X62369Y3368D01*
X62369Y4837D01*
X62369Y5337D01*
Y6805D01*
D02*
G37*
G36*
X137853Y-11647D02*
X131147D01*
Y-18353D01*
X137853D01*
Y-11647D01*
D02*
G37*
G36*
X129134Y-32827D02*
X124397D01*
Y-44257D01*
X129134D01*
Y-32827D01*
D02*
G37*
%LPD*%
G36*
X13888Y1314D02*
Y-1245D01*
Y-3804D01*
X22562D01*
Y-1810D01*
X23062Y-1400D01*
X23200Y-1427D01*
X23746Y-1319D01*
X24209Y-1009D01*
X24495Y-581D01*
X24544Y-532D01*
X24977Y-301D01*
X25267Y-359D01*
X29645D01*
X31352Y-2066D01*
X31352Y-2066D01*
X31598Y-2230D01*
X31889Y-2288D01*
X37631D01*
Y-2868D01*
X37194Y-3019D01*
X36279D01*
Y-2872D01*
X32921D01*
Y-3536D01*
X30880D01*
Y-2872D01*
X27520D01*
Y-2924D01*
X27020Y-3030D01*
X26541Y-2710D01*
X25800Y-2563D01*
X25059Y-2710D01*
X24430Y-3130D01*
X24010Y-3759D01*
X23863Y-4500D01*
X24010Y-5241D01*
X24430Y-5870D01*
X25059Y-6290D01*
X25800Y-6437D01*
X26541Y-6290D01*
X27020Y-5970D01*
X27520Y-6035D01*
Y-6035D01*
X30880D01*
Y-5371D01*
X32921D01*
Y-6035D01*
X36279D01*
Y-4855D01*
X37194D01*
X37631Y-5006D01*
Y-6805D01*
X38928D01*
Y-11472D01*
X38421D01*
Y-11781D01*
X36380D01*
Y-11372D01*
X33020D01*
Y-11525D01*
X25000D01*
X24512Y-11622D01*
X24099Y-11899D01*
X23372Y-12626D01*
X20573D01*
X20403Y-12126D01*
X20647Y-11938D01*
X21184Y-11238D01*
X21522Y-10422D01*
X21638Y-9547D01*
X21522Y-8672D01*
X21184Y-7856D01*
X20647Y-7156D01*
X19947Y-6619D01*
X19131Y-6281D01*
X18256Y-6165D01*
X17381Y-6281D01*
X16565Y-6619D01*
X15865Y-7156D01*
X15327Y-7856D01*
X14989Y-8672D01*
X14874Y-9547D01*
X14989Y-10422D01*
X15030Y-10521D01*
X14606Y-10804D01*
X12875Y-9072D01*
Y3635D01*
X13124Y3884D01*
X13888D01*
Y1314D01*
D02*
G37*
%LPC*%
G36*
X106299Y-22197D02*
X103137D01*
Y-24473D01*
X102000D01*
X101454Y-24581D01*
X100991Y-24891D01*
X100681Y-25354D01*
X100573Y-25900D01*
X100681Y-26446D01*
X100991Y-26909D01*
X101454Y-27219D01*
X102000Y-27327D01*
X103137D01*
Y-29690D01*
X106299D01*
Y-22197D01*
D02*
G37*
%LPD*%
D13*
X104095Y25954D02*
X104118Y25931D01*
Y21282D02*
Y25931D01*
Y21282D02*
X104200Y21200D01*
X73743Y26943D02*
Y27157D01*
X74424Y27838D01*
X75838D01*
X77000Y29000D01*
X6127Y20100D02*
X6127Y20100D01*
X3700Y20100D02*
X6127D01*
X40300Y26000D02*
Y29754D01*
X36931Y1969D02*
X39803D01*
X36900Y2000D02*
X36931Y1969D01*
X25282Y-25773D02*
X25363Y-25854D01*
X25282Y-25773D02*
Y-21182D01*
X25200Y-21100D02*
X25282Y-21182D01*
X40200Y-19000D02*
X44973D01*
X45400Y-18573D01*
X40100Y-16400D02*
X40200Y-16500D01*
Y-19000D02*
Y-16500D01*
X34700Y-16300D02*
X34800Y-16400D01*
X40100D01*
X129600Y-22500D02*
Y100D01*
X109620Y-25924D02*
Y-21220D01*
X114900Y-32100D02*
X120000D01*
X134500Y5000D02*
X138800Y9300D01*
X82638Y-19000D02*
X115315D01*
X109620Y-25924D02*
X109639Y-25943D01*
X115315Y-19000D02*
X118801Y-22486D01*
X120000Y-32100D02*
X129600Y-22500D01*
X109600Y-21200D02*
X109620Y-21220D01*
X121577Y-23848D02*
X128200Y-17225D01*
X118801Y-23097D02*
Y-22486D01*
Y-23097D02*
X119552Y-23848D01*
X121577D01*
X70292Y32700D02*
X127400D01*
X129600Y100D02*
X134500Y5000D01*
X72200Y-32100D02*
X114900D01*
X67966Y-30166D02*
Y-25866D01*
Y-30166D02*
X68000Y-30200D01*
X67931Y-25832D02*
X67966Y-25866D01*
X31300Y-32100D02*
X72200D01*
X29300Y-30100D02*
X31300Y-32100D01*
X29200Y-7800D02*
X34600D01*
X29100Y-7900D02*
X29200Y-7800D01*
X23600Y-7900D02*
X29100D01*
X18225Y-5077D02*
X21276D01*
X21662Y-5463D01*
Y-5962D02*
Y-5463D01*
Y-5962D02*
X23600Y-7900D01*
X60000Y32500D02*
X67500D01*
X48031Y10197D02*
Y20531D01*
X60000Y32500D01*
X115903Y25952D02*
X115905Y25954D01*
X115903Y21603D02*
Y25952D01*
X115900Y21600D02*
X115903Y21603D01*
X91100Y21073D02*
X99160D01*
X103200Y13500D02*
Y17034D01*
X99160Y21073D02*
X103200Y17034D01*
X44094Y10197D02*
Y13694D01*
X45200Y14800D01*
X63840Y10160D02*
X96593D01*
X62200Y11800D02*
X63840Y10160D01*
X96593D02*
X97577D01*
X98357Y9380D01*
Y8786D02*
Y9380D01*
Y8786D02*
X98943Y8200D01*
X121853Y3900D02*
Y3998D01*
X121172Y4679D02*
X121853Y3998D01*
X121074Y4679D02*
X121172D01*
X117553Y8200D02*
X121074Y4679D01*
X98943Y8200D02*
X117553D01*
X125207Y3907D02*
Y10260D01*
X125200Y3900D02*
X125207Y3907D01*
X106300Y10400D02*
X116700D01*
X123261Y16961D02*
X124428D01*
X125207Y17740D01*
X116700Y10400D02*
X123261Y16961D01*
X103200Y13500D02*
X106300Y10400D01*
X91100Y17727D02*
X96506D01*
X96593Y17640D01*
X111969Y14780D02*
Y25954D01*
Y14780D02*
X112748Y14000D01*
X113593D01*
X108031Y14076D02*
Y25954D01*
Y14076D02*
X108207Y13900D01*
X91073Y21100D02*
X91100Y21073D01*
X87400Y21100D02*
X91073D01*
X58800Y20100D02*
X86400D01*
X87400Y21100D01*
X51968Y10197D02*
Y13269D01*
X58800Y20100D01*
X63862Y-25700D02*
X63994Y-25832D01*
X114561Y-31761D02*
Y-25943D01*
Y-31761D02*
X114900Y-32100D01*
X71868Y-31769D02*
Y-25832D01*
Y-31769D02*
X72200Y-32100D01*
X29300Y-30100D02*
Y-25854D01*
X128200Y-17225D02*
Y8437D01*
X134500Y14737D01*
Y15000D01*
X138800Y9300D02*
Y21300D01*
X127400Y32700D02*
X138800Y21300D01*
X68796Y31204D02*
X70292Y32700D01*
X93200Y30600D02*
X119000D01*
X84900Y22300D02*
X93200Y30600D01*
X66500Y22300D02*
X84900D01*
X119800Y25997D02*
X119843Y25954D01*
X119000Y30600D02*
X119800Y29800D01*
Y25997D02*
Y29800D01*
X68796Y26969D02*
X68821Y26943D01*
X68796Y26969D02*
Y31204D01*
X67500Y32500D02*
X68796Y31204D01*
X75192Y-23805D02*
X75805Y-24418D01*
X75192Y-23805D02*
Y-22092D01*
X74100Y-21000D02*
X75192Y-22092D01*
X60400Y-21000D02*
X74100D01*
X33237Y-25854D02*
X55546D01*
X60400Y-21000D01*
X75805Y-24418D02*
X76487Y-23737D01*
X77901D01*
X82638Y-19000D01*
X119843Y25954D02*
X123546D01*
X134500Y15000D01*
X64703Y24097D02*
X66500Y22300D01*
X63900Y24778D02*
Y26943D01*
Y24778D02*
X64581Y24097D01*
X64703D01*
X63357Y26400D02*
X63900Y26943D01*
X59600Y26400D02*
X63357D01*
X50000Y10197D02*
Y16800D01*
X59600Y26400D01*
X45500Y-15327D02*
X50800D01*
X45400Y-15227D02*
X45500Y-15327D01*
X46063Y-14564D02*
Y-10197D01*
X45400Y-15227D02*
X46063Y-14564D01*
X35116Y-3937D02*
X39803D01*
X34600Y-4453D02*
X35116Y-3937D01*
X29200Y-4453D02*
X34600D01*
D15*
X124961Y41210D02*
D03*
X95039D02*
D03*
X20245Y-41110D02*
D03*
X38355D02*
D03*
X80924Y-41088D02*
D03*
X58876D02*
D03*
D16*
X100157Y25954D02*
D03*
X104095D02*
D03*
X108031D02*
D03*
X111969D02*
D03*
X115905D02*
D03*
X119843D02*
D03*
X25363Y-25854D02*
D03*
X29300D02*
D03*
X33237D02*
D03*
X75805Y-25832D02*
D03*
X71868D02*
D03*
X67931D02*
D03*
X63994D02*
D03*
D17*
X108207Y13900D02*
D03*
X96593Y10160D02*
D03*
Y17640D02*
D03*
X113593Y14000D02*
D03*
X125207Y17740D02*
D03*
Y10260D02*
D03*
D18*
X91100Y21073D02*
D03*
Y17727D02*
D03*
X40300Y29754D02*
D03*
Y33100D02*
D03*
X18400Y29527D02*
D03*
Y32873D02*
D03*
X34600Y-7800D02*
D03*
Y-4453D02*
D03*
X29200Y-7800D02*
D03*
Y-4453D02*
D03*
X40100Y-16400D02*
D03*
Y-13054D02*
D03*
X34700Y-16300D02*
D03*
Y-12954D02*
D03*
X50800Y-15327D02*
D03*
Y-18673D02*
D03*
X45400Y-18573D02*
D03*
Y-15227D02*
D03*
D19*
X23788Y33140D02*
D03*
Y29400D02*
D03*
Y25660D02*
D03*
X34812D02*
D03*
Y33140D02*
D03*
D20*
X17069Y20000D02*
D03*
X23132D02*
D03*
D21*
X6127Y20100D02*
D03*
X9473D02*
D03*
X121853Y3900D02*
D03*
X125200D02*
D03*
D22*
X44094Y10197D02*
D03*
X46063D02*
D03*
X48031D02*
D03*
X50000D02*
D03*
X51968D02*
D03*
X53937D02*
D03*
X55905D02*
D03*
Y-10197D02*
D03*
X53937D02*
D03*
X51968D02*
D03*
X50000D02*
D03*
X48031D02*
D03*
X46063D02*
D03*
X44094D02*
D03*
D23*
X60197Y5906D02*
D03*
Y3937D02*
D03*
Y1969D02*
D03*
Y0D02*
D03*
Y-1969D02*
D03*
Y-3937D02*
D03*
Y-5906D02*
D03*
X39803D02*
D03*
Y-3937D02*
D03*
Y-1969D02*
D03*
Y0D02*
D03*
Y1969D02*
D03*
Y3937D02*
D03*
Y5906D02*
D03*
D24*
X56695Y39542D02*
D03*
X81026D02*
D03*
X126765Y-38542D02*
D03*
X97435D02*
D03*
D25*
X63900Y26943D02*
D03*
X73743D02*
D03*
X68821D02*
D03*
X119482Y-25943D02*
D03*
X114561D02*
D03*
X104718D02*
D03*
X109639D02*
D03*
D26*
X18225Y-5077D02*
D03*
Y-2518D02*
D03*
Y41D02*
D03*
Y2600D02*
D03*
Y5159D02*
D03*
D42*
X50000Y0D02*
D03*
D43*
X18337Y29463D02*
X18400Y29527D01*
X15763Y29463D02*
X18337D01*
X15700Y29400D02*
X15763Y29463D01*
X18527Y29400D02*
X23788D01*
X18400Y29527D02*
X18527Y29400D01*
X34400Y12200D02*
X43600Y21400D01*
Y33100D01*
X104675Y-25900D02*
X104718Y-25943D01*
X102000Y-25900D02*
X104675D01*
X50800Y-18673D02*
X50898D01*
X51079Y-18854D01*
Y-18953D02*
Y-18854D01*
Y-18953D02*
X52835Y-20709D01*
X53409D01*
X53600Y-20900D01*
X43600Y33100D02*
X46900D01*
X40300D02*
X43600D01*
X29177Y-4477D02*
X29200Y-4453D01*
X25823Y-4477D02*
X29177D01*
X25800Y-4500D02*
X25823Y-4477D01*
X34400Y5200D02*
Y12200D01*
X96346Y25954D02*
X100157D01*
X96200Y26100D02*
X96346Y25954D01*
X46900Y33100D02*
X47000Y33200D01*
X34812Y33140D02*
X40260D01*
X40300Y33100D01*
X61200Y-25700D02*
X63862D01*
X9473Y20100D02*
X16969D01*
X17069Y20000D01*
D44*
X23788Y22088D02*
X29000Y27300D01*
X23788Y19343D02*
Y22088D01*
Y33140D02*
X27243D01*
X29000Y31383D01*
Y27300D02*
Y31383D01*
X24112Y18921D02*
X24300Y18733D01*
X23132Y19902D02*
X24112Y18921D01*
X24300Y6700D02*
Y18733D01*
X23132Y19902D02*
Y20000D01*
X18400Y32873D02*
X23521D01*
X23788Y33140D01*
Y19343D02*
X24112Y19019D01*
D45*
X34547Y-12800D02*
X34700Y-12954D01*
X25000Y-12800D02*
X34547D01*
X15900Y-13900D02*
X23900D01*
X25000Y-12800D01*
X12596Y5159D02*
X18225D01*
X11600Y4163D02*
X12596Y5159D01*
X11600Y-9600D02*
Y4163D01*
Y-9600D02*
X15900Y-13900D01*
X24112Y18921D02*
Y19019D01*
X22795Y5195D02*
X24300Y6700D01*
X18225Y5159D02*
X18261Y5195D01*
X22795D01*
D46*
X34700Y-12954D02*
X40000D01*
X40100Y-13054D01*
Y-9605D02*
Y-6155D01*
Y-13054D02*
Y-9605D01*
X40692Y-10197D02*
X44094D01*
X40100Y-9605D02*
X40692Y-10197D01*
X39850Y-5906D02*
X40100Y-6155D01*
X39803Y-5906D02*
X39850D01*
D47*
X27059Y1489D02*
X30411D01*
X26000Y2400D02*
X26148D01*
X27059Y1489D01*
X29960Y400D02*
X31889Y-1529D01*
X38092D01*
X30411Y1489D02*
X31000Y900D01*
X32340Y-440D01*
X38532Y-1969D02*
X39803D01*
X32340Y-440D02*
X38092D01*
X38532Y0D01*
X38092Y-1529D02*
X38532Y-1969D01*
X25267Y400D02*
X29960D01*
X23196Y2471D02*
X25267Y400D01*
X18354Y2471D02*
X23196D01*
X18225Y2600D02*
X18354Y2471D01*
X18246Y21D02*
X23179D01*
X18225Y41D02*
X18246Y21D01*
X23179D02*
X23200Y0D01*
X38532D02*
X39803D01*
D48*
X134500Y5000D02*
D03*
Y15000D02*
D03*
Y-5000D02*
D03*
D49*
Y-15000D02*
D03*
D50*
X7744Y-14173D02*
D03*
X7744Y14173D02*
D03*
D51*
X18256Y9547D02*
D03*
Y-9547D02*
D03*
D52*
X135200Y37000D02*
D03*
X88300Y38300D02*
D03*
X15700Y29400D02*
D03*
X53600Y-20900D02*
D03*
X23600Y-7900D02*
D03*
X25800Y-4500D02*
D03*
X34400Y5200D02*
D03*
X96200Y26100D02*
D03*
X47000Y33200D02*
D03*
D53*
X104200Y21200D02*
D03*
X77000Y29000D02*
D03*
X3700Y20100D02*
D03*
X40300Y26000D02*
D03*
X36900Y2000D02*
D03*
X25200Y-21100D02*
D03*
X40300Y-19100D02*
D03*
X109600Y-21200D02*
D03*
X68000Y-30200D02*
D03*
X115900Y21600D02*
D03*
Y32800D02*
D03*
X45200Y14800D02*
D03*
X62200Y11800D02*
D03*
X102000Y-25900D02*
D03*
X61200Y-25700D02*
D03*
X26000Y2400D02*
D03*
X23200Y0D02*
D03*
M02*
