M48
;Layer_Color=9474304
;FILE_FORMAT=2:5
INCH,LZ
;TYPE=PLATED
T1F00S00C0.01000
T2F00S00C0.01500
T3F00S00C0.02000
T5F00S00C0.03543
%
T01
X00252Y-00211
X00403Y-00191
X00369Y0002
X0026Y00024
X00232Y0
X00452Y00148
X00403Y0026
X00622Y00118
X0077Y0029
X01042Y00212
X01159Y00216
Y00328
X01096Y-00212
X0102Y-00259
X0068Y-00302
X00612Y-00257
X00037Y00201
T02
X00236Y-00079
X00258Y-00045
X00344Y00052
X0047Y00332
X00157Y00294
X00962Y00261
X00536Y-00209
T03
X01352Y0037
X00883Y00383
T05
X01345Y-0015
Y-0005
Y0005
Y0015
X0018256Y0009547
Y-0009547
M30
