G04*
G04 #@! TF.GenerationSoftware,Altium Limited,Altium Designer,20.1.7 (139)*
G04*
G04 Layer_Color=8421504*
%FSLAX25Y25*%
%MOIN*%
G70*
G04*
G04 #@! TF.SameCoordinates,8D634492-3E34-4B73-8720-EB9472E910E3*
G04*
G04*
G04 #@! TF.FilePolarity,Positive*
G04*
G01*
G75*
%ADD15R,0.04724X0.07087*%
%ADD16R,0.02362X0.06102*%
%ADD17R,0.04528X0.02559*%
%ADD18R,0.02559X0.02362*%
%ADD19R,0.04331X0.02362*%
%ADD20R,0.03661X0.03858*%
%ADD21R,0.02362X0.02559*%
%ADD22R,0.01000X0.03543*%
%ADD23R,0.03543X0.01000*%
%ADD24R,0.03937X0.10630*%
%ADD25R,0.02362X0.06693*%
%ADD26R,0.07874X0.01772*%
G36*
X49016Y-5915D02*
X44085D01*
Y-984D01*
X49016D01*
Y-5915D01*
D02*
G37*
G36*
X55905Y-5916D02*
X50986D01*
Y-984D01*
X55905D01*
Y-5916D01*
D02*
G37*
G36*
X49016Y986D02*
X44085D01*
Y5906D01*
X49016D01*
Y986D01*
D02*
G37*
G36*
X55905Y984D02*
X50985D01*
Y5906D01*
X55905D01*
Y984D01*
D02*
G37*
D15*
X124961Y41210D02*
D03*
X95039D02*
D03*
X20245Y-41110D02*
D03*
X38355D02*
D03*
X80924Y-41088D02*
D03*
X58876D02*
D03*
D16*
X100157Y25954D02*
D03*
X104095D02*
D03*
X108031D02*
D03*
X111969D02*
D03*
X115905D02*
D03*
X119843D02*
D03*
X25363Y-25854D02*
D03*
X29300D02*
D03*
X33237D02*
D03*
X75805Y-25832D02*
D03*
X71868D02*
D03*
X67931D02*
D03*
X63994D02*
D03*
D17*
X108207Y13900D02*
D03*
X96593Y10160D02*
D03*
Y17640D02*
D03*
X113593Y14000D02*
D03*
X125207Y17740D02*
D03*
Y10260D02*
D03*
D18*
X91100Y21073D02*
D03*
Y17727D02*
D03*
X40300Y29754D02*
D03*
Y33100D02*
D03*
X18400Y29527D02*
D03*
Y32873D02*
D03*
X34600Y-7800D02*
D03*
Y-4453D02*
D03*
X29200Y-7800D02*
D03*
Y-4453D02*
D03*
X40100Y-16400D02*
D03*
Y-13054D02*
D03*
X34700Y-16300D02*
D03*
Y-12954D02*
D03*
X50800Y-15327D02*
D03*
Y-18673D02*
D03*
X45400Y-18573D02*
D03*
Y-15227D02*
D03*
D19*
X23788Y33140D02*
D03*
Y29400D02*
D03*
Y25660D02*
D03*
X34812D02*
D03*
Y33140D02*
D03*
D20*
X17069Y20000D02*
D03*
X23132D02*
D03*
D21*
X6127Y20100D02*
D03*
X9473D02*
D03*
X121853Y3900D02*
D03*
X125200D02*
D03*
D22*
X44094Y10197D02*
D03*
X46063D02*
D03*
X48031D02*
D03*
X50000D02*
D03*
X51968D02*
D03*
X53937D02*
D03*
X55905D02*
D03*
Y-10197D02*
D03*
X53937D02*
D03*
X51968D02*
D03*
X50000D02*
D03*
X48031D02*
D03*
X46063D02*
D03*
X44094D02*
D03*
D23*
X60197Y5906D02*
D03*
Y3937D02*
D03*
Y1969D02*
D03*
Y0D02*
D03*
Y-1969D02*
D03*
Y-3937D02*
D03*
Y-5906D02*
D03*
X39803D02*
D03*
Y-3937D02*
D03*
Y-1969D02*
D03*
Y0D02*
D03*
Y1969D02*
D03*
Y3937D02*
D03*
Y5906D02*
D03*
D24*
X56695Y39542D02*
D03*
X81026D02*
D03*
X126765Y-38542D02*
D03*
X97435D02*
D03*
D25*
X63900Y26943D02*
D03*
X73743D02*
D03*
X68821D02*
D03*
X119482Y-25943D02*
D03*
X114561D02*
D03*
X104718D02*
D03*
X109639D02*
D03*
D26*
X18225Y-5077D02*
D03*
Y-2518D02*
D03*
Y41D02*
D03*
Y2600D02*
D03*
Y5159D02*
D03*
M02*
