G04*
G04 #@! TF.GenerationSoftware,Altium Limited,Altium Designer,20.1.7 (139)*
G04*
G04 Layer_Color=16777215*
%FSLAX25Y25*%
%MOIN*%
G70*
G04*
G04 #@! TF.SameCoordinates,8D634492-3E34-4B73-8720-EB9472E910E3*
G04*
G04*
G04 #@! TF.FilePolarity,Positive*
G04*
G01*
G75*
G36*
X120006Y26973D02*
X120917Y27638D01*
Y27361D01*
X120407Y26978D01*
X120366Y26945D01*
X120327Y26917D01*
X120288Y26890D01*
X120258Y26867D01*
X120230Y26848D01*
X120208Y26834D01*
X120197Y26826D01*
X120191Y26823D01*
X120224Y26804D01*
X120260Y26782D01*
X120299Y26757D01*
X120338Y26732D01*
X120371Y26707D01*
X120399Y26690D01*
X120410Y26682D01*
X120418Y26676D01*
X120421Y26671D01*
X120424D01*
X120917Y26322D01*
Y26020D01*
X119992Y26674D01*
X119000Y25934D01*
Y26239D01*
X119665Y26724D01*
X119681Y26735D01*
X119701Y26748D01*
X119745Y26779D01*
X119767Y26793D01*
X119784Y26804D01*
X119795Y26812D01*
X119798Y26815D01*
X119756Y26843D01*
X119717Y26867D01*
X119704Y26879D01*
X119693Y26884D01*
X119684Y26890D01*
X119681Y26892D01*
X119000Y27377D01*
Y27690D01*
X120006Y26973D01*
D02*
G37*
G36*
X119521Y25554D02*
X119576Y25516D01*
X119626Y25480D01*
X119668Y25444D01*
X119706Y25413D01*
X119734Y25386D01*
X119756Y25363D01*
X119770Y25350D01*
X119776Y25344D01*
X119792Y25322D01*
X119812Y25297D01*
X119842Y25247D01*
X119853Y25225D01*
X119864Y25208D01*
X119870Y25197D01*
X119873Y25192D01*
X119881Y25242D01*
X119889Y25289D01*
X119903Y25330D01*
X119914Y25372D01*
X119928Y25408D01*
X119945Y25441D01*
X119958Y25471D01*
X119972Y25499D01*
X119989Y25521D01*
X120003Y25543D01*
X120014Y25560D01*
X120025Y25574D01*
X120033Y25585D01*
X120042Y25593D01*
X120044Y25596D01*
X120047Y25599D01*
X120075Y25621D01*
X120103Y25643D01*
X120161Y25676D01*
X120219Y25699D01*
X120274Y25715D01*
X120321Y25726D01*
X120341Y25729D01*
X120360D01*
X120374Y25732D01*
X120385D01*
X120390D01*
X120393D01*
X120451Y25729D01*
X120504Y25721D01*
X120554Y25707D01*
X120596Y25693D01*
X120632Y25676D01*
X120659Y25665D01*
X120676Y25654D01*
X120679Y25651D01*
X120681D01*
X120726Y25618D01*
X120765Y25585D01*
X120798Y25549D01*
X120823Y25516D01*
X120842Y25485D01*
X120853Y25460D01*
X120861Y25444D01*
X120864Y25441D01*
Y25438D01*
X120872Y25413D01*
X120881Y25383D01*
X120895Y25322D01*
X120903Y25255D01*
X120911Y25194D01*
X120914Y25136D01*
Y25111D01*
X120917Y25089D01*
Y24200D01*
X119000D01*
Y24455D01*
X119850D01*
Y24782D01*
X119848Y24812D01*
Y24834D01*
X119845Y24854D01*
X119842Y24868D01*
Y24879D01*
X119839Y24884D01*
Y24887D01*
X119825Y24931D01*
X119817Y24951D01*
X119809Y24967D01*
X119800Y24984D01*
X119795Y24995D01*
X119792Y25001D01*
X119790Y25003D01*
X119773Y25025D01*
X119753Y25048D01*
X119712Y25089D01*
X119693Y25109D01*
X119676Y25122D01*
X119665Y25131D01*
X119662Y25133D01*
X119623Y25161D01*
X119582Y25192D01*
X119537Y25222D01*
X119496Y25253D01*
X119457Y25278D01*
X119427Y25297D01*
X119415Y25305D01*
X119407Y25311D01*
X119402Y25316D01*
X119399D01*
X119000Y25568D01*
Y25884D01*
X119521Y25554D01*
D02*
G37*
G36*
X63565Y-23171D02*
X63626Y-23182D01*
X63678Y-23199D01*
X63723Y-23215D01*
X63759Y-23232D01*
X63786Y-23249D01*
X63803Y-23260D01*
X63809Y-23262D01*
X63850Y-23301D01*
X63886Y-23343D01*
X63914Y-23387D01*
X63936Y-23431D01*
X63953Y-23470D01*
X63964Y-23501D01*
X63966Y-23512D01*
X63969Y-23520D01*
X63972Y-23526D01*
Y-23528D01*
X63997Y-23481D01*
X64022Y-23442D01*
X64050Y-23409D01*
X64074Y-23382D01*
X64097Y-23359D01*
X64116Y-23343D01*
X64127Y-23335D01*
X64133Y-23332D01*
X64171Y-23310D01*
X64210Y-23293D01*
X64249Y-23279D01*
X64285Y-23271D01*
X64315Y-23265D01*
X64338Y-23262D01*
X64354D01*
X64360D01*
X64407Y-23265D01*
X64454Y-23273D01*
X64495Y-23285D01*
X64531Y-23299D01*
X64562Y-23312D01*
X64587Y-23323D01*
X64601Y-23332D01*
X64606Y-23335D01*
X64648Y-23362D01*
X64684Y-23395D01*
X64714Y-23429D01*
X64742Y-23462D01*
X64761Y-23490D01*
X64778Y-23515D01*
X64786Y-23531D01*
X64789Y-23534D01*
Y-23537D01*
X64811Y-23586D01*
X64828Y-23636D01*
X64842Y-23686D01*
X64850Y-23731D01*
X64856Y-23767D01*
X64858Y-23797D01*
Y-23866D01*
X64853Y-23905D01*
X64839Y-23980D01*
X64817Y-24044D01*
X64795Y-24099D01*
X64781Y-24124D01*
X64770Y-24143D01*
X64759Y-24163D01*
X64748Y-24177D01*
X64739Y-24188D01*
X64734Y-24196D01*
X64731Y-24202D01*
X64728Y-24204D01*
X64676Y-24257D01*
X64617Y-24298D01*
X64556Y-24332D01*
X64495Y-24359D01*
X64443Y-24376D01*
X64421Y-24384D01*
X64401Y-24390D01*
X64385Y-24393D01*
X64374Y-24395D01*
X64365Y-24398D01*
X64363D01*
X64321Y-24163D01*
X64382Y-24152D01*
X64435Y-24135D01*
X64479Y-24116D01*
X64515Y-24096D01*
X64543Y-24077D01*
X64562Y-24060D01*
X64576Y-24049D01*
X64579Y-24046D01*
X64606Y-24010D01*
X64628Y-23972D01*
X64642Y-23936D01*
X64653Y-23900D01*
X64659Y-23866D01*
X64665Y-23841D01*
Y-23819D01*
X64662Y-23769D01*
X64651Y-23725D01*
X64637Y-23686D01*
X64623Y-23653D01*
X64606Y-23628D01*
X64592Y-23609D01*
X64581Y-23595D01*
X64579Y-23592D01*
X64545Y-23562D01*
X64509Y-23539D01*
X64473Y-23526D01*
X64440Y-23515D01*
X64410Y-23509D01*
X64388Y-23504D01*
X64371D01*
X64368D01*
X64365D01*
X64335D01*
X64307Y-23509D01*
X64260Y-23523D01*
X64218Y-23542D01*
X64183Y-23564D01*
X64158Y-23586D01*
X64138Y-23606D01*
X64127Y-23620D01*
X64124Y-23623D01*
Y-23625D01*
X64099Y-23672D01*
X64080Y-23717D01*
X64066Y-23764D01*
X64058Y-23805D01*
X64052Y-23841D01*
X64047Y-23872D01*
Y-23908D01*
X64050Y-23919D01*
Y-23933D01*
X63842Y-23960D01*
X63850Y-23924D01*
X63856Y-23891D01*
X63861Y-23864D01*
X63864Y-23839D01*
X63867Y-23819D01*
Y-23794D01*
X63861Y-23736D01*
X63850Y-23684D01*
X63833Y-23636D01*
X63814Y-23598D01*
X63795Y-23567D01*
X63778Y-23545D01*
X63767Y-23531D01*
X63762Y-23526D01*
X63720Y-23490D01*
X63676Y-23462D01*
X63631Y-23442D01*
X63587Y-23431D01*
X63551Y-23423D01*
X63520Y-23420D01*
X63509Y-23418D01*
X63501D01*
X63496D01*
X63493D01*
X63432Y-23423D01*
X63376Y-23437D01*
X63329Y-23454D01*
X63288Y-23476D01*
X63255Y-23498D01*
X63230Y-23515D01*
X63213Y-23528D01*
X63208Y-23534D01*
X63169Y-23578D01*
X63141Y-23625D01*
X63122Y-23672D01*
X63108Y-23717D01*
X63099Y-23755D01*
X63097Y-23786D01*
X63094Y-23797D01*
Y-23814D01*
X63097Y-23864D01*
X63108Y-23911D01*
X63122Y-23952D01*
X63138Y-23985D01*
X63152Y-24013D01*
X63166Y-24035D01*
X63177Y-24046D01*
X63180Y-24052D01*
X63219Y-24085D01*
X63263Y-24113D01*
X63310Y-24138D01*
X63360Y-24157D01*
X63401Y-24171D01*
X63421Y-24177D01*
X63437Y-24179D01*
X63451Y-24182D01*
X63462Y-24185D01*
X63468Y-24188D01*
X63471D01*
X63440Y-24423D01*
X63396Y-24418D01*
X63354Y-24409D01*
X63277Y-24384D01*
X63210Y-24354D01*
X63182Y-24337D01*
X63155Y-24321D01*
X63130Y-24304D01*
X63111Y-24287D01*
X63091Y-24273D01*
X63077Y-24260D01*
X63066Y-24251D01*
X63058Y-24243D01*
X63052Y-24238D01*
X63050Y-24235D01*
X63025Y-24202D01*
X63000Y-24168D01*
X62980Y-24135D01*
X62964Y-24099D01*
X62936Y-24030D01*
X62919Y-23963D01*
X62914Y-23933D01*
X62908Y-23905D01*
X62906Y-23880D01*
X62903Y-23858D01*
X62900Y-23841D01*
Y-23817D01*
X62903Y-23764D01*
X62908Y-23717D01*
X62917Y-23670D01*
X62928Y-23625D01*
X62941Y-23584D01*
X62955Y-23548D01*
X62972Y-23512D01*
X62989Y-23481D01*
X63003Y-23451D01*
X63019Y-23426D01*
X63033Y-23404D01*
X63047Y-23387D01*
X63058Y-23373D01*
X63066Y-23362D01*
X63072Y-23357D01*
X63074Y-23354D01*
X63108Y-23321D01*
X63144Y-23293D01*
X63180Y-23268D01*
X63216Y-23246D01*
X63249Y-23229D01*
X63285Y-23213D01*
X63352Y-23190D01*
X63382Y-23185D01*
X63410Y-23179D01*
X63435Y-23174D01*
X63457Y-23171D01*
X63473Y-23168D01*
X63487D01*
X63496D01*
X63498D01*
X63565Y-23171D01*
D02*
G37*
G36*
X64850Y-24816D02*
X63457Y-25337D01*
X63399Y-25359D01*
X63343Y-25379D01*
X63291Y-25395D01*
X63244Y-25409D01*
X63202Y-25423D01*
X63171Y-25431D01*
X63160Y-25434D01*
X63152Y-25437D01*
X63147Y-25440D01*
X63144D01*
X63255Y-25473D01*
X63307Y-25490D01*
X63354Y-25506D01*
X63396Y-25520D01*
X63412Y-25526D01*
X63429Y-25528D01*
X63440Y-25534D01*
X63449Y-25537D01*
X63454Y-25539D01*
X63457D01*
X64850Y-26038D01*
Y-26315D01*
X62933Y-25573D01*
Y-25307D01*
X64850Y-24559D01*
Y-24816D01*
D02*
G37*
G36*
X63565Y-26448D02*
X63626Y-26459D01*
X63678Y-26476D01*
X63723Y-26492D01*
X63759Y-26509D01*
X63786Y-26526D01*
X63803Y-26537D01*
X63809Y-26539D01*
X63850Y-26578D01*
X63886Y-26620D01*
X63914Y-26664D01*
X63936Y-26708D01*
X63953Y-26747D01*
X63964Y-26778D01*
X63966Y-26789D01*
X63969Y-26797D01*
X63972Y-26803D01*
Y-26805D01*
X63997Y-26758D01*
X64022Y-26719D01*
X64050Y-26686D01*
X64074Y-26658D01*
X64097Y-26636D01*
X64116Y-26620D01*
X64127Y-26611D01*
X64133Y-26609D01*
X64171Y-26586D01*
X64210Y-26570D01*
X64249Y-26556D01*
X64285Y-26548D01*
X64315Y-26542D01*
X64338Y-26539D01*
X64354D01*
X64360D01*
X64407Y-26542D01*
X64454Y-26550D01*
X64495Y-26561D01*
X64531Y-26575D01*
X64562Y-26589D01*
X64587Y-26600D01*
X64601Y-26609D01*
X64606Y-26611D01*
X64648Y-26639D01*
X64684Y-26672D01*
X64714Y-26706D01*
X64742Y-26739D01*
X64761Y-26766D01*
X64778Y-26791D01*
X64786Y-26808D01*
X64789Y-26811D01*
Y-26814D01*
X64811Y-26864D01*
X64828Y-26913D01*
X64842Y-26963D01*
X64850Y-27007D01*
X64856Y-27044D01*
X64858Y-27074D01*
Y-27143D01*
X64853Y-27182D01*
X64839Y-27257D01*
X64817Y-27321D01*
X64795Y-27376D01*
X64781Y-27401D01*
X64770Y-27420D01*
X64759Y-27440D01*
X64748Y-27454D01*
X64739Y-27465D01*
X64734Y-27473D01*
X64731Y-27478D01*
X64728Y-27481D01*
X64676Y-27534D01*
X64617Y-27575D01*
X64556Y-27609D01*
X64495Y-27636D01*
X64443Y-27653D01*
X64421Y-27661D01*
X64401Y-27667D01*
X64385Y-27670D01*
X64374Y-27672D01*
X64365Y-27675D01*
X64363D01*
X64321Y-27440D01*
X64382Y-27428D01*
X64435Y-27412D01*
X64479Y-27393D01*
X64515Y-27373D01*
X64543Y-27354D01*
X64562Y-27337D01*
X64576Y-27326D01*
X64579Y-27323D01*
X64606Y-27287D01*
X64628Y-27248D01*
X64642Y-27213D01*
X64653Y-27176D01*
X64659Y-27143D01*
X64665Y-27118D01*
Y-27096D01*
X64662Y-27046D01*
X64651Y-27002D01*
X64637Y-26963D01*
X64623Y-26930D01*
X64606Y-26905D01*
X64592Y-26886D01*
X64581Y-26872D01*
X64579Y-26869D01*
X64545Y-26838D01*
X64509Y-26816D01*
X64473Y-26803D01*
X64440Y-26791D01*
X64410Y-26786D01*
X64388Y-26780D01*
X64371D01*
X64368D01*
X64365D01*
X64335D01*
X64307Y-26786D01*
X64260Y-26800D01*
X64218Y-26819D01*
X64183Y-26841D01*
X64158Y-26864D01*
X64138Y-26883D01*
X64127Y-26897D01*
X64124Y-26899D01*
Y-26902D01*
X64099Y-26949D01*
X64080Y-26994D01*
X64066Y-27041D01*
X64058Y-27082D01*
X64052Y-27118D01*
X64047Y-27149D01*
Y-27185D01*
X64050Y-27196D01*
Y-27210D01*
X63842Y-27237D01*
X63850Y-27201D01*
X63856Y-27168D01*
X63861Y-27141D01*
X63864Y-27115D01*
X63867Y-27096D01*
Y-27071D01*
X63861Y-27013D01*
X63850Y-26960D01*
X63833Y-26913D01*
X63814Y-26875D01*
X63795Y-26844D01*
X63778Y-26822D01*
X63767Y-26808D01*
X63762Y-26803D01*
X63720Y-26766D01*
X63676Y-26739D01*
X63631Y-26719D01*
X63587Y-26708D01*
X63551Y-26700D01*
X63520Y-26697D01*
X63509Y-26695D01*
X63501D01*
X63496D01*
X63493D01*
X63432Y-26700D01*
X63376Y-26714D01*
X63329Y-26730D01*
X63288Y-26753D01*
X63255Y-26775D01*
X63230Y-26791D01*
X63213Y-26805D01*
X63208Y-26811D01*
X63169Y-26855D01*
X63141Y-26902D01*
X63122Y-26949D01*
X63108Y-26994D01*
X63099Y-27032D01*
X63097Y-27063D01*
X63094Y-27074D01*
Y-27091D01*
X63097Y-27141D01*
X63108Y-27187D01*
X63122Y-27229D01*
X63138Y-27262D01*
X63152Y-27290D01*
X63166Y-27312D01*
X63177Y-27323D01*
X63180Y-27329D01*
X63219Y-27362D01*
X63263Y-27390D01*
X63310Y-27415D01*
X63360Y-27434D01*
X63401Y-27448D01*
X63421Y-27454D01*
X63437Y-27456D01*
X63451Y-27459D01*
X63462Y-27462D01*
X63468Y-27465D01*
X63471D01*
X63440Y-27700D01*
X63396Y-27694D01*
X63354Y-27686D01*
X63277Y-27661D01*
X63210Y-27631D01*
X63182Y-27614D01*
X63155Y-27597D01*
X63130Y-27581D01*
X63111Y-27564D01*
X63091Y-27550D01*
X63077Y-27537D01*
X63066Y-27528D01*
X63058Y-27520D01*
X63052Y-27514D01*
X63050Y-27512D01*
X63025Y-27478D01*
X63000Y-27445D01*
X62980Y-27412D01*
X62964Y-27376D01*
X62936Y-27307D01*
X62919Y-27240D01*
X62914Y-27210D01*
X62908Y-27182D01*
X62906Y-27157D01*
X62903Y-27135D01*
X62900Y-27118D01*
Y-27093D01*
X62903Y-27041D01*
X62908Y-26994D01*
X62917Y-26947D01*
X62928Y-26902D01*
X62941Y-26861D01*
X62955Y-26825D01*
X62972Y-26789D01*
X62989Y-26758D01*
X63003Y-26728D01*
X63019Y-26703D01*
X63033Y-26681D01*
X63047Y-26664D01*
X63058Y-26650D01*
X63066Y-26639D01*
X63072Y-26634D01*
X63074Y-26631D01*
X63108Y-26597D01*
X63144Y-26570D01*
X63180Y-26545D01*
X63216Y-26523D01*
X63249Y-26506D01*
X63285Y-26489D01*
X63352Y-26467D01*
X63382Y-26462D01*
X63410Y-26456D01*
X63435Y-26451D01*
X63457Y-26448D01*
X63473Y-26445D01*
X63487D01*
X63496D01*
X63498D01*
X63565Y-26448D01*
D02*
G37*
G36*
X104365Y-23371D02*
X104426Y-23382D01*
X104478Y-23399D01*
X104523Y-23415D01*
X104559Y-23432D01*
X104586Y-23449D01*
X104603Y-23460D01*
X104609Y-23462D01*
X104650Y-23501D01*
X104686Y-23543D01*
X104714Y-23587D01*
X104736Y-23631D01*
X104753Y-23670D01*
X104764Y-23701D01*
X104766Y-23712D01*
X104769Y-23720D01*
X104772Y-23726D01*
Y-23728D01*
X104797Y-23681D01*
X104822Y-23642D01*
X104850Y-23609D01*
X104875Y-23582D01*
X104897Y-23559D01*
X104916Y-23543D01*
X104927Y-23535D01*
X104933Y-23532D01*
X104971Y-23509D01*
X105010Y-23493D01*
X105049Y-23479D01*
X105085Y-23471D01*
X105115Y-23465D01*
X105138Y-23462D01*
X105154D01*
X105160D01*
X105207Y-23465D01*
X105254Y-23473D01*
X105296Y-23485D01*
X105332Y-23498D01*
X105362Y-23512D01*
X105387Y-23523D01*
X105401Y-23532D01*
X105406Y-23535D01*
X105448Y-23562D01*
X105484Y-23595D01*
X105514Y-23629D01*
X105542Y-23662D01*
X105561Y-23690D01*
X105578Y-23715D01*
X105586Y-23731D01*
X105589Y-23734D01*
Y-23737D01*
X105611Y-23787D01*
X105628Y-23836D01*
X105642Y-23886D01*
X105650Y-23931D01*
X105656Y-23967D01*
X105658Y-23997D01*
Y-24066D01*
X105653Y-24105D01*
X105639Y-24180D01*
X105617Y-24244D01*
X105595Y-24299D01*
X105581Y-24324D01*
X105570Y-24343D01*
X105559Y-24363D01*
X105548Y-24377D01*
X105539Y-24388D01*
X105534Y-24396D01*
X105531Y-24401D01*
X105528Y-24404D01*
X105476Y-24457D01*
X105417Y-24498D01*
X105357Y-24532D01*
X105296Y-24559D01*
X105243Y-24576D01*
X105221Y-24584D01*
X105201Y-24590D01*
X105185Y-24593D01*
X105174Y-24595D01*
X105165Y-24598D01*
X105163D01*
X105121Y-24363D01*
X105182Y-24352D01*
X105235Y-24335D01*
X105279Y-24316D01*
X105315Y-24296D01*
X105343Y-24277D01*
X105362Y-24260D01*
X105376Y-24249D01*
X105379Y-24246D01*
X105406Y-24210D01*
X105429Y-24172D01*
X105442Y-24136D01*
X105453Y-24100D01*
X105459Y-24066D01*
X105464Y-24041D01*
Y-24019D01*
X105462Y-23969D01*
X105451Y-23925D01*
X105437Y-23886D01*
X105423Y-23853D01*
X105406Y-23828D01*
X105393Y-23809D01*
X105381Y-23795D01*
X105379Y-23792D01*
X105345Y-23762D01*
X105309Y-23740D01*
X105273Y-23726D01*
X105240Y-23715D01*
X105210Y-23709D01*
X105187Y-23704D01*
X105171D01*
X105168D01*
X105165D01*
X105135D01*
X105107Y-23709D01*
X105060Y-23723D01*
X105018Y-23742D01*
X104982Y-23764D01*
X104958Y-23787D01*
X104938Y-23806D01*
X104927Y-23820D01*
X104924Y-23823D01*
Y-23825D01*
X104899Y-23872D01*
X104880Y-23917D01*
X104866Y-23964D01*
X104858Y-24005D01*
X104852Y-24041D01*
X104847Y-24072D01*
Y-24108D01*
X104850Y-24119D01*
Y-24133D01*
X104642Y-24160D01*
X104650Y-24125D01*
X104656Y-24091D01*
X104661Y-24064D01*
X104664Y-24039D01*
X104667Y-24019D01*
Y-23994D01*
X104661Y-23936D01*
X104650Y-23884D01*
X104633Y-23836D01*
X104614Y-23798D01*
X104595Y-23767D01*
X104578Y-23745D01*
X104567Y-23731D01*
X104561Y-23726D01*
X104520Y-23690D01*
X104476Y-23662D01*
X104431Y-23642D01*
X104387Y-23631D01*
X104351Y-23623D01*
X104321Y-23620D01*
X104309Y-23618D01*
X104301D01*
X104296D01*
X104293D01*
X104232Y-23623D01*
X104176Y-23637D01*
X104129Y-23654D01*
X104088Y-23676D01*
X104055Y-23698D01*
X104030Y-23715D01*
X104013Y-23728D01*
X104007Y-23734D01*
X103969Y-23778D01*
X103941Y-23825D01*
X103922Y-23872D01*
X103908Y-23917D01*
X103899Y-23956D01*
X103897Y-23986D01*
X103894Y-23997D01*
Y-24014D01*
X103897Y-24064D01*
X103908Y-24111D01*
X103922Y-24152D01*
X103938Y-24185D01*
X103952Y-24213D01*
X103966Y-24235D01*
X103977Y-24246D01*
X103980Y-24252D01*
X104019Y-24285D01*
X104063Y-24313D01*
X104110Y-24338D01*
X104160Y-24357D01*
X104201Y-24371D01*
X104221Y-24377D01*
X104237Y-24379D01*
X104251Y-24382D01*
X104262Y-24385D01*
X104268Y-24388D01*
X104271D01*
X104240Y-24623D01*
X104196Y-24618D01*
X104154Y-24609D01*
X104077Y-24584D01*
X104010Y-24554D01*
X103982Y-24537D01*
X103955Y-24521D01*
X103930Y-24504D01*
X103911Y-24487D01*
X103891Y-24474D01*
X103877Y-24460D01*
X103866Y-24451D01*
X103858Y-24443D01*
X103852Y-24438D01*
X103850Y-24435D01*
X103825Y-24401D01*
X103800Y-24368D01*
X103780Y-24335D01*
X103764Y-24299D01*
X103736Y-24230D01*
X103719Y-24163D01*
X103714Y-24133D01*
X103708Y-24105D01*
X103706Y-24080D01*
X103703Y-24058D01*
X103700Y-24041D01*
Y-24016D01*
X103703Y-23964D01*
X103708Y-23917D01*
X103717Y-23870D01*
X103728Y-23825D01*
X103742Y-23784D01*
X103755Y-23748D01*
X103772Y-23712D01*
X103789Y-23681D01*
X103803Y-23651D01*
X103819Y-23626D01*
X103833Y-23604D01*
X103847Y-23587D01*
X103858Y-23573D01*
X103866Y-23562D01*
X103872Y-23557D01*
X103875Y-23554D01*
X103908Y-23521D01*
X103944Y-23493D01*
X103980Y-23468D01*
X104016Y-23446D01*
X104049Y-23429D01*
X104085Y-23413D01*
X104151Y-23390D01*
X104182Y-23385D01*
X104210Y-23379D01*
X104235Y-23374D01*
X104257Y-23371D01*
X104273Y-23368D01*
X104287D01*
X104296D01*
X104298D01*
X104365Y-23371D01*
D02*
G37*
G36*
X105650Y-25016D02*
X104257Y-25537D01*
X104199Y-25559D01*
X104143Y-25579D01*
X104091Y-25595D01*
X104043Y-25609D01*
X104002Y-25623D01*
X103972Y-25631D01*
X103960Y-25634D01*
X103952Y-25637D01*
X103946Y-25640D01*
X103944D01*
X104055Y-25673D01*
X104107Y-25690D01*
X104154Y-25706D01*
X104196Y-25720D01*
X104212Y-25725D01*
X104229Y-25728D01*
X104240Y-25734D01*
X104248Y-25737D01*
X104254Y-25739D01*
X104257D01*
X105650Y-26238D01*
Y-26515D01*
X103733Y-25773D01*
Y-25507D01*
X105650Y-24759D01*
Y-25016D01*
D02*
G37*
G36*
X104365Y-26648D02*
X104426Y-26659D01*
X104478Y-26676D01*
X104523Y-26692D01*
X104559Y-26709D01*
X104586Y-26726D01*
X104603Y-26737D01*
X104609Y-26739D01*
X104650Y-26778D01*
X104686Y-26820D01*
X104714Y-26864D01*
X104736Y-26908D01*
X104753Y-26947D01*
X104764Y-26978D01*
X104766Y-26989D01*
X104769Y-26997D01*
X104772Y-27003D01*
Y-27005D01*
X104797Y-26958D01*
X104822Y-26919D01*
X104850Y-26886D01*
X104875Y-26858D01*
X104897Y-26836D01*
X104916Y-26820D01*
X104927Y-26811D01*
X104933Y-26809D01*
X104971Y-26787D01*
X105010Y-26770D01*
X105049Y-26756D01*
X105085Y-26748D01*
X105115Y-26742D01*
X105138Y-26739D01*
X105154D01*
X105160D01*
X105207Y-26742D01*
X105254Y-26750D01*
X105296Y-26761D01*
X105332Y-26775D01*
X105362Y-26789D01*
X105387Y-26800D01*
X105401Y-26809D01*
X105406Y-26811D01*
X105448Y-26839D01*
X105484Y-26872D01*
X105514Y-26906D01*
X105542Y-26939D01*
X105561Y-26967D01*
X105578Y-26991D01*
X105586Y-27008D01*
X105589Y-27011D01*
Y-27014D01*
X105611Y-27064D01*
X105628Y-27113D01*
X105642Y-27163D01*
X105650Y-27207D01*
X105656Y-27244D01*
X105658Y-27274D01*
Y-27343D01*
X105653Y-27382D01*
X105639Y-27457D01*
X105617Y-27520D01*
X105595Y-27576D01*
X105581Y-27601D01*
X105570Y-27620D01*
X105559Y-27640D01*
X105548Y-27654D01*
X105539Y-27665D01*
X105534Y-27673D01*
X105531Y-27678D01*
X105528Y-27681D01*
X105476Y-27734D01*
X105417Y-27775D01*
X105357Y-27809D01*
X105296Y-27836D01*
X105243Y-27853D01*
X105221Y-27861D01*
X105201Y-27867D01*
X105185Y-27869D01*
X105174Y-27872D01*
X105165Y-27875D01*
X105163D01*
X105121Y-27640D01*
X105182Y-27628D01*
X105235Y-27612D01*
X105279Y-27593D01*
X105315Y-27573D01*
X105343Y-27554D01*
X105362Y-27537D01*
X105376Y-27526D01*
X105379Y-27523D01*
X105406Y-27487D01*
X105429Y-27448D01*
X105442Y-27413D01*
X105453Y-27376D01*
X105459Y-27343D01*
X105464Y-27318D01*
Y-27296D01*
X105462Y-27246D01*
X105451Y-27202D01*
X105437Y-27163D01*
X105423Y-27130D01*
X105406Y-27105D01*
X105393Y-27086D01*
X105381Y-27072D01*
X105379Y-27069D01*
X105345Y-27038D01*
X105309Y-27016D01*
X105273Y-27003D01*
X105240Y-26991D01*
X105210Y-26986D01*
X105187Y-26980D01*
X105171D01*
X105168D01*
X105165D01*
X105135D01*
X105107Y-26986D01*
X105060Y-27000D01*
X105018Y-27019D01*
X104982Y-27041D01*
X104958Y-27064D01*
X104938Y-27083D01*
X104927Y-27097D01*
X104924Y-27099D01*
Y-27102D01*
X104899Y-27149D01*
X104880Y-27194D01*
X104866Y-27241D01*
X104858Y-27282D01*
X104852Y-27318D01*
X104847Y-27349D01*
Y-27385D01*
X104850Y-27396D01*
Y-27410D01*
X104642Y-27437D01*
X104650Y-27401D01*
X104656Y-27368D01*
X104661Y-27340D01*
X104664Y-27316D01*
X104667Y-27296D01*
Y-27271D01*
X104661Y-27213D01*
X104650Y-27160D01*
X104633Y-27113D01*
X104614Y-27075D01*
X104595Y-27044D01*
X104578Y-27022D01*
X104567Y-27008D01*
X104561Y-27003D01*
X104520Y-26967D01*
X104476Y-26939D01*
X104431Y-26919D01*
X104387Y-26908D01*
X104351Y-26900D01*
X104321Y-26897D01*
X104309Y-26895D01*
X104301D01*
X104296D01*
X104293D01*
X104232Y-26900D01*
X104176Y-26914D01*
X104129Y-26930D01*
X104088Y-26953D01*
X104055Y-26975D01*
X104030Y-26991D01*
X104013Y-27005D01*
X104007Y-27011D01*
X103969Y-27055D01*
X103941Y-27102D01*
X103922Y-27149D01*
X103908Y-27194D01*
X103899Y-27232D01*
X103897Y-27263D01*
X103894Y-27274D01*
Y-27291D01*
X103897Y-27340D01*
X103908Y-27387D01*
X103922Y-27429D01*
X103938Y-27462D01*
X103952Y-27490D01*
X103966Y-27512D01*
X103977Y-27523D01*
X103980Y-27529D01*
X104019Y-27562D01*
X104063Y-27590D01*
X104110Y-27615D01*
X104160Y-27634D01*
X104201Y-27648D01*
X104221Y-27654D01*
X104237Y-27656D01*
X104251Y-27659D01*
X104262Y-27662D01*
X104268Y-27665D01*
X104271D01*
X104240Y-27900D01*
X104196Y-27894D01*
X104154Y-27886D01*
X104077Y-27861D01*
X104010Y-27831D01*
X103982Y-27814D01*
X103955Y-27797D01*
X103930Y-27781D01*
X103911Y-27764D01*
X103891Y-27750D01*
X103877Y-27737D01*
X103866Y-27728D01*
X103858Y-27720D01*
X103852Y-27714D01*
X103850Y-27712D01*
X103825Y-27678D01*
X103800Y-27645D01*
X103780Y-27612D01*
X103764Y-27576D01*
X103736Y-27507D01*
X103719Y-27440D01*
X103714Y-27410D01*
X103708Y-27382D01*
X103706Y-27357D01*
X103703Y-27335D01*
X103700Y-27318D01*
Y-27293D01*
X103703Y-27241D01*
X103708Y-27194D01*
X103717Y-27147D01*
X103728Y-27102D01*
X103742Y-27061D01*
X103755Y-27025D01*
X103772Y-26989D01*
X103789Y-26958D01*
X103803Y-26928D01*
X103819Y-26903D01*
X103833Y-26881D01*
X103847Y-26864D01*
X103858Y-26850D01*
X103866Y-26839D01*
X103872Y-26834D01*
X103875Y-26831D01*
X103908Y-26798D01*
X103944Y-26770D01*
X103980Y-26745D01*
X104016Y-26723D01*
X104049Y-26706D01*
X104085Y-26689D01*
X104151Y-26667D01*
X104182Y-26662D01*
X104210Y-26656D01*
X104235Y-26651D01*
X104257Y-26648D01*
X104273Y-26645D01*
X104287D01*
X104296D01*
X104298D01*
X104365Y-26648D01*
D02*
G37*
G36*
X116105Y26823D02*
X117017Y27488D01*
Y27211D01*
X116507Y26829D01*
X116466Y26796D01*
X116427Y26768D01*
X116388Y26740D01*
X116358Y26718D01*
X116330Y26698D01*
X116308Y26685D01*
X116297Y26676D01*
X116291Y26674D01*
X116324Y26654D01*
X116360Y26632D01*
X116399Y26607D01*
X116438Y26582D01*
X116471Y26557D01*
X116499Y26541D01*
X116510Y26532D01*
X116518Y26527D01*
X116521Y26521D01*
X116524D01*
X117017Y26172D01*
Y25870D01*
X116092Y26524D01*
X115100Y25784D01*
Y26089D01*
X115765Y26574D01*
X115781Y26585D01*
X115801Y26599D01*
X115845Y26629D01*
X115867Y26643D01*
X115884Y26654D01*
X115895Y26662D01*
X115898Y26665D01*
X115856Y26693D01*
X115817Y26718D01*
X115804Y26729D01*
X115793Y26735D01*
X115784Y26740D01*
X115781Y26743D01*
X115100Y27228D01*
Y27541D01*
X116105Y26823D01*
D02*
G37*
G36*
X117017Y24200D02*
X116790D01*
Y24832D01*
X115100D01*
Y25086D01*
X116790D01*
Y25718D01*
X117017D01*
Y24200D01*
D02*
G37*
G36*
X71806Y-25077D02*
X72717Y-24412D01*
Y-24689D01*
X72207Y-25071D01*
X72166Y-25104D01*
X72127Y-25132D01*
X72088Y-25160D01*
X72058Y-25182D01*
X72030Y-25201D01*
X72008Y-25215D01*
X71997Y-25224D01*
X71991Y-25226D01*
X72024Y-25246D01*
X72060Y-25268D01*
X72099Y-25293D01*
X72138Y-25318D01*
X72171Y-25343D01*
X72199Y-25359D01*
X72210Y-25368D01*
X72218Y-25373D01*
X72221Y-25379D01*
X72224D01*
X72717Y-25728D01*
Y-26030D01*
X71792Y-25376D01*
X70800Y-26116D01*
Y-25811D01*
X71465Y-25326D01*
X71481Y-25315D01*
X71501Y-25301D01*
X71545Y-25271D01*
X71567Y-25257D01*
X71584Y-25246D01*
X71595Y-25238D01*
X71598Y-25235D01*
X71556Y-25207D01*
X71517Y-25182D01*
X71504Y-25171D01*
X71492Y-25166D01*
X71484Y-25160D01*
X71481Y-25157D01*
X70800Y-24672D01*
Y-24359D01*
X71806Y-25077D01*
D02*
G37*
G36*
X72717Y-27700D02*
X72490D01*
Y-27068D01*
X70800D01*
Y-26814D01*
X72490D01*
Y-26182D01*
X72717D01*
Y-27700D01*
D02*
G37*
G36*
X108080Y31117D02*
X108125D01*
X108169Y31114D01*
X108208Y31108D01*
X108247Y31106D01*
X108280Y31103D01*
X108310Y31097D01*
X108338Y31095D01*
X108363Y31089D01*
X108382Y31086D01*
X108399Y31083D01*
X108413Y31081D01*
X108421Y31078D01*
X108426Y31075D01*
X108429D01*
X108490Y31058D01*
X108546Y31039D01*
X108593Y31017D01*
X108634Y31000D01*
X108670Y30981D01*
X108695Y30970D01*
X108709Y30959D01*
X108715Y30956D01*
X108756Y30926D01*
X108792Y30895D01*
X108823Y30862D01*
X108850Y30831D01*
X108870Y30804D01*
X108884Y30781D01*
X108892Y30768D01*
X108895Y30765D01*
Y30762D01*
X108917Y30718D01*
X108931Y30671D01*
X108942Y30626D01*
X108950Y30585D01*
X108956Y30549D01*
X108958Y30518D01*
Y30493D01*
X108953Y30419D01*
X108942Y30349D01*
X108922Y30291D01*
X108903Y30241D01*
X108881Y30200D01*
X108872Y30183D01*
X108861Y30169D01*
X108856Y30158D01*
X108850Y30150D01*
X108845Y30147D01*
Y30144D01*
X108800Y30095D01*
X108748Y30053D01*
X108695Y30017D01*
X108645Y29989D01*
X108598Y29967D01*
X108579Y29956D01*
X108560Y29950D01*
X108546Y29945D01*
X108535Y29939D01*
X108529Y29937D01*
X108526D01*
X108485Y29926D01*
X108443Y29915D01*
X108352Y29898D01*
X108260Y29884D01*
X108175Y29876D01*
X108133Y29873D01*
X108097Y29870D01*
X108064D01*
X108033Y29867D01*
X108011D01*
X107992D01*
X107981D01*
X107978D01*
X107881Y29870D01*
X107790Y29876D01*
X107706Y29884D01*
X107629Y29898D01*
X107557Y29912D01*
X107493Y29928D01*
X107435Y29945D01*
X107385Y29962D01*
X107341Y29978D01*
X107302Y29998D01*
X107269Y30011D01*
X107244Y30025D01*
X107222Y30039D01*
X107208Y30047D01*
X107199Y30053D01*
X107197Y30056D01*
X107163Y30086D01*
X107133Y30119D01*
X107105Y30156D01*
X107083Y30191D01*
X107064Y30228D01*
X107047Y30264D01*
X107036Y30299D01*
X107025Y30333D01*
X107017Y30366D01*
X107011Y30397D01*
X107006Y30424D01*
X107003Y30446D01*
X107000Y30466D01*
Y30493D01*
X107006Y30568D01*
X107017Y30637D01*
X107036Y30696D01*
X107055Y30746D01*
X107075Y30787D01*
X107086Y30801D01*
X107094Y30815D01*
X107100Y30826D01*
X107105Y30834D01*
X107111Y30837D01*
Y30840D01*
X107158Y30889D01*
X107208Y30931D01*
X107263Y30967D01*
X107313Y30995D01*
X107360Y31017D01*
X107379Y31028D01*
X107399Y31034D01*
X107413Y31039D01*
X107424Y31045D01*
X107429Y31047D01*
X107432D01*
X107474Y31061D01*
X107515Y31072D01*
X107604Y31089D01*
X107695Y31103D01*
X107784Y31111D01*
X107823Y31114D01*
X107859Y31117D01*
X107892D01*
X107922Y31119D01*
X107945D01*
X107964D01*
X107975D01*
X107978D01*
X108030D01*
X108080Y31117D01*
D02*
G37*
G36*
X108091Y29632D02*
X108188Y29621D01*
X108233Y29612D01*
X108277Y29601D01*
X108316Y29590D01*
X108352Y29582D01*
X108385Y29571D01*
X108415Y29560D01*
X108440Y29552D01*
X108463Y29541D01*
X108479Y29535D01*
X108490Y29530D01*
X108499Y29524D01*
X108501D01*
X108582Y29480D01*
X108654Y29427D01*
X108715Y29372D01*
X108765Y29322D01*
X108803Y29275D01*
X108820Y29252D01*
X108834Y29236D01*
X108842Y29219D01*
X108850Y29208D01*
X108853Y29203D01*
X108856Y29200D01*
X108878Y29158D01*
X108897Y29117D01*
X108931Y29036D01*
X108953Y28953D01*
X108967Y28881D01*
X108972Y28848D01*
X108978Y28815D01*
X108981Y28790D01*
Y28765D01*
X108983Y28745D01*
Y28721D01*
X108981Y28646D01*
X108972Y28577D01*
X108958Y28510D01*
X108942Y28446D01*
X108920Y28388D01*
X108897Y28333D01*
X108872Y28283D01*
X108848Y28239D01*
X108823Y28197D01*
X108798Y28161D01*
X108776Y28131D01*
X108753Y28106D01*
X108737Y28086D01*
X108723Y28070D01*
X108715Y28061D01*
X108712Y28059D01*
X108659Y28014D01*
X108604Y27975D01*
X108543Y27940D01*
X108482Y27912D01*
X108418Y27887D01*
X108357Y27865D01*
X108296Y27848D01*
X108238Y27837D01*
X108183Y27826D01*
X108130Y27818D01*
X108083Y27812D01*
X108044Y27806D01*
X108011D01*
X107986Y27804D01*
X107969D01*
X107967D01*
X107964D01*
X107870Y27809D01*
X107784Y27820D01*
X107701Y27837D01*
X107665Y27848D01*
X107629Y27859D01*
X107598Y27867D01*
X107571Y27878D01*
X107546Y27887D01*
X107524Y27895D01*
X107507Y27901D01*
X107496Y27906D01*
X107487Y27912D01*
X107485D01*
X107404Y27959D01*
X107335Y28009D01*
X107274Y28064D01*
X107224Y28117D01*
X107183Y28164D01*
X107166Y28183D01*
X107155Y28200D01*
X107144Y28216D01*
X107136Y28228D01*
X107133Y28233D01*
X107130Y28236D01*
X107108Y28277D01*
X107089Y28319D01*
X107055Y28402D01*
X107033Y28482D01*
X107017Y28557D01*
X107011Y28593D01*
X107008Y28624D01*
X107003Y28651D01*
Y28676D01*
X107000Y28693D01*
Y28721D01*
X107006Y28812D01*
X107019Y28898D01*
X107036Y28978D01*
X107047Y29014D01*
X107058Y29048D01*
X107069Y29078D01*
X107080Y29106D01*
X107089Y29128D01*
X107097Y29147D01*
X107105Y29164D01*
X107111Y29178D01*
X107116Y29183D01*
Y29186D01*
X107166Y29263D01*
X107222Y29330D01*
X107280Y29385D01*
X107335Y29432D01*
X107388Y29471D01*
X107407Y29485D01*
X107427Y29496D01*
X107443Y29507D01*
X107454Y29513D01*
X107463Y29518D01*
X107465D01*
X107510Y29541D01*
X107554Y29557D01*
X107643Y29588D01*
X107731Y29610D01*
X107812Y29624D01*
X107848Y29626D01*
X107881Y29632D01*
X107911Y29635D01*
X107936D01*
X107958Y29638D01*
X107972D01*
X107983D01*
X107986D01*
X108091Y29632D01*
D02*
G37*
G36*
X108950Y27178D02*
X107033D01*
Y27433D01*
X108950D01*
Y27178D01*
D02*
G37*
G36*
X108446Y26809D02*
X108496Y26804D01*
X108540Y26793D01*
X108579Y26784D01*
X108612Y26773D01*
X108637Y26762D01*
X108651Y26757D01*
X108657Y26754D01*
X108698Y26732D01*
X108734Y26704D01*
X108767Y26679D01*
X108792Y26654D01*
X108812Y26632D01*
X108828Y26615D01*
X108836Y26604D01*
X108839Y26599D01*
X108861Y26563D01*
X108881Y26521D01*
X108897Y26482D01*
X108911Y26446D01*
X108920Y26413D01*
X108925Y26388D01*
X108931Y26369D01*
Y26363D01*
X108936Y26322D01*
X108942Y26275D01*
X108944Y26225D01*
X108947Y26178D01*
X108950Y26136D01*
Y25350D01*
X107033D01*
Y25604D01*
X107812D01*
Y26095D01*
X107814Y26167D01*
X107820Y26236D01*
X107828Y26297D01*
X107839Y26352D01*
X107850Y26405D01*
X107864Y26449D01*
X107881Y26491D01*
X107897Y26527D01*
X107911Y26557D01*
X107928Y26585D01*
X107942Y26607D01*
X107956Y26624D01*
X107964Y26638D01*
X107972Y26646D01*
X107978Y26651D01*
X107981Y26654D01*
X108014Y26682D01*
X108047Y26707D01*
X108080Y26726D01*
X108116Y26746D01*
X108152Y26762D01*
X108186Y26773D01*
X108249Y26793D01*
X108280Y26798D01*
X108307Y26804D01*
X108332Y26807D01*
X108352Y26809D01*
X108371Y26812D01*
X108382D01*
X108390D01*
X108393D01*
X108446Y26809D01*
D02*
G37*
G36*
X108011Y24161D02*
X107784D01*
Y24726D01*
X107424D01*
X107396Y24693D01*
X107371Y24654D01*
X107349Y24613D01*
X107330Y24574D01*
X107313Y24541D01*
X107299Y24510D01*
X107294Y24499D01*
X107291Y24494D01*
X107288Y24488D01*
Y24485D01*
X107269Y24427D01*
X107252Y24369D01*
X107241Y24316D01*
X107235Y24266D01*
X107230Y24225D01*
Y24208D01*
X107227Y24192D01*
Y24164D01*
X107230Y24095D01*
X107241Y24028D01*
X107255Y23967D01*
X107269Y23912D01*
X107285Y23868D01*
X107291Y23848D01*
X107296Y23834D01*
X107302Y23821D01*
X107308Y23812D01*
X107310Y23807D01*
Y23804D01*
X107346Y23746D01*
X107385Y23693D01*
X107427Y23649D01*
X107468Y23613D01*
X107507Y23582D01*
X107537Y23563D01*
X107548Y23555D01*
X107557Y23552D01*
X107562Y23546D01*
X107565D01*
X107634Y23518D01*
X107706Y23496D01*
X107778Y23483D01*
X107848Y23471D01*
X107878Y23469D01*
X107906Y23466D01*
X107933Y23463D01*
X107956D01*
X107972Y23460D01*
X107986D01*
X107994D01*
X107997D01*
X108075Y23463D01*
X108144Y23471D01*
X108211Y23483D01*
X108269Y23496D01*
X108294Y23502D01*
X108316Y23510D01*
X108335Y23516D01*
X108352Y23521D01*
X108366Y23527D01*
X108374Y23530D01*
X108379Y23532D01*
X108382D01*
X108421Y23552D01*
X108457Y23571D01*
X108490Y23591D01*
X108518Y23610D01*
X108540Y23627D01*
X108560Y23640D01*
X108571Y23652D01*
X108573Y23654D01*
X108604Y23685D01*
X108632Y23718D01*
X108654Y23754D01*
X108676Y23787D01*
X108690Y23815D01*
X108703Y23837D01*
X108709Y23854D01*
X108712Y23859D01*
X108731Y23909D01*
X108745Y23959D01*
X108753Y24012D01*
X108762Y24059D01*
X108765Y24100D01*
Y24117D01*
X108767Y24131D01*
Y24161D01*
X108765Y24214D01*
X108759Y24264D01*
X108751Y24308D01*
X108742Y24347D01*
X108731Y24380D01*
X108723Y24405D01*
X108717Y24419D01*
X108715Y24424D01*
X108695Y24466D01*
X108673Y24502D01*
X108651Y24535D01*
X108629Y24560D01*
X108609Y24579D01*
X108596Y24596D01*
X108584Y24604D01*
X108582Y24607D01*
X108548Y24632D01*
X108510Y24652D01*
X108474Y24671D01*
X108435Y24688D01*
X108402Y24699D01*
X108377Y24707D01*
X108366Y24710D01*
X108357Y24712D01*
X108354Y24715D01*
X108352D01*
X108413Y24945D01*
X108482Y24926D01*
X108543Y24901D01*
X108598Y24876D01*
X108643Y24854D01*
X108679Y24832D01*
X108703Y24815D01*
X108720Y24804D01*
X108726Y24798D01*
X108770Y24759D01*
X108806Y24718D01*
X108839Y24674D01*
X108867Y24632D01*
X108886Y24593D01*
X108903Y24563D01*
X108908Y24552D01*
X108911Y24543D01*
X108914Y24538D01*
Y24535D01*
X108936Y24471D01*
X108953Y24405D01*
X108967Y24344D01*
X108975Y24286D01*
X108981Y24233D01*
Y24211D01*
X108983Y24194D01*
Y24106D01*
X108978Y24056D01*
X108964Y23959D01*
X108956Y23915D01*
X108944Y23873D01*
X108936Y23834D01*
X108925Y23798D01*
X108914Y23765D01*
X108903Y23737D01*
X108892Y23712D01*
X108884Y23690D01*
X108875Y23674D01*
X108870Y23663D01*
X108867Y23654D01*
X108864Y23652D01*
X108839Y23613D01*
X108814Y23574D01*
X108756Y23507D01*
X108698Y23449D01*
X108637Y23402D01*
X108584Y23363D01*
X108562Y23350D01*
X108540Y23338D01*
X108523Y23327D01*
X108512Y23322D01*
X108504Y23319D01*
X108501Y23316D01*
X108410Y23278D01*
X108318Y23250D01*
X108230Y23228D01*
X108188Y23222D01*
X108150Y23214D01*
X108114Y23211D01*
X108083Y23205D01*
X108053Y23203D01*
X108028D01*
X108008Y23200D01*
X107994D01*
X107983D01*
X107981D01*
X107878Y23205D01*
X107781Y23219D01*
X107737Y23228D01*
X107695Y23236D01*
X107654Y23247D01*
X107618Y23258D01*
X107585Y23269D01*
X107557Y23280D01*
X107529Y23289D01*
X107510Y23297D01*
X107490Y23305D01*
X107479Y23311D01*
X107471Y23316D01*
X107468D01*
X107388Y23366D01*
X107319Y23422D01*
X107258Y23480D01*
X107208Y23535D01*
X107169Y23588D01*
X107155Y23607D01*
X107141Y23627D01*
X107133Y23643D01*
X107125Y23654D01*
X107122Y23663D01*
X107119Y23665D01*
X107097Y23710D01*
X107080Y23754D01*
X107050Y23843D01*
X107030Y23929D01*
X107014Y24009D01*
X107011Y24045D01*
X107006Y24078D01*
X107003Y24109D01*
Y24134D01*
X107000Y24153D01*
Y24181D01*
X107003Y24258D01*
X107011Y24333D01*
X107025Y24402D01*
X107039Y24463D01*
X107044Y24488D01*
X107050Y24513D01*
X107058Y24535D01*
X107064Y24554D01*
X107069Y24568D01*
X107072Y24579D01*
X107075Y24585D01*
Y24588D01*
X107105Y24663D01*
X107141Y24732D01*
X107180Y24798D01*
X107216Y24857D01*
X107233Y24881D01*
X107249Y24906D01*
X107263Y24926D01*
X107274Y24942D01*
X107285Y24956D01*
X107294Y24967D01*
X107296Y24973D01*
X107299Y24976D01*
X108011D01*
Y24161D01*
D02*
G37*
G36*
X67894Y-22335D02*
X67980Y-22344D01*
X68058Y-22357D01*
X68094Y-22363D01*
X68124Y-22371D01*
X68155Y-22380D01*
X68180Y-22385D01*
X68202Y-22391D01*
X68221Y-22399D01*
X68238Y-22402D01*
X68249Y-22407D01*
X68254Y-22410D01*
X68257D01*
X68329Y-22441D01*
X68393Y-22477D01*
X68448Y-22515D01*
X68495Y-22551D01*
X68534Y-22585D01*
X68562Y-22612D01*
X68570Y-22623D01*
X68578Y-22632D01*
X68581Y-22635D01*
X68584Y-22637D01*
X68620Y-22682D01*
X68648Y-22729D01*
X68673Y-22776D01*
X68692Y-22820D01*
X68706Y-22859D01*
X68714Y-22889D01*
X68720Y-22900D01*
Y-22909D01*
X68722Y-22914D01*
Y-22917D01*
X68731Y-22964D01*
X68739Y-23020D01*
X68744Y-23075D01*
X68747Y-23130D01*
X68750Y-23180D01*
Y-23917D01*
X66833D01*
Y-23227D01*
X66836Y-23164D01*
X66839Y-23105D01*
X66844Y-23053D01*
X66850Y-23009D01*
X66855Y-22970D01*
X66858Y-22942D01*
X66861Y-22934D01*
X66864Y-22925D01*
Y-22920D01*
X66878Y-22870D01*
X66894Y-22826D01*
X66908Y-22787D01*
X66925Y-22754D01*
X66939Y-22726D01*
X66950Y-22706D01*
X66958Y-22695D01*
X66961Y-22690D01*
X66986Y-22654D01*
X67016Y-22623D01*
X67044Y-22593D01*
X67071Y-22568D01*
X67096Y-22546D01*
X67116Y-22529D01*
X67130Y-22518D01*
X67135Y-22515D01*
X67180Y-22488D01*
X67227Y-22460D01*
X67271Y-22438D01*
X67315Y-22421D01*
X67354Y-22405D01*
X67384Y-22393D01*
X67396Y-22391D01*
X67404Y-22388D01*
X67409Y-22385D01*
X67412D01*
X67479Y-22369D01*
X67545Y-22355D01*
X67609Y-22346D01*
X67670Y-22338D01*
X67722Y-22335D01*
X67745D01*
X67764Y-22333D01*
X67778D01*
X67792D01*
X67797D01*
X67800D01*
X67894Y-22335D01*
D02*
G37*
G36*
X68750Y-24587D02*
X67243D01*
X68750Y-25593D01*
Y-25853D01*
X66833D01*
Y-25609D01*
X68337D01*
X66833Y-24607D01*
Y-24344D01*
X68750D01*
Y-24587D01*
D02*
G37*
G36*
X67811Y-27039D02*
X67584D01*
Y-26474D01*
X67224D01*
X67196Y-26507D01*
X67171Y-26546D01*
X67149Y-26587D01*
X67130Y-26626D01*
X67113Y-26659D01*
X67099Y-26690D01*
X67094Y-26701D01*
X67091Y-26706D01*
X67088Y-26712D01*
Y-26715D01*
X67069Y-26773D01*
X67052Y-26831D01*
X67041Y-26884D01*
X67036Y-26934D01*
X67030Y-26975D01*
Y-26992D01*
X67027Y-27008D01*
Y-27036D01*
X67030Y-27105D01*
X67041Y-27172D01*
X67055Y-27233D01*
X67069Y-27288D01*
X67085Y-27332D01*
X67091Y-27352D01*
X67096Y-27366D01*
X67102Y-27380D01*
X67107Y-27388D01*
X67110Y-27393D01*
Y-27396D01*
X67146Y-27454D01*
X67185Y-27507D01*
X67227Y-27551D01*
X67268Y-27587D01*
X67307Y-27618D01*
X67337Y-27637D01*
X67348Y-27645D01*
X67357Y-27648D01*
X67362Y-27654D01*
X67365D01*
X67434Y-27681D01*
X67506Y-27704D01*
X67578Y-27718D01*
X67648Y-27729D01*
X67678Y-27731D01*
X67706Y-27734D01*
X67734Y-27737D01*
X67756D01*
X67772Y-27740D01*
X67786D01*
X67794D01*
X67797D01*
X67875Y-27737D01*
X67944Y-27729D01*
X68010Y-27718D01*
X68069Y-27704D01*
X68094Y-27698D01*
X68116Y-27690D01*
X68135Y-27684D01*
X68152Y-27679D01*
X68166Y-27673D01*
X68174Y-27670D01*
X68180Y-27668D01*
X68182D01*
X68221Y-27648D01*
X68257Y-27629D01*
X68290Y-27609D01*
X68318Y-27590D01*
X68340Y-27573D01*
X68360Y-27560D01*
X68371Y-27549D01*
X68373Y-27546D01*
X68404Y-27515D01*
X68432Y-27482D01*
X68454Y-27446D01*
X68476Y-27413D01*
X68490Y-27385D01*
X68503Y-27363D01*
X68509Y-27346D01*
X68512Y-27341D01*
X68531Y-27291D01*
X68545Y-27241D01*
X68553Y-27188D01*
X68562Y-27141D01*
X68564Y-27100D01*
Y-27083D01*
X68567Y-27069D01*
Y-27039D01*
X68564Y-26986D01*
X68559Y-26936D01*
X68551Y-26892D01*
X68542Y-26853D01*
X68531Y-26820D01*
X68523Y-26795D01*
X68517Y-26781D01*
X68515Y-26776D01*
X68495Y-26734D01*
X68473Y-26698D01*
X68451Y-26665D01*
X68429Y-26640D01*
X68409Y-26621D01*
X68396Y-26604D01*
X68384Y-26596D01*
X68382Y-26593D01*
X68348Y-26568D01*
X68310Y-26548D01*
X68274Y-26529D01*
X68235Y-26513D01*
X68202Y-26501D01*
X68177Y-26493D01*
X68166Y-26490D01*
X68157Y-26488D01*
X68155Y-26485D01*
X68152D01*
X68213Y-26255D01*
X68282Y-26274D01*
X68343Y-26299D01*
X68398Y-26324D01*
X68443Y-26346D01*
X68479Y-26368D01*
X68503Y-26385D01*
X68520Y-26396D01*
X68526Y-26402D01*
X68570Y-26441D01*
X68606Y-26482D01*
X68639Y-26526D01*
X68667Y-26568D01*
X68686Y-26607D01*
X68703Y-26637D01*
X68708Y-26648D01*
X68711Y-26656D01*
X68714Y-26662D01*
Y-26665D01*
X68736Y-26729D01*
X68753Y-26795D01*
X68767Y-26856D01*
X68775Y-26914D01*
X68781Y-26967D01*
Y-26989D01*
X68783Y-27006D01*
Y-27094D01*
X68778Y-27144D01*
X68764Y-27241D01*
X68756Y-27285D01*
X68744Y-27327D01*
X68736Y-27366D01*
X68725Y-27402D01*
X68714Y-27435D01*
X68703Y-27463D01*
X68692Y-27487D01*
X68684Y-27510D01*
X68675Y-27526D01*
X68670Y-27537D01*
X68667Y-27546D01*
X68664Y-27549D01*
X68639Y-27587D01*
X68614Y-27626D01*
X68556Y-27692D01*
X68498Y-27751D01*
X68437Y-27798D01*
X68384Y-27837D01*
X68362Y-27850D01*
X68340Y-27861D01*
X68323Y-27873D01*
X68312Y-27878D01*
X68304Y-27881D01*
X68301Y-27884D01*
X68210Y-27922D01*
X68119Y-27950D01*
X68030Y-27972D01*
X67988Y-27978D01*
X67949Y-27986D01*
X67914Y-27989D01*
X67883Y-27994D01*
X67853Y-27997D01*
X67828D01*
X67808Y-28000D01*
X67794D01*
X67783D01*
X67781D01*
X67678Y-27994D01*
X67581Y-27981D01*
X67537Y-27972D01*
X67495Y-27964D01*
X67454Y-27953D01*
X67418Y-27942D01*
X67384Y-27931D01*
X67357Y-27920D01*
X67329Y-27911D01*
X67310Y-27903D01*
X67290Y-27895D01*
X67279Y-27889D01*
X67271Y-27884D01*
X67268D01*
X67188Y-27834D01*
X67119Y-27778D01*
X67058Y-27720D01*
X67008Y-27665D01*
X66969Y-27612D01*
X66955Y-27593D01*
X66941Y-27573D01*
X66933Y-27557D01*
X66925Y-27546D01*
X66922Y-27537D01*
X66919Y-27535D01*
X66897Y-27490D01*
X66880Y-27446D01*
X66850Y-27357D01*
X66830Y-27272D01*
X66814Y-27191D01*
X66811Y-27155D01*
X66805Y-27122D01*
X66803Y-27091D01*
Y-27066D01*
X66800Y-27047D01*
Y-27019D01*
X66803Y-26942D01*
X66811Y-26867D01*
X66825Y-26798D01*
X66839Y-26737D01*
X66844Y-26712D01*
X66850Y-26687D01*
X66858Y-26665D01*
X66864Y-26645D01*
X66869Y-26632D01*
X66872Y-26621D01*
X66875Y-26615D01*
Y-26612D01*
X66905Y-26537D01*
X66941Y-26468D01*
X66980Y-26402D01*
X67016Y-26344D01*
X67033Y-26319D01*
X67049Y-26294D01*
X67063Y-26274D01*
X67074Y-26258D01*
X67085Y-26244D01*
X67094Y-26233D01*
X67096Y-26227D01*
X67099Y-26224D01*
X67811D01*
Y-27039D01*
D02*
G37*
G36*
X25594Y-22235D02*
X25680Y-22244D01*
X25758Y-22257D01*
X25794Y-22263D01*
X25824Y-22271D01*
X25855Y-22280D01*
X25879Y-22285D01*
X25902Y-22291D01*
X25921Y-22299D01*
X25938Y-22302D01*
X25949Y-22307D01*
X25954Y-22310D01*
X25957D01*
X26029Y-22341D01*
X26093Y-22377D01*
X26148Y-22415D01*
X26195Y-22451D01*
X26234Y-22485D01*
X26262Y-22512D01*
X26270Y-22523D01*
X26278Y-22532D01*
X26281Y-22535D01*
X26284Y-22537D01*
X26320Y-22582D01*
X26348Y-22629D01*
X26373Y-22676D01*
X26392Y-22720D01*
X26406Y-22759D01*
X26414Y-22789D01*
X26420Y-22800D01*
Y-22809D01*
X26422Y-22814D01*
Y-22817D01*
X26431Y-22864D01*
X26439Y-22919D01*
X26445Y-22975D01*
X26447Y-23030D01*
X26450Y-23080D01*
Y-23817D01*
X24533D01*
Y-23127D01*
X24536Y-23064D01*
X24539Y-23005D01*
X24544Y-22953D01*
X24550Y-22908D01*
X24555Y-22870D01*
X24558Y-22842D01*
X24561Y-22834D01*
X24564Y-22825D01*
Y-22820D01*
X24578Y-22770D01*
X24594Y-22726D01*
X24608Y-22687D01*
X24625Y-22654D01*
X24638Y-22626D01*
X24650Y-22606D01*
X24658Y-22595D01*
X24661Y-22590D01*
X24686Y-22554D01*
X24716Y-22523D01*
X24744Y-22493D01*
X24771Y-22468D01*
X24796Y-22446D01*
X24816Y-22429D01*
X24830Y-22418D01*
X24835Y-22415D01*
X24880Y-22388D01*
X24927Y-22360D01*
X24971Y-22338D01*
X25015Y-22321D01*
X25054Y-22305D01*
X25084Y-22294D01*
X25096Y-22291D01*
X25104Y-22288D01*
X25109Y-22285D01*
X25112D01*
X25179Y-22269D01*
X25245Y-22255D01*
X25309Y-22246D01*
X25370Y-22238D01*
X25422Y-22235D01*
X25445D01*
X25464Y-22233D01*
X25478D01*
X25492D01*
X25497D01*
X25500D01*
X25594Y-22235D01*
D02*
G37*
G36*
X26450Y-24487D02*
X24943D01*
X26450Y-25493D01*
Y-25753D01*
X24533D01*
Y-25510D01*
X26037D01*
X24533Y-24507D01*
Y-24244D01*
X26450D01*
Y-24487D01*
D02*
G37*
G36*
X25511Y-26939D02*
X25284D01*
Y-26374D01*
X24924D01*
X24896Y-26407D01*
X24871Y-26446D01*
X24849Y-26487D01*
X24830Y-26526D01*
X24813Y-26559D01*
X24799Y-26590D01*
X24794Y-26601D01*
X24791Y-26606D01*
X24788Y-26612D01*
Y-26615D01*
X24769Y-26673D01*
X24752Y-26731D01*
X24741Y-26784D01*
X24735Y-26834D01*
X24730Y-26875D01*
Y-26892D01*
X24727Y-26908D01*
Y-26936D01*
X24730Y-27005D01*
X24741Y-27072D01*
X24755Y-27133D01*
X24769Y-27188D01*
X24785Y-27232D01*
X24791Y-27252D01*
X24796Y-27266D01*
X24802Y-27279D01*
X24807Y-27288D01*
X24810Y-27293D01*
Y-27296D01*
X24846Y-27354D01*
X24885Y-27407D01*
X24927Y-27451D01*
X24968Y-27487D01*
X25007Y-27518D01*
X25037Y-27537D01*
X25049Y-27545D01*
X25057Y-27548D01*
X25062Y-27554D01*
X25065D01*
X25134Y-27582D01*
X25206Y-27604D01*
X25278Y-27617D01*
X25348Y-27628D01*
X25378Y-27631D01*
X25406Y-27634D01*
X25433Y-27637D01*
X25456D01*
X25472Y-27640D01*
X25486D01*
X25494D01*
X25497D01*
X25575Y-27637D01*
X25644Y-27628D01*
X25710Y-27617D01*
X25769Y-27604D01*
X25794Y-27598D01*
X25816Y-27590D01*
X25835Y-27584D01*
X25852Y-27579D01*
X25866Y-27573D01*
X25874Y-27570D01*
X25879Y-27568D01*
X25882D01*
X25921Y-27548D01*
X25957Y-27529D01*
X25990Y-27509D01*
X26018Y-27490D01*
X26040Y-27473D01*
X26059Y-27460D01*
X26071Y-27448D01*
X26073Y-27446D01*
X26104Y-27415D01*
X26131Y-27382D01*
X26154Y-27346D01*
X26176Y-27313D01*
X26190Y-27285D01*
X26204Y-27263D01*
X26209Y-27246D01*
X26212Y-27241D01*
X26231Y-27191D01*
X26245Y-27141D01*
X26253Y-27088D01*
X26262Y-27041D01*
X26265Y-27000D01*
Y-26983D01*
X26267Y-26969D01*
Y-26939D01*
X26265Y-26886D01*
X26259Y-26836D01*
X26251Y-26792D01*
X26242Y-26753D01*
X26231Y-26720D01*
X26223Y-26695D01*
X26217Y-26681D01*
X26215Y-26676D01*
X26195Y-26634D01*
X26173Y-26598D01*
X26151Y-26565D01*
X26129Y-26540D01*
X26109Y-26520D01*
X26096Y-26504D01*
X26084Y-26496D01*
X26082Y-26493D01*
X26048Y-26468D01*
X26010Y-26449D01*
X25974Y-26429D01*
X25935Y-26412D01*
X25902Y-26401D01*
X25877Y-26393D01*
X25866Y-26390D01*
X25857Y-26388D01*
X25855Y-26385D01*
X25852D01*
X25913Y-26155D01*
X25982Y-26174D01*
X26043Y-26199D01*
X26098Y-26224D01*
X26143Y-26246D01*
X26179Y-26269D01*
X26204Y-26285D01*
X26220Y-26296D01*
X26226Y-26302D01*
X26270Y-26340D01*
X26306Y-26382D01*
X26339Y-26426D01*
X26367Y-26468D01*
X26386Y-26507D01*
X26403Y-26537D01*
X26408Y-26548D01*
X26411Y-26557D01*
X26414Y-26562D01*
Y-26565D01*
X26436Y-26629D01*
X26453Y-26695D01*
X26467Y-26756D01*
X26475Y-26814D01*
X26480Y-26867D01*
Y-26889D01*
X26483Y-26906D01*
Y-26994D01*
X26478Y-27044D01*
X26464Y-27141D01*
X26456Y-27185D01*
X26445Y-27227D01*
X26436Y-27266D01*
X26425Y-27302D01*
X26414Y-27335D01*
X26403Y-27363D01*
X26392Y-27387D01*
X26384Y-27410D01*
X26375Y-27426D01*
X26370Y-27437D01*
X26367Y-27446D01*
X26364Y-27448D01*
X26339Y-27487D01*
X26314Y-27526D01*
X26256Y-27593D01*
X26198Y-27651D01*
X26137Y-27698D01*
X26084Y-27737D01*
X26062Y-27750D01*
X26040Y-27762D01*
X26024Y-27773D01*
X26012Y-27778D01*
X26004Y-27781D01*
X26001Y-27784D01*
X25910Y-27822D01*
X25818Y-27850D01*
X25730Y-27872D01*
X25688Y-27878D01*
X25649Y-27886D01*
X25613Y-27889D01*
X25583Y-27894D01*
X25553Y-27897D01*
X25528D01*
X25508Y-27900D01*
X25494D01*
X25483D01*
X25481D01*
X25378Y-27894D01*
X25281Y-27881D01*
X25237Y-27872D01*
X25195Y-27864D01*
X25154Y-27853D01*
X25118Y-27842D01*
X25084Y-27831D01*
X25057Y-27820D01*
X25029Y-27811D01*
X25010Y-27803D01*
X24990Y-27795D01*
X24979Y-27789D01*
X24971Y-27784D01*
X24968D01*
X24888Y-27734D01*
X24818Y-27678D01*
X24758Y-27620D01*
X24708Y-27565D01*
X24669Y-27512D01*
X24655Y-27493D01*
X24641Y-27473D01*
X24633Y-27457D01*
X24625Y-27446D01*
X24622Y-27437D01*
X24619Y-27435D01*
X24597Y-27390D01*
X24580Y-27346D01*
X24550Y-27257D01*
X24531Y-27171D01*
X24514Y-27091D01*
X24511Y-27055D01*
X24506Y-27022D01*
X24503Y-26991D01*
Y-26967D01*
X24500Y-26947D01*
Y-26919D01*
X24503Y-26842D01*
X24511Y-26767D01*
X24525Y-26698D01*
X24539Y-26637D01*
X24544Y-26612D01*
X24550Y-26587D01*
X24558Y-26565D01*
X24564Y-26546D01*
X24569Y-26532D01*
X24572Y-26520D01*
X24575Y-26515D01*
Y-26512D01*
X24605Y-26437D01*
X24641Y-26368D01*
X24680Y-26302D01*
X24716Y-26243D01*
X24733Y-26219D01*
X24749Y-26194D01*
X24763Y-26174D01*
X24774Y-26158D01*
X24785Y-26144D01*
X24794Y-26133D01*
X24796Y-26127D01*
X24799Y-26124D01*
X25511D01*
Y-26939D01*
D02*
G37*
G36*
X127276Y4892D02*
X128016Y3900D01*
X127711D01*
X127226Y4565D01*
X127215Y4581D01*
X127201Y4601D01*
X127171Y4645D01*
X127157Y4667D01*
X127146Y4684D01*
X127137Y4695D01*
X127135Y4698D01*
X127107Y4656D01*
X127082Y4617D01*
X127071Y4604D01*
X127066Y4592D01*
X127060Y4584D01*
X127057Y4581D01*
X126572Y3900D01*
X126259D01*
X126977Y4905D01*
X126312Y5817D01*
X126589D01*
X126971Y5307D01*
X127005Y5266D01*
X127032Y5227D01*
X127060Y5188D01*
X127082Y5158D01*
X127102Y5130D01*
X127115Y5108D01*
X127124Y5097D01*
X127126Y5091D01*
X127146Y5124D01*
X127168Y5160D01*
X127193Y5199D01*
X127218Y5238D01*
X127243Y5271D01*
X127259Y5299D01*
X127268Y5310D01*
X127273Y5318D01*
X127279Y5321D01*
Y5324D01*
X127628Y5817D01*
X127930D01*
X127276Y4892D01*
D02*
G37*
G36*
X129600Y5590D02*
X128968D01*
Y3900D01*
X128714D01*
Y5590D01*
X128082D01*
Y5817D01*
X129600D01*
Y5590D01*
D02*
G37*
G36*
X104194Y28865D02*
X104280Y28856D01*
X104358Y28842D01*
X104394Y28837D01*
X104424Y28829D01*
X104455Y28820D01*
X104480Y28815D01*
X104502Y28809D01*
X104521Y28801D01*
X104538Y28798D01*
X104549Y28793D01*
X104554Y28790D01*
X104557D01*
X104629Y28759D01*
X104693Y28723D01*
X104748Y28685D01*
X104795Y28649D01*
X104834Y28615D01*
X104862Y28588D01*
X104870Y28577D01*
X104878Y28568D01*
X104881Y28565D01*
X104884Y28563D01*
X104920Y28518D01*
X104948Y28471D01*
X104973Y28424D01*
X104992Y28380D01*
X105006Y28341D01*
X105014Y28311D01*
X105020Y28300D01*
Y28291D01*
X105022Y28286D01*
Y28283D01*
X105031Y28236D01*
X105039Y28181D01*
X105044Y28125D01*
X105047Y28070D01*
X105050Y28020D01*
Y27283D01*
X103133D01*
Y27973D01*
X103136Y28036D01*
X103139Y28095D01*
X103144Y28147D01*
X103150Y28192D01*
X103155Y28230D01*
X103158Y28258D01*
X103161Y28266D01*
X103164Y28275D01*
Y28280D01*
X103178Y28330D01*
X103194Y28374D01*
X103208Y28413D01*
X103225Y28446D01*
X103238Y28474D01*
X103250Y28493D01*
X103258Y28505D01*
X103261Y28510D01*
X103286Y28546D01*
X103316Y28577D01*
X103344Y28607D01*
X103372Y28632D01*
X103396Y28654D01*
X103416Y28671D01*
X103430Y28682D01*
X103435Y28685D01*
X103480Y28712D01*
X103527Y28740D01*
X103571Y28762D01*
X103615Y28779D01*
X103654Y28795D01*
X103684Y28806D01*
X103696Y28809D01*
X103704Y28812D01*
X103709Y28815D01*
X103712D01*
X103779Y28831D01*
X103845Y28845D01*
X103909Y28854D01*
X103970Y28862D01*
X104022Y28865D01*
X104045D01*
X104064Y28867D01*
X104078D01*
X104092D01*
X104097D01*
X104100D01*
X104194Y28865D01*
D02*
G37*
G36*
X105050Y26613D02*
X103543D01*
X105050Y25607D01*
Y25347D01*
X103133D01*
Y25591D01*
X104637D01*
X103133Y26593D01*
Y26856D01*
X105050D01*
Y26613D01*
D02*
G37*
G36*
X104111Y24161D02*
X103884D01*
Y24726D01*
X103524D01*
X103496Y24693D01*
X103471Y24654D01*
X103449Y24613D01*
X103430Y24574D01*
X103413Y24541D01*
X103399Y24510D01*
X103394Y24499D01*
X103391Y24494D01*
X103388Y24488D01*
Y24485D01*
X103369Y24427D01*
X103352Y24369D01*
X103341Y24316D01*
X103335Y24266D01*
X103330Y24225D01*
Y24208D01*
X103327Y24192D01*
Y24164D01*
X103330Y24095D01*
X103341Y24028D01*
X103355Y23967D01*
X103369Y23912D01*
X103385Y23868D01*
X103391Y23848D01*
X103396Y23834D01*
X103402Y23821D01*
X103408Y23812D01*
X103410Y23807D01*
Y23804D01*
X103446Y23746D01*
X103485Y23693D01*
X103527Y23649D01*
X103568Y23613D01*
X103607Y23582D01*
X103637Y23563D01*
X103648Y23555D01*
X103657Y23552D01*
X103662Y23546D01*
X103665D01*
X103734Y23518D01*
X103806Y23496D01*
X103878Y23483D01*
X103948Y23471D01*
X103978Y23469D01*
X104006Y23466D01*
X104034Y23463D01*
X104056D01*
X104072Y23460D01*
X104086D01*
X104094D01*
X104097D01*
X104175Y23463D01*
X104244Y23471D01*
X104311Y23483D01*
X104369Y23496D01*
X104394Y23502D01*
X104416Y23510D01*
X104435Y23516D01*
X104452Y23521D01*
X104466Y23527D01*
X104474Y23530D01*
X104480Y23532D01*
X104482D01*
X104521Y23552D01*
X104557Y23571D01*
X104590Y23591D01*
X104618Y23610D01*
X104640Y23627D01*
X104659Y23640D01*
X104671Y23652D01*
X104673Y23654D01*
X104704Y23685D01*
X104732Y23718D01*
X104754Y23754D01*
X104776Y23787D01*
X104790Y23815D01*
X104804Y23837D01*
X104809Y23854D01*
X104812Y23859D01*
X104831Y23909D01*
X104845Y23959D01*
X104853Y24012D01*
X104862Y24059D01*
X104865Y24100D01*
Y24117D01*
X104867Y24131D01*
Y24161D01*
X104865Y24214D01*
X104859Y24264D01*
X104851Y24308D01*
X104842Y24347D01*
X104831Y24380D01*
X104823Y24405D01*
X104817Y24419D01*
X104815Y24424D01*
X104795Y24466D01*
X104773Y24502D01*
X104751Y24535D01*
X104729Y24560D01*
X104709Y24579D01*
X104695Y24596D01*
X104684Y24604D01*
X104682Y24607D01*
X104648Y24632D01*
X104610Y24652D01*
X104574Y24671D01*
X104535Y24688D01*
X104502Y24699D01*
X104477Y24707D01*
X104466Y24710D01*
X104457Y24712D01*
X104455Y24715D01*
X104452D01*
X104513Y24945D01*
X104582Y24926D01*
X104643Y24901D01*
X104698Y24876D01*
X104743Y24854D01*
X104779Y24832D01*
X104804Y24815D01*
X104820Y24804D01*
X104826Y24798D01*
X104870Y24759D01*
X104906Y24718D01*
X104939Y24674D01*
X104967Y24632D01*
X104986Y24593D01*
X105003Y24563D01*
X105008Y24552D01*
X105011Y24543D01*
X105014Y24538D01*
Y24535D01*
X105036Y24471D01*
X105053Y24405D01*
X105067Y24344D01*
X105075Y24286D01*
X105080Y24233D01*
Y24211D01*
X105083Y24194D01*
Y24106D01*
X105078Y24056D01*
X105064Y23959D01*
X105056Y23915D01*
X105044Y23873D01*
X105036Y23834D01*
X105025Y23798D01*
X105014Y23765D01*
X105003Y23737D01*
X104992Y23712D01*
X104984Y23690D01*
X104975Y23674D01*
X104970Y23663D01*
X104967Y23654D01*
X104964Y23652D01*
X104939Y23613D01*
X104914Y23574D01*
X104856Y23507D01*
X104798Y23449D01*
X104737Y23402D01*
X104684Y23363D01*
X104662Y23350D01*
X104640Y23338D01*
X104623Y23327D01*
X104612Y23322D01*
X104604Y23319D01*
X104601Y23316D01*
X104510Y23278D01*
X104419Y23250D01*
X104330Y23228D01*
X104288Y23222D01*
X104250Y23214D01*
X104214Y23211D01*
X104183Y23205D01*
X104153Y23203D01*
X104128D01*
X104108Y23200D01*
X104094D01*
X104083D01*
X104081D01*
X103978Y23205D01*
X103881Y23219D01*
X103837Y23228D01*
X103795Y23236D01*
X103754Y23247D01*
X103718Y23258D01*
X103684Y23269D01*
X103657Y23280D01*
X103629Y23289D01*
X103610Y23297D01*
X103590Y23305D01*
X103579Y23311D01*
X103571Y23316D01*
X103568D01*
X103488Y23366D01*
X103419Y23422D01*
X103358Y23480D01*
X103308Y23535D01*
X103269Y23588D01*
X103255Y23607D01*
X103241Y23627D01*
X103233Y23643D01*
X103225Y23654D01*
X103222Y23663D01*
X103219Y23665D01*
X103197Y23710D01*
X103180Y23754D01*
X103150Y23843D01*
X103130Y23929D01*
X103114Y24009D01*
X103111Y24045D01*
X103105Y24078D01*
X103103Y24109D01*
Y24134D01*
X103100Y24153D01*
Y24181D01*
X103103Y24258D01*
X103111Y24333D01*
X103125Y24402D01*
X103139Y24463D01*
X103144Y24488D01*
X103150Y24513D01*
X103158Y24535D01*
X103164Y24554D01*
X103169Y24568D01*
X103172Y24579D01*
X103175Y24585D01*
Y24588D01*
X103205Y24663D01*
X103241Y24732D01*
X103280Y24798D01*
X103316Y24857D01*
X103333Y24881D01*
X103349Y24906D01*
X103363Y24926D01*
X103374Y24942D01*
X103385Y24956D01*
X103394Y24967D01*
X103396Y24973D01*
X103399Y24976D01*
X104111D01*
Y24161D01*
D02*
G37*
G36*
X103115Y129D02*
X102643D01*
Y667D01*
X103115D01*
Y129D01*
D02*
G37*
G36*
X101034Y-332D02*
X101156Y-354D01*
X101267Y-387D01*
X101361Y-421D01*
X101439Y-454D01*
X101494Y-487D01*
X101517Y-498D01*
X101533Y-509D01*
X101539Y-515D01*
X101544D01*
X101639Y-587D01*
X101722Y-676D01*
X101794Y-759D01*
X101855Y-842D01*
X101900Y-920D01*
X101933Y-981D01*
X101944Y-1003D01*
X101955Y-1020D01*
X101961Y-1031D01*
Y-1037D01*
X102011Y-1164D01*
X102044Y-1292D01*
X102072Y-1414D01*
X102088Y-1525D01*
X102099Y-1625D01*
Y-1664D01*
X102105Y-1703D01*
Y-1730D01*
Y-1753D01*
Y-1764D01*
Y-1769D01*
X102099Y-1875D01*
X102094Y-1980D01*
X102055Y-2169D01*
X102033Y-2258D01*
X102005Y-2335D01*
X101977Y-2413D01*
X101950Y-2480D01*
X101922Y-2546D01*
X101894Y-2602D01*
X101866Y-2646D01*
X101844Y-2691D01*
X101822Y-2718D01*
X101805Y-2746D01*
X101800Y-2757D01*
X101794Y-2763D01*
X101733Y-2835D01*
X101666Y-2896D01*
X101594Y-2951D01*
X101522Y-3001D01*
X101444Y-3040D01*
X101372Y-3073D01*
X101300Y-3101D01*
X101228Y-3123D01*
X101162Y-3140D01*
X101100Y-3151D01*
X101045Y-3162D01*
X100995Y-3168D01*
X100956D01*
X100928Y-3173D01*
X100901D01*
X100817Y-3168D01*
X100734Y-3157D01*
X100656Y-3140D01*
X100584Y-3118D01*
X100457Y-3057D01*
X100340Y-2990D01*
X100296Y-2957D01*
X100251Y-2924D01*
X100212Y-2890D01*
X100185Y-2863D01*
X100162Y-2840D01*
X100146Y-2824D01*
X100135Y-2813D01*
X100129Y-2807D01*
Y-2890D01*
Y-2963D01*
X100135Y-3035D01*
Y-3096D01*
Y-3151D01*
X100140Y-3201D01*
Y-3246D01*
X100146Y-3284D01*
X100151Y-3340D01*
X100157Y-3384D01*
X100162Y-3407D01*
Y-3412D01*
X100190Y-3495D01*
X100229Y-3567D01*
X100268Y-3629D01*
X100307Y-3684D01*
X100346Y-3723D01*
X100379Y-3756D01*
X100401Y-3773D01*
X100407Y-3778D01*
X100479Y-3823D01*
X100562Y-3856D01*
X100645Y-3878D01*
X100723Y-3895D01*
X100801Y-3906D01*
X100856Y-3912D01*
X100912D01*
X101017Y-3906D01*
X101117Y-3889D01*
X101200Y-3867D01*
X101267Y-3839D01*
X101322Y-3817D01*
X101361Y-3795D01*
X101383Y-3778D01*
X101395Y-3773D01*
X101439Y-3734D01*
X101472Y-3684D01*
X101500Y-3634D01*
X101522Y-3584D01*
X101533Y-3534D01*
X101544Y-3495D01*
X101550Y-3473D01*
Y-3462D01*
X102011Y-3401D01*
Y-3484D01*
X101999Y-3556D01*
X101988Y-3629D01*
X101972Y-3695D01*
X101922Y-3812D01*
X101866Y-3906D01*
X101811Y-3978D01*
X101766Y-4028D01*
X101727Y-4061D01*
X101722Y-4067D01*
X101716Y-4072D01*
X101594Y-4150D01*
X101461Y-4206D01*
X101328Y-4245D01*
X101200Y-4272D01*
X101139Y-4283D01*
X101084Y-4289D01*
X101039Y-4294D01*
X100995D01*
X100962Y-4300D01*
X100912D01*
X100762Y-4294D01*
X100623Y-4272D01*
X100501Y-4250D01*
X100401Y-4217D01*
X100318Y-4189D01*
X100285Y-4178D01*
X100257Y-4161D01*
X100235Y-4156D01*
X100218Y-4145D01*
X100212Y-4139D01*
X100207D01*
X100107Y-4078D01*
X100018Y-4006D01*
X99946Y-3934D01*
X99885Y-3867D01*
X99840Y-3806D01*
X99813Y-3756D01*
X99791Y-3723D01*
X99785Y-3717D01*
Y-3712D01*
X99763Y-3656D01*
X99741Y-3595D01*
X99724Y-3528D01*
X99707Y-3456D01*
X99685Y-3301D01*
X99669Y-3151D01*
X99663Y-3079D01*
X99657Y-3012D01*
Y-2951D01*
X99652Y-2901D01*
Y-2857D01*
Y-2824D01*
Y-2802D01*
Y-2796D01*
Y-387D01*
X100085D01*
Y-731D01*
X100146Y-659D01*
X100212Y-598D01*
X100279Y-543D01*
X100346Y-498D01*
X100418Y-459D01*
X100484Y-426D01*
X100551Y-398D01*
X100612Y-376D01*
X100673Y-359D01*
X100728Y-348D01*
X100778Y-337D01*
X100817Y-332D01*
X100851Y-326D01*
X100901D01*
X101034Y-332D01*
D02*
G37*
G36*
X80687Y-3173D02*
X80177D01*
Y-1841D01*
X79550Y-1236D01*
X78184Y-3173D01*
X77513D01*
X79195Y-892D01*
X77585Y667D01*
X78279D01*
X80177Y-1242D01*
Y667D01*
X80687D01*
Y-3173D01*
D02*
G37*
G36*
X76103Y-332D02*
X76220Y-343D01*
X76331Y-359D01*
X76420Y-376D01*
X76497Y-393D01*
X76553Y-410D01*
X76575Y-415D01*
X76592Y-421D01*
X76597Y-426D01*
X76603D01*
X76697Y-465D01*
X76780Y-515D01*
X76852Y-559D01*
X76913Y-604D01*
X76958Y-648D01*
X76991Y-681D01*
X77013Y-704D01*
X77019Y-709D01*
X77069Y-781D01*
X77113Y-859D01*
X77147Y-937D01*
X77174Y-1009D01*
X77197Y-1081D01*
X77213Y-1131D01*
X77219Y-1153D01*
Y-1170D01*
X77224Y-1175D01*
Y-1181D01*
X76764Y-1242D01*
X76730Y-1142D01*
X76697Y-1053D01*
X76658Y-981D01*
X76625Y-926D01*
X76592Y-881D01*
X76564Y-853D01*
X76542Y-837D01*
X76536Y-831D01*
X76469Y-792D01*
X76392Y-765D01*
X76309Y-742D01*
X76231Y-731D01*
X76153Y-720D01*
X76098Y-715D01*
X76042D01*
X75915Y-720D01*
X75804Y-737D01*
X75715Y-765D01*
X75637Y-792D01*
X75582Y-826D01*
X75537Y-848D01*
X75509Y-870D01*
X75504Y-876D01*
X75459Y-926D01*
X75426Y-987D01*
X75398Y-1053D01*
X75382Y-1120D01*
X75371Y-1181D01*
X75365Y-1236D01*
Y-1270D01*
Y-1275D01*
Y-1281D01*
Y-1292D01*
Y-1314D01*
Y-1353D01*
X75371Y-1386D01*
Y-1397D01*
Y-1403D01*
X75426Y-1420D01*
X75487Y-1436D01*
X75615Y-1469D01*
X75759Y-1497D01*
X75892Y-1525D01*
X75959Y-1536D01*
X76020Y-1542D01*
X76076Y-1553D01*
X76120Y-1558D01*
X76159Y-1564D01*
X76187D01*
X76209Y-1569D01*
X76214D01*
X76314Y-1581D01*
X76397Y-1597D01*
X76469Y-1608D01*
X76525Y-1619D01*
X76569Y-1625D01*
X76603Y-1636D01*
X76625Y-1642D01*
X76630D01*
X76703Y-1664D01*
X76764Y-1686D01*
X76825Y-1714D01*
X76875Y-1736D01*
X76919Y-1758D01*
X76947Y-1780D01*
X76969Y-1791D01*
X76974Y-1797D01*
X77030Y-1836D01*
X77074Y-1880D01*
X77119Y-1925D01*
X77152Y-1969D01*
X77180Y-2008D01*
X77202Y-2041D01*
X77213Y-2063D01*
X77219Y-2069D01*
X77246Y-2130D01*
X77269Y-2197D01*
X77285Y-2258D01*
X77297Y-2319D01*
X77302Y-2369D01*
X77308Y-2407D01*
Y-2430D01*
Y-2441D01*
X77302Y-2507D01*
X77297Y-2563D01*
X77269Y-2679D01*
X77230Y-2774D01*
X77185Y-2857D01*
X77141Y-2924D01*
X77102Y-2974D01*
X77074Y-3001D01*
X77063Y-3012D01*
X76964Y-3085D01*
X76852Y-3140D01*
X76730Y-3179D01*
X76619Y-3207D01*
X76519Y-3223D01*
X76475Y-3229D01*
X76436D01*
X76403Y-3234D01*
X76358D01*
X76259Y-3229D01*
X76159Y-3218D01*
X76070Y-3207D01*
X75992Y-3190D01*
X75931Y-3173D01*
X75881Y-3157D01*
X75848Y-3151D01*
X75837Y-3146D01*
X75742Y-3107D01*
X75654Y-3057D01*
X75570Y-3001D01*
X75487Y-2951D01*
X75421Y-2901D01*
X75371Y-2863D01*
X75337Y-2835D01*
X75332Y-2824D01*
X75326D01*
X75315Y-2896D01*
X75304Y-2963D01*
X75293Y-3023D01*
X75276Y-3073D01*
X75260Y-3118D01*
X75248Y-3146D01*
X75243Y-3168D01*
X75237Y-3173D01*
X74743D01*
X74771Y-3112D01*
X74799Y-3051D01*
X74821Y-2996D01*
X74832Y-2946D01*
X74849Y-2901D01*
X74854Y-2868D01*
X74860Y-2846D01*
Y-2840D01*
X74866Y-2802D01*
X74871Y-2752D01*
Y-2696D01*
X74877Y-2635D01*
X74882Y-2496D01*
Y-2358D01*
X74888Y-2224D01*
Y-2163D01*
Y-2113D01*
Y-2069D01*
Y-2036D01*
Y-2013D01*
Y-2008D01*
Y-1375D01*
Y-1270D01*
X74893Y-1175D01*
X74899Y-1103D01*
Y-1042D01*
X74904Y-998D01*
X74910Y-965D01*
X74915Y-948D01*
Y-942D01*
X74932Y-870D01*
X74954Y-809D01*
X74976Y-759D01*
X75004Y-709D01*
X75027Y-676D01*
X75043Y-648D01*
X75054Y-631D01*
X75060Y-626D01*
X75104Y-581D01*
X75154Y-537D01*
X75210Y-504D01*
X75265Y-471D01*
X75315Y-448D01*
X75354Y-432D01*
X75382Y-421D01*
X75393Y-415D01*
X75482Y-387D01*
X75576Y-365D01*
X75670Y-348D01*
X75765Y-337D01*
X75848Y-332D01*
X75909Y-326D01*
X75970D01*
X76103Y-332D01*
D02*
G37*
G36*
X84123Y-3173D02*
X84145Y-3223D01*
X84156Y-3262D01*
X84167Y-3284D01*
Y-3290D01*
X84201Y-3384D01*
X84234Y-3462D01*
X84256Y-3528D01*
X84278Y-3573D01*
X84289Y-3606D01*
X84301Y-3629D01*
X84312Y-3639D01*
Y-3645D01*
X84356Y-3706D01*
X84406Y-3751D01*
X84428Y-3767D01*
X84445Y-3778D01*
X84456Y-3789D01*
X84461D01*
X84500Y-3806D01*
X84539Y-3823D01*
X84623Y-3839D01*
X84656D01*
X84684Y-3845D01*
X84711D01*
X84800Y-3839D01*
X84889Y-3823D01*
X84922Y-3812D01*
X84950Y-3806D01*
X84972Y-3801D01*
X84978D01*
X84928Y-4239D01*
X84867Y-4261D01*
X84811Y-4272D01*
X84761Y-4283D01*
X84717Y-4294D01*
X84678D01*
X84650Y-4300D01*
X84628D01*
X84545Y-4294D01*
X84473Y-4283D01*
X84406Y-4267D01*
X84351Y-4245D01*
X84301Y-4222D01*
X84267Y-4206D01*
X84245Y-4195D01*
X84240Y-4189D01*
X84178Y-4145D01*
X84128Y-4089D01*
X84079Y-4034D01*
X84034Y-3978D01*
X84001Y-3928D01*
X83973Y-3889D01*
X83956Y-3862D01*
X83951Y-3850D01*
X83934Y-3812D01*
X83912Y-3773D01*
X83868Y-3678D01*
X83823Y-3573D01*
X83784Y-3467D01*
X83746Y-3373D01*
X83729Y-3329D01*
X83712Y-3290D01*
X83701Y-3262D01*
X83690Y-3240D01*
X83684Y-3223D01*
Y-3218D01*
X82625Y-387D01*
X83096D01*
X83696Y-2013D01*
X83740Y-2130D01*
X83773Y-2241D01*
X83812Y-2352D01*
X83840Y-2446D01*
X83862Y-2530D01*
X83873Y-2563D01*
X83879Y-2591D01*
X83884Y-2613D01*
X83890Y-2630D01*
X83895Y-2641D01*
Y-2646D01*
X83929Y-2519D01*
X83962Y-2402D01*
X83995Y-2291D01*
X84029Y-2197D01*
X84056Y-2119D01*
X84067Y-2086D01*
X84079Y-2058D01*
X84084Y-2030D01*
X84090Y-2013D01*
X84095Y-2008D01*
Y-2002D01*
X84678Y-387D01*
X85177D01*
X84123Y-3173D01*
D02*
G37*
G36*
X73378Y-3173D02*
X73400Y-3223D01*
X73412Y-3262D01*
X73423Y-3284D01*
Y-3290D01*
X73456Y-3384D01*
X73489Y-3462D01*
X73511Y-3529D01*
X73534Y-3573D01*
X73545Y-3606D01*
X73556Y-3629D01*
X73567Y-3640D01*
Y-3645D01*
X73611Y-3706D01*
X73661Y-3751D01*
X73683Y-3767D01*
X73700Y-3778D01*
X73711Y-3789D01*
X73717D01*
X73756Y-3806D01*
X73794Y-3823D01*
X73878Y-3839D01*
X73911D01*
X73939Y-3845D01*
X73966D01*
X74055Y-3839D01*
X74144Y-3823D01*
X74177Y-3812D01*
X74205Y-3806D01*
X74227Y-3801D01*
X74233D01*
X74183Y-4239D01*
X74122Y-4261D01*
X74066Y-4272D01*
X74016Y-4283D01*
X73972Y-4295D01*
X73933D01*
X73905Y-4300D01*
X73883D01*
X73800Y-4295D01*
X73728Y-4283D01*
X73661Y-4267D01*
X73606Y-4245D01*
X73556Y-4222D01*
X73523Y-4206D01*
X73500Y-4195D01*
X73495Y-4189D01*
X73434Y-4145D01*
X73384Y-4089D01*
X73334Y-4034D01*
X73289Y-3978D01*
X73256Y-3928D01*
X73228Y-3889D01*
X73212Y-3862D01*
X73206Y-3850D01*
X73189Y-3812D01*
X73167Y-3773D01*
X73123Y-3678D01*
X73078Y-3573D01*
X73040Y-3467D01*
X73001Y-3373D01*
X72984Y-3329D01*
X72967Y-3290D01*
X72956Y-3262D01*
X72945Y-3240D01*
X72940Y-3223D01*
Y-3218D01*
X71880Y-387D01*
X72351D01*
X72951Y-2013D01*
X72995Y-2130D01*
X73028Y-2241D01*
X73067Y-2352D01*
X73095Y-2446D01*
X73117Y-2530D01*
X73128Y-2563D01*
X73134Y-2591D01*
X73140Y-2613D01*
X73145Y-2630D01*
X73151Y-2641D01*
Y-2646D01*
X73184Y-2519D01*
X73217Y-2402D01*
X73251Y-2291D01*
X73284Y-2197D01*
X73312Y-2119D01*
X73323Y-2086D01*
X73334Y-2058D01*
X73339Y-2030D01*
X73345Y-2013D01*
X73350Y-2008D01*
Y-2002D01*
X73933Y-387D01*
X74433D01*
X73378Y-3173D01*
D02*
G37*
G36*
X107755Y-332D02*
X107855Y-343D01*
X107949Y-359D01*
X108038Y-387D01*
X108121Y-415D01*
X108199Y-448D01*
X108271Y-482D01*
X108332Y-520D01*
X108393Y-554D01*
X108443Y-593D01*
X108487Y-626D01*
X108521Y-654D01*
X108548Y-681D01*
X108571Y-698D01*
X108582Y-709D01*
X108587Y-715D01*
X108648Y-792D01*
X108704Y-876D01*
X108754Y-959D01*
X108798Y-1048D01*
X108832Y-1142D01*
X108859Y-1231D01*
X108904Y-1409D01*
X108920Y-1486D01*
X108931Y-1564D01*
X108937Y-1630D01*
X108943Y-1691D01*
X108948Y-1742D01*
Y-1775D01*
Y-1802D01*
Y-1808D01*
X108943Y-1930D01*
X108931Y-2047D01*
X108915Y-2158D01*
X108893Y-2258D01*
X108865Y-2352D01*
X108837Y-2441D01*
X108804Y-2518D01*
X108771Y-2591D01*
X108737Y-2652D01*
X108704Y-2707D01*
X108676Y-2751D01*
X108648Y-2790D01*
X108626Y-2824D01*
X108609Y-2846D01*
X108598Y-2857D01*
X108593Y-2863D01*
X108521Y-2929D01*
X108449Y-2985D01*
X108371Y-3035D01*
X108288Y-3079D01*
X108210Y-3112D01*
X108127Y-3146D01*
X107971Y-3190D01*
X107899Y-3201D01*
X107833Y-3212D01*
X107772Y-3223D01*
X107722Y-3229D01*
X107683Y-3234D01*
X107622D01*
X107450Y-3223D01*
X107294Y-3196D01*
X107155Y-3162D01*
X107100Y-3140D01*
X107044Y-3118D01*
X106994Y-3096D01*
X106950Y-3073D01*
X106917Y-3057D01*
X106884Y-3040D01*
X106861Y-3023D01*
X106845Y-3012D01*
X106834Y-3001D01*
X106828D01*
X106717Y-2901D01*
X106628Y-2796D01*
X106551Y-2685D01*
X106495Y-2579D01*
X106451Y-2485D01*
X106434Y-2441D01*
X106417Y-2407D01*
X106406Y-2374D01*
X106401Y-2352D01*
X106395Y-2341D01*
Y-2335D01*
X106884Y-2274D01*
X106928Y-2380D01*
X106978Y-2468D01*
X107028Y-2546D01*
X107072Y-2607D01*
X107111Y-2652D01*
X107144Y-2685D01*
X107172Y-2707D01*
X107178Y-2713D01*
X107250Y-2757D01*
X107322Y-2790D01*
X107400Y-2813D01*
X107466Y-2829D01*
X107527Y-2840D01*
X107577Y-2846D01*
X107622D01*
X107688Y-2840D01*
X107749Y-2835D01*
X107860Y-2807D01*
X107960Y-2768D01*
X108049Y-2724D01*
X108116Y-2685D01*
X108166Y-2646D01*
X108199Y-2618D01*
X108204Y-2607D01*
X108210D01*
X108288Y-2507D01*
X108349Y-2396D01*
X108393Y-2274D01*
X108426Y-2163D01*
X108443Y-2063D01*
X108454Y-2019D01*
X108460Y-1980D01*
Y-1947D01*
X108465Y-1925D01*
Y-1908D01*
Y-1902D01*
X106384D01*
X106378Y-1847D01*
Y-1808D01*
Y-1786D01*
Y-1780D01*
X106384Y-1653D01*
X106395Y-1536D01*
X106412Y-1425D01*
X106434Y-1320D01*
X106462Y-1225D01*
X106490Y-1137D01*
X106523Y-1059D01*
X106556Y-987D01*
X106589Y-920D01*
X106623Y-865D01*
X106650Y-820D01*
X106678Y-781D01*
X106700Y-748D01*
X106717Y-726D01*
X106728Y-715D01*
X106734Y-709D01*
X106800Y-643D01*
X106872Y-581D01*
X106950Y-532D01*
X107028Y-487D01*
X107106Y-448D01*
X107178Y-421D01*
X107255Y-393D01*
X107322Y-376D01*
X107394Y-359D01*
X107455Y-348D01*
X107511Y-337D01*
X107555Y-332D01*
X107594Y-326D01*
X107649D01*
X107755Y-332D01*
D02*
G37*
G36*
X94918D02*
X95018Y-343D01*
X95112Y-359D01*
X95201Y-387D01*
X95284Y-415D01*
X95362Y-448D01*
X95434Y-482D01*
X95495Y-520D01*
X95556Y-554D01*
X95606Y-593D01*
X95650Y-626D01*
X95684Y-654D01*
X95711Y-681D01*
X95734Y-698D01*
X95745Y-709D01*
X95750Y-715D01*
X95811Y-792D01*
X95867Y-876D01*
X95917Y-959D01*
X95961Y-1048D01*
X95994Y-1142D01*
X96022Y-1231D01*
X96066Y-1409D01*
X96083Y-1486D01*
X96094Y-1564D01*
X96100Y-1630D01*
X96105Y-1691D01*
X96111Y-1742D01*
Y-1775D01*
Y-1802D01*
Y-1808D01*
X96105Y-1930D01*
X96094Y-2047D01*
X96078Y-2158D01*
X96055Y-2258D01*
X96028Y-2352D01*
X96000Y-2441D01*
X95967Y-2518D01*
X95933Y-2591D01*
X95900Y-2652D01*
X95867Y-2707D01*
X95839Y-2751D01*
X95811Y-2790D01*
X95789Y-2824D01*
X95772Y-2846D01*
X95761Y-2857D01*
X95756Y-2863D01*
X95684Y-2929D01*
X95612Y-2985D01*
X95534Y-3035D01*
X95451Y-3079D01*
X95373Y-3112D01*
X95289Y-3146D01*
X95134Y-3190D01*
X95062Y-3201D01*
X94995Y-3212D01*
X94934Y-3223D01*
X94884Y-3229D01*
X94846Y-3234D01*
X94784D01*
X94612Y-3223D01*
X94457Y-3196D01*
X94318Y-3162D01*
X94263Y-3140D01*
X94207Y-3118D01*
X94157Y-3096D01*
X94113Y-3073D01*
X94080Y-3057D01*
X94046Y-3040D01*
X94024Y-3023D01*
X94007Y-3012D01*
X93996Y-3001D01*
X93991D01*
X93880Y-2901D01*
X93791Y-2796D01*
X93713Y-2685D01*
X93658Y-2579D01*
X93613Y-2485D01*
X93597Y-2441D01*
X93580Y-2407D01*
X93569Y-2374D01*
X93563Y-2352D01*
X93558Y-2341D01*
Y-2335D01*
X94046Y-2274D01*
X94091Y-2380D01*
X94141Y-2468D01*
X94191Y-2546D01*
X94235Y-2607D01*
X94274Y-2652D01*
X94307Y-2685D01*
X94335Y-2707D01*
X94340Y-2713D01*
X94413Y-2757D01*
X94485Y-2790D01*
X94563Y-2813D01*
X94629Y-2829D01*
X94690Y-2840D01*
X94740Y-2846D01*
X94784D01*
X94851Y-2840D01*
X94912Y-2835D01*
X95023Y-2807D01*
X95123Y-2768D01*
X95212Y-2724D01*
X95278Y-2685D01*
X95328Y-2646D01*
X95362Y-2618D01*
X95367Y-2607D01*
X95373D01*
X95451Y-2507D01*
X95512Y-2396D01*
X95556Y-2274D01*
X95589Y-2163D01*
X95606Y-2063D01*
X95617Y-2019D01*
X95623Y-1980D01*
Y-1947D01*
X95628Y-1925D01*
Y-1908D01*
Y-1902D01*
X93547D01*
X93541Y-1847D01*
Y-1808D01*
Y-1786D01*
Y-1780D01*
X93547Y-1653D01*
X93558Y-1536D01*
X93575Y-1425D01*
X93597Y-1320D01*
X93625Y-1225D01*
X93652Y-1137D01*
X93686Y-1059D01*
X93719Y-987D01*
X93752Y-920D01*
X93786Y-865D01*
X93813Y-820D01*
X93841Y-781D01*
X93863Y-748D01*
X93880Y-726D01*
X93891Y-715D01*
X93897Y-709D01*
X93963Y-643D01*
X94035Y-581D01*
X94113Y-532D01*
X94191Y-487D01*
X94268Y-448D01*
X94340Y-421D01*
X94418Y-393D01*
X94485Y-376D01*
X94557Y-359D01*
X94618Y-348D01*
X94674Y-337D01*
X94718Y-332D01*
X94757Y-326D01*
X94812D01*
X94918Y-332D01*
D02*
G37*
G36*
X112600Y-3173D02*
X111218D01*
X111090Y-3168D01*
X110974Y-3162D01*
X110868Y-3151D01*
X110780Y-3140D01*
X110702Y-3129D01*
X110646Y-3123D01*
X110630Y-3118D01*
X110613Y-3112D01*
X110602D01*
X110502Y-3085D01*
X110413Y-3051D01*
X110336Y-3023D01*
X110269Y-2990D01*
X110213Y-2963D01*
X110175Y-2940D01*
X110152Y-2924D01*
X110141Y-2918D01*
X110069Y-2868D01*
X110008Y-2807D01*
X109947Y-2751D01*
X109897Y-2696D01*
X109853Y-2646D01*
X109819Y-2607D01*
X109797Y-2579D01*
X109792Y-2568D01*
X109736Y-2480D01*
X109681Y-2385D01*
X109636Y-2296D01*
X109603Y-2208D01*
X109570Y-2130D01*
X109547Y-2069D01*
X109542Y-2047D01*
X109536Y-2030D01*
X109531Y-2019D01*
Y-2013D01*
X109498Y-1880D01*
X109470Y-1747D01*
X109453Y-1619D01*
X109437Y-1497D01*
X109431Y-1392D01*
Y-1347D01*
X109425Y-1309D01*
Y-1281D01*
Y-1253D01*
Y-1242D01*
Y-1236D01*
X109431Y-1048D01*
X109448Y-876D01*
X109475Y-720D01*
X109486Y-648D01*
X109503Y-587D01*
X109520Y-526D01*
X109531Y-476D01*
X109542Y-432D01*
X109559Y-393D01*
X109564Y-359D01*
X109575Y-337D01*
X109581Y-326D01*
Y-321D01*
X109642Y-176D01*
X109714Y-49D01*
X109792Y62D01*
X109864Y157D01*
X109930Y234D01*
X109986Y290D01*
X110008Y307D01*
X110025Y323D01*
X110030Y329D01*
X110036Y334D01*
X110125Y406D01*
X110219Y462D01*
X110313Y512D01*
X110402Y551D01*
X110480Y579D01*
X110541Y595D01*
X110563Y606D01*
X110580D01*
X110591Y612D01*
X110597D01*
X110691Y628D01*
X110802Y645D01*
X110913Y656D01*
X111024Y662D01*
X111124Y667D01*
X112600D01*
Y-3173D01*
D02*
G37*
G36*
X103115D02*
X102643D01*
Y-387D01*
X103115D01*
Y-3173D01*
D02*
G37*
G36*
X97737Y-332D02*
X97837Y-348D01*
X97926Y-371D01*
X98015Y-398D01*
X98092Y-432D01*
X98164Y-471D01*
X98231Y-515D01*
X98286Y-554D01*
X98342Y-598D01*
X98387Y-643D01*
X98425Y-681D01*
X98459Y-715D01*
X98481Y-742D01*
X98497Y-765D01*
X98509Y-781D01*
X98514Y-787D01*
Y-387D01*
X98936D01*
Y-3173D01*
X98464D01*
Y-1658D01*
Y-1564D01*
X98453Y-1469D01*
X98442Y-1392D01*
X98431Y-1320D01*
X98414Y-1253D01*
X98398Y-1192D01*
X98375Y-1137D01*
X98353Y-1092D01*
X98336Y-1053D01*
X98314Y-1020D01*
X98298Y-992D01*
X98281Y-970D01*
X98259Y-942D01*
X98248Y-931D01*
X98164Y-865D01*
X98076Y-820D01*
X97987Y-787D01*
X97909Y-759D01*
X97837Y-748D01*
X97781Y-742D01*
X97759Y-737D01*
X97732D01*
X97665Y-742D01*
X97598Y-748D01*
X97543Y-765D01*
X97499Y-781D01*
X97460Y-798D01*
X97426Y-809D01*
X97410Y-820D01*
X97404Y-826D01*
X97354Y-859D01*
X97310Y-898D01*
X97276Y-937D01*
X97249Y-970D01*
X97232Y-1003D01*
X97215Y-1031D01*
X97204Y-1048D01*
Y-1053D01*
X97188Y-1114D01*
X97171Y-1181D01*
X97160Y-1253D01*
X97154Y-1325D01*
X97149Y-1386D01*
Y-1436D01*
Y-1475D01*
Y-1481D01*
Y-1486D01*
Y-3173D01*
X96677D01*
Y-1464D01*
Y-1347D01*
X96683Y-1253D01*
X96688Y-1175D01*
Y-1109D01*
X96694Y-1064D01*
X96699Y-1031D01*
X96705Y-1009D01*
Y-1003D01*
X96722Y-931D01*
X96749Y-865D01*
X96771Y-809D01*
X96794Y-753D01*
X96821Y-715D01*
X96838Y-687D01*
X96849Y-665D01*
X96855Y-659D01*
X96899Y-604D01*
X96949Y-559D01*
X96999Y-515D01*
X97054Y-482D01*
X97099Y-454D01*
X97138Y-437D01*
X97160Y-426D01*
X97171Y-421D01*
X97249Y-387D01*
X97332Y-365D01*
X97410Y-348D01*
X97482Y-337D01*
X97543Y-332D01*
X97587Y-326D01*
X97632D01*
X97737Y-332D01*
D02*
G37*
G36*
X88446Y-3173D02*
X86981D01*
X86848Y-3168D01*
X86731Y-3162D01*
X86626Y-3151D01*
X86537Y-3140D01*
X86465Y-3129D01*
X86410Y-3123D01*
X86376Y-3112D01*
X86365D01*
X86271Y-3085D01*
X86193Y-3057D01*
X86121Y-3023D01*
X86060Y-2990D01*
X86010Y-2968D01*
X85971Y-2946D01*
X85949Y-2929D01*
X85943Y-2924D01*
X85882Y-2874D01*
X85827Y-2813D01*
X85782Y-2751D01*
X85738Y-2696D01*
X85705Y-2641D01*
X85682Y-2602D01*
X85666Y-2574D01*
X85660Y-2563D01*
X85622Y-2474D01*
X85594Y-2385D01*
X85571Y-2302D01*
X85560Y-2224D01*
X85549Y-2158D01*
X85544Y-2102D01*
Y-2069D01*
Y-2063D01*
Y-2058D01*
X85549Y-1936D01*
X85571Y-1825D01*
X85605Y-1730D01*
X85638Y-1642D01*
X85671Y-1575D01*
X85705Y-1525D01*
X85727Y-1492D01*
X85732Y-1481D01*
X85810Y-1392D01*
X85893Y-1320D01*
X85988Y-1259D01*
X86071Y-1209D01*
X86149Y-1170D01*
X86215Y-1148D01*
X86238Y-1137D01*
X86254Y-1131D01*
X86265Y-1125D01*
X86271D01*
X86176Y-1070D01*
X86093Y-1014D01*
X86027Y-953D01*
X85971Y-898D01*
X85927Y-853D01*
X85893Y-809D01*
X85877Y-787D01*
X85871Y-776D01*
X85827Y-692D01*
X85794Y-615D01*
X85766Y-537D01*
X85749Y-465D01*
X85738Y-404D01*
X85732Y-354D01*
Y-326D01*
Y-315D01*
X85738Y-221D01*
X85755Y-126D01*
X85782Y-43D01*
X85810Y35D01*
X85838Y101D01*
X85866Y146D01*
X85882Y179D01*
X85888Y190D01*
X85949Y273D01*
X86015Y351D01*
X86088Y412D01*
X86154Y462D01*
X86210Y501D01*
X86260Y528D01*
X86293Y545D01*
X86299Y551D01*
X86304D01*
X86410Y590D01*
X86526Y617D01*
X86643Y640D01*
X86754Y651D01*
X86853Y662D01*
X86898D01*
X86937Y667D01*
X88446D01*
Y-3173D01*
D02*
G37*
G36*
X71486Y-3173D02*
X71014D01*
Y667D01*
X71486D01*
Y-3173D01*
D02*
G37*
G36*
X66335Y-332D02*
X66391Y-343D01*
X66446Y-359D01*
X66491Y-376D01*
X66524Y-393D01*
X66557Y-410D01*
X66574Y-421D01*
X66579Y-426D01*
X66629Y-471D01*
X66679Y-526D01*
X66729Y-593D01*
X66774Y-654D01*
X66818Y-715D01*
X66846Y-765D01*
X66868Y-804D01*
X66874Y-809D01*
Y-387D01*
X67301D01*
Y-3173D01*
X66829D01*
Y-1719D01*
X66824Y-1608D01*
X66818Y-1508D01*
X66807Y-1414D01*
X66790Y-1331D01*
X66774Y-1264D01*
X66763Y-1214D01*
X66757Y-1181D01*
X66751Y-1170D01*
X66729Y-1109D01*
X66702Y-1059D01*
X66674Y-1014D01*
X66646Y-976D01*
X66618Y-948D01*
X66602Y-926D01*
X66585Y-915D01*
X66579Y-909D01*
X66535Y-876D01*
X66485Y-853D01*
X66435Y-837D01*
X66396Y-826D01*
X66357Y-820D01*
X66330Y-815D01*
X66302D01*
X66241Y-820D01*
X66180Y-831D01*
X66119Y-848D01*
X66069Y-865D01*
X66024Y-881D01*
X65991Y-898D01*
X65969Y-909D01*
X65963Y-915D01*
X65791Y-482D01*
X65886Y-432D01*
X65974Y-393D01*
X66052Y-365D01*
X66124Y-343D01*
X66185Y-332D01*
X66235Y-326D01*
X66274D01*
X66335Y-332D01*
D02*
G37*
G36*
X105046Y-337D02*
X105113Y-343D01*
X105174Y-354D01*
X105224Y-365D01*
X105263Y-376D01*
X105285Y-382D01*
X105296Y-387D01*
X105363Y-410D01*
X105424Y-432D01*
X105474Y-454D01*
X105518Y-476D01*
X105552Y-493D01*
X105574Y-509D01*
X105590Y-515D01*
X105596Y-520D01*
X105651Y-559D01*
X105696Y-604D01*
X105735Y-654D01*
X105768Y-692D01*
X105796Y-731D01*
X105812Y-759D01*
X105824Y-781D01*
X105829Y-787D01*
X105857Y-848D01*
X105879Y-903D01*
X105890Y-965D01*
X105901Y-1014D01*
X105907Y-1064D01*
X105912Y-1098D01*
Y-1120D01*
Y-1131D01*
X105907Y-1209D01*
X105896Y-1275D01*
X105879Y-1342D01*
X105862Y-1397D01*
X105846Y-1442D01*
X105829Y-1481D01*
X105818Y-1503D01*
X105812Y-1508D01*
X105768Y-1569D01*
X105718Y-1619D01*
X105668Y-1664D01*
X105618Y-1703D01*
X105574Y-1730D01*
X105540Y-1753D01*
X105518Y-1764D01*
X105507Y-1769D01*
X105468Y-1786D01*
X105418Y-1808D01*
X105307Y-1847D01*
X105191Y-1880D01*
X105069Y-1919D01*
X104963Y-1947D01*
X104913Y-1963D01*
X104869Y-1974D01*
X104835Y-1986D01*
X104808Y-1991D01*
X104791Y-1997D01*
X104786D01*
X104713Y-2013D01*
X104652Y-2030D01*
X104597Y-2047D01*
X104547Y-2063D01*
X104502Y-2074D01*
X104464Y-2091D01*
X104397Y-2113D01*
X104353Y-2130D01*
X104325Y-2147D01*
X104308Y-2152D01*
X104303Y-2158D01*
X104253Y-2191D01*
X104219Y-2235D01*
X104192Y-2274D01*
X104175Y-2313D01*
X104164Y-2352D01*
X104158Y-2380D01*
Y-2402D01*
Y-2407D01*
X104164Y-2474D01*
X104181Y-2530D01*
X104208Y-2585D01*
X104236Y-2629D01*
X104270Y-2668D01*
X104292Y-2696D01*
X104314Y-2713D01*
X104319Y-2718D01*
X104386Y-2763D01*
X104458Y-2790D01*
X104541Y-2813D01*
X104619Y-2829D01*
X104691Y-2840D01*
X104747Y-2846D01*
X104802D01*
X104919Y-2840D01*
X105019Y-2824D01*
X105102Y-2802D01*
X105174Y-2774D01*
X105230Y-2746D01*
X105274Y-2724D01*
X105296Y-2707D01*
X105307Y-2702D01*
X105368Y-2641D01*
X105418Y-2568D01*
X105452Y-2496D01*
X105479Y-2430D01*
X105501Y-2369D01*
X105513Y-2313D01*
X105524Y-2280D01*
Y-2274D01*
Y-2269D01*
X105990Y-2341D01*
X105951Y-2496D01*
X105901Y-2635D01*
X105840Y-2746D01*
X105779Y-2840D01*
X105724Y-2918D01*
X105674Y-2968D01*
X105640Y-3001D01*
X105635Y-3007D01*
X105629Y-3012D01*
X105574Y-3051D01*
X105513Y-3085D01*
X105379Y-3140D01*
X105241Y-3179D01*
X105107Y-3207D01*
X105046Y-3218D01*
X104991Y-3223D01*
X104935Y-3229D01*
X104891D01*
X104852Y-3234D01*
X104802D01*
X104680Y-3229D01*
X104575Y-3218D01*
X104475Y-3201D01*
X104386Y-3179D01*
X104314Y-3157D01*
X104258Y-3140D01*
X104225Y-3129D01*
X104219Y-3123D01*
X104214D01*
X104120Y-3073D01*
X104042Y-3023D01*
X103975Y-2968D01*
X103914Y-2918D01*
X103870Y-2874D01*
X103842Y-2835D01*
X103820Y-2813D01*
X103814Y-2802D01*
X103770Y-2724D01*
X103737Y-2641D01*
X103709Y-2568D01*
X103692Y-2502D01*
X103681Y-2441D01*
X103676Y-2396D01*
Y-2369D01*
Y-2358D01*
X103681Y-2269D01*
X103692Y-2191D01*
X103715Y-2124D01*
X103731Y-2063D01*
X103753Y-2013D01*
X103776Y-1980D01*
X103787Y-1958D01*
X103792Y-1952D01*
X103837Y-1897D01*
X103886Y-1847D01*
X103936Y-1802D01*
X103986Y-1769D01*
X104036Y-1742D01*
X104070Y-1725D01*
X104092Y-1714D01*
X104103Y-1708D01*
X104142Y-1691D01*
X104186Y-1675D01*
X104292Y-1636D01*
X104408Y-1597D01*
X104525Y-1564D01*
X104630Y-1531D01*
X104680Y-1519D01*
X104719Y-1508D01*
X104752Y-1497D01*
X104780Y-1492D01*
X104797Y-1486D01*
X104802D01*
X104863Y-1469D01*
X104919Y-1453D01*
X104969Y-1442D01*
X105013Y-1425D01*
X105085Y-1409D01*
X105141Y-1392D01*
X105180Y-1375D01*
X105202Y-1370D01*
X105213Y-1364D01*
X105219D01*
X105263Y-1342D01*
X105302Y-1325D01*
X105335Y-1303D01*
X105357Y-1286D01*
X105379Y-1270D01*
X105391Y-1253D01*
X105396Y-1247D01*
X105402Y-1242D01*
X105435Y-1186D01*
X105452Y-1131D01*
Y-1109D01*
X105457Y-1092D01*
Y-1081D01*
Y-1075D01*
X105452Y-1025D01*
X105435Y-975D01*
X105413Y-931D01*
X105385Y-898D01*
X105363Y-865D01*
X105341Y-842D01*
X105324Y-831D01*
X105318Y-826D01*
X105257Y-787D01*
X105185Y-759D01*
X105107Y-742D01*
X105035Y-726D01*
X104963Y-720D01*
X104908Y-715D01*
X104852D01*
X104758Y-720D01*
X104669Y-731D01*
X104597Y-753D01*
X104541Y-776D01*
X104491Y-798D01*
X104458Y-820D01*
X104436Y-831D01*
X104430Y-837D01*
X104375Y-887D01*
X104336Y-942D01*
X104303Y-998D01*
X104275Y-1048D01*
X104258Y-1098D01*
X104247Y-1137D01*
X104242Y-1159D01*
Y-1170D01*
X103781Y-1109D01*
X103803Y-1014D01*
X103825Y-931D01*
X103853Y-859D01*
X103881Y-792D01*
X103909Y-748D01*
X103931Y-709D01*
X103942Y-687D01*
X103948Y-681D01*
X103998Y-626D01*
X104053Y-576D01*
X104114Y-532D01*
X104175Y-493D01*
X104231Y-465D01*
X104275Y-443D01*
X104303Y-432D01*
X104308Y-426D01*
X104314D01*
X104408Y-393D01*
X104508Y-371D01*
X104602Y-348D01*
X104691Y-337D01*
X104774Y-332D01*
X104835Y-326D01*
X104969D01*
X105046Y-337D01*
D02*
G37*
G36*
X91199Y-709D02*
X91249Y-648D01*
X91305Y-598D01*
X91355Y-548D01*
X91410Y-509D01*
X91454Y-482D01*
X91488Y-454D01*
X91510Y-443D01*
X91521Y-437D01*
X91593Y-398D01*
X91671Y-371D01*
X91749Y-354D01*
X91821Y-337D01*
X91882Y-332D01*
X91926Y-326D01*
X91971D01*
X92093Y-332D01*
X92209Y-354D01*
X92315Y-382D01*
X92404Y-415D01*
X92481Y-454D01*
X92537Y-482D01*
X92559Y-493D01*
X92576Y-504D01*
X92581Y-509D01*
X92587D01*
X92687Y-581D01*
X92770Y-670D01*
X92842Y-753D01*
X92897Y-837D01*
X92942Y-915D01*
X92975Y-975D01*
X92986Y-998D01*
X92997Y-1014D01*
X93003Y-1025D01*
Y-1031D01*
X93047Y-1159D01*
X93081Y-1292D01*
X93108Y-1419D01*
X93125Y-1536D01*
X93136Y-1636D01*
Y-1680D01*
X93142Y-1714D01*
Y-1747D01*
Y-1769D01*
Y-1780D01*
Y-1786D01*
X93136Y-1941D01*
X93120Y-2086D01*
X93092Y-2213D01*
X93064Y-2324D01*
X93053Y-2374D01*
X93042Y-2413D01*
X93025Y-2452D01*
X93014Y-2485D01*
X93003Y-2507D01*
X92997Y-2524D01*
X92992Y-2535D01*
Y-2541D01*
X92931Y-2657D01*
X92859Y-2757D01*
X92787Y-2846D01*
X92714Y-2918D01*
X92653Y-2974D01*
X92603Y-3018D01*
X92570Y-3040D01*
X92564Y-3051D01*
X92559D01*
X92453Y-3112D01*
X92348Y-3157D01*
X92243Y-3190D01*
X92148Y-3212D01*
X92071Y-3223D01*
X92004Y-3229D01*
X91982Y-3234D01*
X91948D01*
X91854Y-3229D01*
X91765Y-3218D01*
X91682Y-3196D01*
X91610Y-3168D01*
X91538Y-3140D01*
X91471Y-3107D01*
X91416Y-3068D01*
X91366Y-3029D01*
X91316Y-2990D01*
X91277Y-2951D01*
X91244Y-2918D01*
X91216Y-2890D01*
X91194Y-2863D01*
X91177Y-2840D01*
X91171Y-2829D01*
X91166Y-2824D01*
Y-3173D01*
X90727D01*
Y667D01*
X91199D01*
Y-709D01*
D02*
G37*
G36*
X69249Y-332D02*
X69338Y-337D01*
X69510Y-376D01*
X69660Y-426D01*
X69726Y-454D01*
X69787Y-482D01*
X69843Y-509D01*
X69887Y-537D01*
X69932Y-565D01*
X69965Y-587D01*
X69993Y-609D01*
X70015Y-626D01*
X70026Y-631D01*
X70031Y-637D01*
X70109Y-709D01*
X70170Y-792D01*
X70231Y-881D01*
X70276Y-970D01*
X70320Y-1064D01*
X70353Y-1164D01*
X70381Y-1259D01*
X70403Y-1347D01*
X70425Y-1436D01*
X70437Y-1514D01*
X70448Y-1592D01*
X70453Y-1653D01*
Y-1708D01*
X70459Y-1747D01*
Y-1769D01*
Y-1780D01*
X70453Y-1908D01*
X70442Y-2030D01*
X70425Y-2141D01*
X70403Y-2246D01*
X70376Y-2341D01*
X70348Y-2430D01*
X70315Y-2513D01*
X70281Y-2585D01*
X70248Y-2652D01*
X70215Y-2707D01*
X70187Y-2752D01*
X70159Y-2790D01*
X70137Y-2824D01*
X70120Y-2846D01*
X70109Y-2857D01*
X70104Y-2863D01*
X70031Y-2929D01*
X69959Y-2985D01*
X69882Y-3035D01*
X69804Y-3079D01*
X69726Y-3112D01*
X69643Y-3146D01*
X69493Y-3190D01*
X69427Y-3201D01*
X69360Y-3212D01*
X69304Y-3223D01*
X69254Y-3229D01*
X69210Y-3234D01*
X69155D01*
X69021Y-3229D01*
X68899Y-3207D01*
X68783Y-3179D01*
X68688Y-3151D01*
X68605Y-3118D01*
X68572Y-3107D01*
X68544Y-3096D01*
X68516Y-3085D01*
X68500Y-3073D01*
X68494Y-3068D01*
X68489D01*
X68378Y-2996D01*
X68283Y-2918D01*
X68200Y-2840D01*
X68133Y-2763D01*
X68084Y-2696D01*
X68045Y-2641D01*
X68033Y-2618D01*
X68022Y-2602D01*
X68017Y-2596D01*
Y-2591D01*
X67961Y-2463D01*
X67923Y-2324D01*
X67889Y-2186D01*
X67873Y-2047D01*
X67861Y-1986D01*
Y-1930D01*
X67856Y-1875D01*
X67850Y-1830D01*
Y-1791D01*
Y-1764D01*
Y-1747D01*
Y-1742D01*
X67856Y-1619D01*
X67867Y-1508D01*
X67884Y-1403D01*
X67906Y-1303D01*
X67934Y-1209D01*
X67967Y-1125D01*
X68000Y-1042D01*
X68033Y-976D01*
X68067Y-915D01*
X68100Y-859D01*
X68133Y-809D01*
X68161Y-770D01*
X68183Y-742D01*
X68200Y-720D01*
X68211Y-709D01*
X68217Y-704D01*
X68289Y-637D01*
X68361Y-581D01*
X68439Y-526D01*
X68516Y-487D01*
X68594Y-448D01*
X68672Y-421D01*
X68822Y-371D01*
X68894Y-359D01*
X68955Y-348D01*
X69010Y-337D01*
X69060Y-332D01*
X69099Y-326D01*
X69155D01*
X69249Y-332D01*
D02*
G37*
G36*
X29406Y-24877D02*
X30317Y-24212D01*
Y-24489D01*
X29807Y-24871D01*
X29766Y-24904D01*
X29727Y-24932D01*
X29688Y-24960D01*
X29658Y-24982D01*
X29630Y-25001D01*
X29608Y-25015D01*
X29597Y-25024D01*
X29591Y-25026D01*
X29624Y-25046D01*
X29660Y-25068D01*
X29699Y-25093D01*
X29738Y-25118D01*
X29771Y-25143D01*
X29799Y-25159D01*
X29810Y-25168D01*
X29818Y-25173D01*
X29821Y-25179D01*
X29824D01*
X30317Y-25528D01*
Y-25830D01*
X29392Y-25176D01*
X28400Y-25916D01*
Y-25611D01*
X29065Y-25126D01*
X29081Y-25115D01*
X29101Y-25101D01*
X29145Y-25071D01*
X29167Y-25057D01*
X29184Y-25046D01*
X29195Y-25038D01*
X29198Y-25035D01*
X29156Y-25007D01*
X29117Y-24982D01*
X29104Y-24971D01*
X29092Y-24965D01*
X29084Y-24960D01*
X29081Y-24957D01*
X28400Y-24472D01*
Y-24159D01*
X29406Y-24877D01*
D02*
G37*
G36*
X30317Y-27500D02*
X30090D01*
Y-26868D01*
X28400D01*
Y-26614D01*
X30090D01*
Y-25982D01*
X30317D01*
Y-27500D01*
D02*
G37*
G36*
X68805Y27723D02*
X69717Y28388D01*
Y28111D01*
X69207Y27729D01*
X69166Y27696D01*
X69127Y27668D01*
X69088Y27640D01*
X69058Y27618D01*
X69030Y27599D01*
X69008Y27585D01*
X68997Y27576D01*
X68991Y27574D01*
X69024Y27554D01*
X69060Y27532D01*
X69099Y27507D01*
X69138Y27482D01*
X69171Y27457D01*
X69199Y27441D01*
X69210Y27432D01*
X69218Y27427D01*
X69221Y27421D01*
X69224D01*
X69717Y27072D01*
Y26770D01*
X68792Y27424D01*
X67800Y26684D01*
Y26989D01*
X68465Y27474D01*
X68481Y27485D01*
X68501Y27499D01*
X68545Y27529D01*
X68567Y27543D01*
X68584Y27554D01*
X68595Y27562D01*
X68598Y27565D01*
X68556Y27593D01*
X68517Y27618D01*
X68504Y27629D01*
X68493Y27635D01*
X68484Y27640D01*
X68481Y27643D01*
X67800Y28128D01*
Y28441D01*
X68805Y27723D01*
D02*
G37*
G36*
X69717Y25100D02*
X69490D01*
Y25732D01*
X67800D01*
Y25986D01*
X69490D01*
Y26618D01*
X69717D01*
Y25100D01*
D02*
G37*
G36*
X129082Y-14247D02*
X129157Y-14261D01*
X129220Y-14283D01*
X129276Y-14305D01*
X129301Y-14319D01*
X129320Y-14330D01*
X129340Y-14341D01*
X129353Y-14352D01*
X129365Y-14361D01*
X129373Y-14366D01*
X129378Y-14369D01*
X129381Y-14372D01*
X129434Y-14424D01*
X129475Y-14483D01*
X129509Y-14544D01*
X129536Y-14604D01*
X129553Y-14657D01*
X129561Y-14679D01*
X129567Y-14699D01*
X129569Y-14715D01*
X129572Y-14726D01*
X129575Y-14735D01*
Y-14737D01*
X129340Y-14779D01*
X129329Y-14718D01*
X129312Y-14665D01*
X129293Y-14621D01*
X129273Y-14585D01*
X129254Y-14557D01*
X129237Y-14538D01*
X129226Y-14524D01*
X129223Y-14521D01*
X129187Y-14494D01*
X129148Y-14471D01*
X129113Y-14458D01*
X129077Y-14447D01*
X129043Y-14441D01*
X129018Y-14435D01*
X128996D01*
X128946Y-14438D01*
X128902Y-14449D01*
X128863Y-14463D01*
X128830Y-14477D01*
X128805Y-14494D01*
X128786Y-14507D01*
X128772Y-14519D01*
X128769Y-14521D01*
X128738Y-14555D01*
X128716Y-14591D01*
X128702Y-14627D01*
X128691Y-14660D01*
X128686Y-14690D01*
X128680Y-14713D01*
Y-14729D01*
Y-14732D01*
Y-14735D01*
Y-14765D01*
X128686Y-14793D01*
X128700Y-14840D01*
X128719Y-14882D01*
X128741Y-14918D01*
X128763Y-14942D01*
X128783Y-14962D01*
X128797Y-14973D01*
X128799Y-14976D01*
X128802D01*
X128849Y-15001D01*
X128894Y-15020D01*
X128941Y-15034D01*
X128982Y-15042D01*
X129018Y-15048D01*
X129049Y-15053D01*
X129085D01*
X129096Y-15051D01*
X129110D01*
X129137Y-15258D01*
X129101Y-15250D01*
X129068Y-15244D01*
X129041Y-15239D01*
X129016Y-15236D01*
X128996Y-15233D01*
X128971D01*
X128913Y-15239D01*
X128860Y-15250D01*
X128813Y-15267D01*
X128774Y-15286D01*
X128744Y-15305D01*
X128722Y-15322D01*
X128708Y-15333D01*
X128702Y-15338D01*
X128666Y-15380D01*
X128639Y-15424D01*
X128619Y-15469D01*
X128608Y-15513D01*
X128600Y-15549D01*
X128597Y-15579D01*
X128595Y-15591D01*
Y-15599D01*
Y-15604D01*
Y-15607D01*
X128600Y-15668D01*
X128614Y-15724D01*
X128630Y-15771D01*
X128653Y-15812D01*
X128675Y-15845D01*
X128691Y-15870D01*
X128705Y-15887D01*
X128711Y-15892D01*
X128755Y-15931D01*
X128802Y-15959D01*
X128849Y-15978D01*
X128894Y-15992D01*
X128932Y-16001D01*
X128963Y-16003D01*
X128974Y-16006D01*
X128991D01*
X129041Y-16003D01*
X129088Y-15992D01*
X129129Y-15978D01*
X129162Y-15962D01*
X129190Y-15948D01*
X129212Y-15934D01*
X129223Y-15923D01*
X129229Y-15920D01*
X129262Y-15881D01*
X129290Y-15837D01*
X129315Y-15790D01*
X129334Y-15740D01*
X129348Y-15699D01*
X129353Y-15679D01*
X129356Y-15663D01*
X129359Y-15649D01*
X129362Y-15638D01*
X129365Y-15632D01*
Y-15629D01*
X129600Y-15660D01*
X129595Y-15704D01*
X129586Y-15746D01*
X129561Y-15823D01*
X129531Y-15890D01*
X129514Y-15917D01*
X129498Y-15945D01*
X129481Y-15970D01*
X129464Y-15990D01*
X129450Y-16009D01*
X129437Y-16023D01*
X129428Y-16034D01*
X129420Y-16042D01*
X129414Y-16048D01*
X129412Y-16050D01*
X129378Y-16075D01*
X129345Y-16100D01*
X129312Y-16120D01*
X129276Y-16136D01*
X129207Y-16164D01*
X129140Y-16181D01*
X129110Y-16186D01*
X129082Y-16192D01*
X129057Y-16195D01*
X129035Y-16197D01*
X129018Y-16200D01*
X128993D01*
X128941Y-16197D01*
X128894Y-16192D01*
X128847Y-16183D01*
X128802Y-16172D01*
X128761Y-16158D01*
X128725Y-16145D01*
X128689Y-16128D01*
X128658Y-16111D01*
X128628Y-16097D01*
X128603Y-16081D01*
X128581Y-16067D01*
X128564Y-16053D01*
X128550Y-16042D01*
X128539Y-16034D01*
X128533Y-16028D01*
X128531Y-16025D01*
X128498Y-15992D01*
X128470Y-15956D01*
X128445Y-15920D01*
X128423Y-15884D01*
X128406Y-15851D01*
X128390Y-15815D01*
X128367Y-15748D01*
X128362Y-15718D01*
X128356Y-15690D01*
X128351Y-15665D01*
X128348Y-15643D01*
X128345Y-15627D01*
Y-15613D01*
Y-15604D01*
Y-15602D01*
X128348Y-15535D01*
X128359Y-15474D01*
X128376Y-15422D01*
X128392Y-15377D01*
X128409Y-15341D01*
X128426Y-15314D01*
X128437Y-15297D01*
X128439Y-15291D01*
X128478Y-15250D01*
X128520Y-15214D01*
X128564Y-15186D01*
X128608Y-15164D01*
X128647Y-15147D01*
X128678Y-15136D01*
X128689Y-15134D01*
X128697Y-15131D01*
X128702Y-15128D01*
X128705D01*
X128658Y-15103D01*
X128619Y-15078D01*
X128586Y-15051D01*
X128559Y-15025D01*
X128536Y-15003D01*
X128520Y-14984D01*
X128511Y-14973D01*
X128509Y-14967D01*
X128487Y-14929D01*
X128470Y-14890D01*
X128456Y-14851D01*
X128448Y-14815D01*
X128442Y-14785D01*
X128439Y-14762D01*
Y-14746D01*
Y-14740D01*
X128442Y-14693D01*
X128451Y-14646D01*
X128462Y-14604D01*
X128475Y-14569D01*
X128489Y-14538D01*
X128500Y-14513D01*
X128509Y-14499D01*
X128511Y-14494D01*
X128539Y-14452D01*
X128572Y-14416D01*
X128606Y-14386D01*
X128639Y-14358D01*
X128666Y-14339D01*
X128691Y-14322D01*
X128708Y-14314D01*
X128711Y-14311D01*
X128714D01*
X128763Y-14289D01*
X128813Y-14272D01*
X128863Y-14258D01*
X128908Y-14250D01*
X128944Y-14244D01*
X128974Y-14242D01*
X129043D01*
X129082Y-14247D01*
D02*
G37*
G36*
X125805D02*
X125880Y-14261D01*
X125944Y-14283D01*
X125999Y-14305D01*
X126024Y-14319D01*
X126043Y-14330D01*
X126063Y-14341D01*
X126077Y-14352D01*
X126088Y-14361D01*
X126096Y-14366D01*
X126102Y-14369D01*
X126104Y-14372D01*
X126157Y-14424D01*
X126198Y-14483D01*
X126232Y-14544D01*
X126259Y-14604D01*
X126276Y-14657D01*
X126284Y-14679D01*
X126290Y-14699D01*
X126293Y-14715D01*
X126295Y-14726D01*
X126298Y-14735D01*
Y-14737D01*
X126063Y-14779D01*
X126052Y-14718D01*
X126035Y-14665D01*
X126016Y-14621D01*
X125996Y-14585D01*
X125977Y-14557D01*
X125960Y-14538D01*
X125949Y-14524D01*
X125946Y-14521D01*
X125910Y-14494D01*
X125872Y-14471D01*
X125836Y-14458D01*
X125800Y-14447D01*
X125766Y-14441D01*
X125741Y-14435D01*
X125719D01*
X125669Y-14438D01*
X125625Y-14449D01*
X125586Y-14463D01*
X125553Y-14477D01*
X125528Y-14494D01*
X125509Y-14507D01*
X125495Y-14519D01*
X125492Y-14521D01*
X125462Y-14555D01*
X125440Y-14591D01*
X125426Y-14627D01*
X125415Y-14660D01*
X125409Y-14690D01*
X125403Y-14713D01*
Y-14729D01*
Y-14732D01*
Y-14735D01*
Y-14765D01*
X125409Y-14793D01*
X125423Y-14840D01*
X125442Y-14882D01*
X125464Y-14918D01*
X125487Y-14942D01*
X125506Y-14962D01*
X125520Y-14973D01*
X125523Y-14976D01*
X125525D01*
X125572Y-15001D01*
X125617Y-15020D01*
X125664Y-15034D01*
X125705Y-15042D01*
X125741Y-15048D01*
X125772Y-15053D01*
X125808D01*
X125819Y-15051D01*
X125833D01*
X125861Y-15258D01*
X125824Y-15250D01*
X125791Y-15244D01*
X125764Y-15239D01*
X125739Y-15236D01*
X125719Y-15233D01*
X125694D01*
X125636Y-15239D01*
X125584Y-15250D01*
X125536Y-15267D01*
X125498Y-15286D01*
X125467Y-15305D01*
X125445Y-15322D01*
X125431Y-15333D01*
X125426Y-15338D01*
X125390Y-15380D01*
X125362Y-15424D01*
X125343Y-15469D01*
X125331Y-15513D01*
X125323Y-15549D01*
X125320Y-15579D01*
X125318Y-15591D01*
Y-15599D01*
Y-15604D01*
Y-15607D01*
X125323Y-15668D01*
X125337Y-15724D01*
X125354Y-15771D01*
X125376Y-15812D01*
X125398Y-15845D01*
X125415Y-15870D01*
X125428Y-15887D01*
X125434Y-15892D01*
X125478Y-15931D01*
X125525Y-15959D01*
X125572Y-15978D01*
X125617Y-15992D01*
X125655Y-16001D01*
X125686Y-16003D01*
X125697Y-16006D01*
X125714D01*
X125764Y-16003D01*
X125811Y-15992D01*
X125852Y-15978D01*
X125885Y-15962D01*
X125913Y-15948D01*
X125935Y-15934D01*
X125946Y-15923D01*
X125952Y-15920D01*
X125985Y-15881D01*
X126013Y-15837D01*
X126038Y-15790D01*
X126057Y-15740D01*
X126071Y-15699D01*
X126077Y-15679D01*
X126079Y-15663D01*
X126082Y-15649D01*
X126085Y-15638D01*
X126088Y-15632D01*
Y-15629D01*
X126323Y-15660D01*
X126318Y-15704D01*
X126309Y-15746D01*
X126284Y-15823D01*
X126254Y-15890D01*
X126237Y-15917D01*
X126221Y-15945D01*
X126204Y-15970D01*
X126187Y-15990D01*
X126173Y-16009D01*
X126160Y-16023D01*
X126151Y-16034D01*
X126143Y-16042D01*
X126137Y-16048D01*
X126135Y-16050D01*
X126102Y-16075D01*
X126068Y-16100D01*
X126035Y-16120D01*
X125999Y-16136D01*
X125930Y-16164D01*
X125863Y-16181D01*
X125833Y-16186D01*
X125805Y-16192D01*
X125780Y-16195D01*
X125758Y-16197D01*
X125741Y-16200D01*
X125716D01*
X125664Y-16197D01*
X125617Y-16192D01*
X125570Y-16183D01*
X125525Y-16172D01*
X125484Y-16158D01*
X125448Y-16145D01*
X125412Y-16128D01*
X125381Y-16111D01*
X125351Y-16097D01*
X125326Y-16081D01*
X125304Y-16067D01*
X125287Y-16053D01*
X125273Y-16042D01*
X125262Y-16034D01*
X125257Y-16028D01*
X125254Y-16025D01*
X125221Y-15992D01*
X125193Y-15956D01*
X125168Y-15920D01*
X125146Y-15884D01*
X125129Y-15851D01*
X125113Y-15815D01*
X125090Y-15748D01*
X125085Y-15718D01*
X125079Y-15690D01*
X125074Y-15665D01*
X125071Y-15643D01*
X125068Y-15627D01*
Y-15613D01*
Y-15604D01*
Y-15602D01*
X125071Y-15535D01*
X125082Y-15474D01*
X125099Y-15422D01*
X125115Y-15377D01*
X125132Y-15341D01*
X125149Y-15314D01*
X125160Y-15297D01*
X125162Y-15291D01*
X125201Y-15250D01*
X125243Y-15214D01*
X125287Y-15186D01*
X125331Y-15164D01*
X125370Y-15147D01*
X125401Y-15136D01*
X125412Y-15134D01*
X125420Y-15131D01*
X125426Y-15128D01*
X125428D01*
X125381Y-15103D01*
X125343Y-15078D01*
X125309Y-15051D01*
X125282Y-15025D01*
X125259Y-15003D01*
X125243Y-14984D01*
X125234Y-14973D01*
X125232Y-14967D01*
X125209Y-14929D01*
X125193Y-14890D01*
X125179Y-14851D01*
X125171Y-14815D01*
X125165Y-14785D01*
X125162Y-14762D01*
Y-14746D01*
Y-14740D01*
X125165Y-14693D01*
X125173Y-14646D01*
X125185Y-14604D01*
X125198Y-14569D01*
X125212Y-14538D01*
X125223Y-14513D01*
X125232Y-14499D01*
X125234Y-14494D01*
X125262Y-14452D01*
X125295Y-14416D01*
X125329Y-14386D01*
X125362Y-14358D01*
X125390Y-14339D01*
X125415Y-14322D01*
X125431Y-14314D01*
X125434Y-14311D01*
X125437D01*
X125487Y-14289D01*
X125536Y-14272D01*
X125586Y-14258D01*
X125631Y-14250D01*
X125667Y-14244D01*
X125697Y-14242D01*
X125766D01*
X125805Y-14247D01*
D02*
G37*
G36*
X127473Y-16167D02*
X127207D01*
X126459Y-14250D01*
X126716D01*
X127237Y-15643D01*
X127259Y-15701D01*
X127279Y-15757D01*
X127295Y-15809D01*
X127309Y-15856D01*
X127323Y-15898D01*
X127331Y-15928D01*
X127334Y-15940D01*
X127337Y-15948D01*
X127340Y-15954D01*
Y-15956D01*
X127373Y-15845D01*
X127390Y-15793D01*
X127406Y-15746D01*
X127420Y-15704D01*
X127426Y-15687D01*
X127428Y-15671D01*
X127434Y-15660D01*
X127437Y-15652D01*
X127439Y-15646D01*
Y-15643D01*
X127938Y-14250D01*
X128215D01*
X127473Y-16167D01*
D02*
G37*
G36*
X73494Y29665D02*
X73580Y29656D01*
X73658Y29643D01*
X73694Y29637D01*
X73724Y29629D01*
X73755Y29620D01*
X73779Y29615D01*
X73802Y29609D01*
X73821Y29601D01*
X73838Y29598D01*
X73849Y29593D01*
X73854Y29590D01*
X73857D01*
X73929Y29559D01*
X73993Y29523D01*
X74048Y29485D01*
X74095Y29449D01*
X74134Y29415D01*
X74162Y29388D01*
X74170Y29377D01*
X74178Y29368D01*
X74181Y29366D01*
X74184Y29363D01*
X74220Y29318D01*
X74248Y29271D01*
X74273Y29224D01*
X74292Y29180D01*
X74306Y29141D01*
X74314Y29111D01*
X74320Y29100D01*
Y29091D01*
X74322Y29086D01*
Y29083D01*
X74331Y29036D01*
X74339Y28980D01*
X74344Y28925D01*
X74347Y28870D01*
X74350Y28820D01*
Y28083D01*
X72433D01*
Y28773D01*
X72436Y28836D01*
X72439Y28895D01*
X72444Y28947D01*
X72450Y28991D01*
X72455Y29030D01*
X72458Y29058D01*
X72461Y29066D01*
X72464Y29075D01*
Y29080D01*
X72478Y29130D01*
X72494Y29174D01*
X72508Y29213D01*
X72525Y29246D01*
X72539Y29274D01*
X72550Y29294D01*
X72558Y29305D01*
X72561Y29310D01*
X72586Y29346D01*
X72616Y29377D01*
X72644Y29407D01*
X72672Y29432D01*
X72696Y29454D01*
X72716Y29471D01*
X72730Y29482D01*
X72735Y29485D01*
X72780Y29512D01*
X72827Y29540D01*
X72871Y29562D01*
X72915Y29579D01*
X72954Y29595D01*
X72984Y29607D01*
X72996Y29609D01*
X73004Y29612D01*
X73009Y29615D01*
X73012D01*
X73079Y29631D01*
X73145Y29645D01*
X73209Y29654D01*
X73270Y29662D01*
X73322Y29665D01*
X73345D01*
X73364Y29667D01*
X73378D01*
X73392D01*
X73397D01*
X73400D01*
X73494Y29665D01*
D02*
G37*
G36*
X74350Y27413D02*
X72843D01*
X74350Y26407D01*
Y26147D01*
X72433D01*
Y26390D01*
X73937D01*
X72433Y27393D01*
Y27656D01*
X74350D01*
Y27413D01*
D02*
G37*
G36*
X73411Y24961D02*
X73184D01*
Y25526D01*
X72824D01*
X72796Y25493D01*
X72771Y25454D01*
X72749Y25413D01*
X72730Y25374D01*
X72713Y25341D01*
X72699Y25310D01*
X72694Y25299D01*
X72691Y25294D01*
X72688Y25288D01*
Y25285D01*
X72669Y25227D01*
X72652Y25169D01*
X72641Y25116D01*
X72636Y25067D01*
X72630Y25025D01*
Y25008D01*
X72627Y24992D01*
Y24964D01*
X72630Y24895D01*
X72641Y24828D01*
X72655Y24767D01*
X72669Y24712D01*
X72685Y24668D01*
X72691Y24648D01*
X72696Y24634D01*
X72702Y24621D01*
X72707Y24612D01*
X72710Y24607D01*
Y24604D01*
X72746Y24546D01*
X72785Y24493D01*
X72827Y24449D01*
X72868Y24413D01*
X72907Y24382D01*
X72937Y24363D01*
X72948Y24355D01*
X72957Y24352D01*
X72962Y24346D01*
X72965D01*
X73034Y24318D01*
X73106Y24296D01*
X73178Y24283D01*
X73248Y24272D01*
X73278Y24269D01*
X73306Y24266D01*
X73334Y24263D01*
X73356D01*
X73372Y24260D01*
X73386D01*
X73394D01*
X73397D01*
X73475Y24263D01*
X73544Y24272D01*
X73611Y24283D01*
X73669Y24296D01*
X73694Y24302D01*
X73716Y24310D01*
X73735Y24316D01*
X73752Y24321D01*
X73766Y24327D01*
X73774Y24330D01*
X73779Y24332D01*
X73782D01*
X73821Y24352D01*
X73857Y24371D01*
X73890Y24391D01*
X73918Y24410D01*
X73940Y24427D01*
X73959Y24440D01*
X73971Y24452D01*
X73973Y24454D01*
X74004Y24485D01*
X74032Y24518D01*
X74054Y24554D01*
X74076Y24587D01*
X74090Y24615D01*
X74103Y24637D01*
X74109Y24654D01*
X74112Y24659D01*
X74131Y24709D01*
X74145Y24759D01*
X74153Y24812D01*
X74162Y24859D01*
X74164Y24900D01*
Y24917D01*
X74167Y24931D01*
Y24961D01*
X74164Y25014D01*
X74159Y25064D01*
X74151Y25108D01*
X74142Y25147D01*
X74131Y25180D01*
X74123Y25205D01*
X74117Y25219D01*
X74115Y25224D01*
X74095Y25266D01*
X74073Y25302D01*
X74051Y25335D01*
X74029Y25360D01*
X74009Y25379D01*
X73996Y25396D01*
X73984Y25404D01*
X73982Y25407D01*
X73948Y25432D01*
X73910Y25451D01*
X73874Y25471D01*
X73835Y25488D01*
X73802Y25499D01*
X73777Y25507D01*
X73766Y25510D01*
X73757Y25512D01*
X73755Y25515D01*
X73752D01*
X73813Y25745D01*
X73882Y25726D01*
X73943Y25701D01*
X73998Y25676D01*
X74043Y25654D01*
X74079Y25631D01*
X74103Y25615D01*
X74120Y25604D01*
X74126Y25598D01*
X74170Y25559D01*
X74206Y25518D01*
X74239Y25474D01*
X74267Y25432D01*
X74286Y25393D01*
X74303Y25363D01*
X74309Y25352D01*
X74311Y25343D01*
X74314Y25338D01*
Y25335D01*
X74336Y25271D01*
X74353Y25205D01*
X74367Y25144D01*
X74375Y25086D01*
X74381Y25033D01*
Y25011D01*
X74383Y24994D01*
Y24906D01*
X74378Y24856D01*
X74364Y24759D01*
X74356Y24715D01*
X74344Y24673D01*
X74336Y24634D01*
X74325Y24598D01*
X74314Y24565D01*
X74303Y24537D01*
X74292Y24512D01*
X74284Y24490D01*
X74275Y24474D01*
X74270Y24463D01*
X74267Y24454D01*
X74264Y24452D01*
X74239Y24413D01*
X74214Y24374D01*
X74156Y24307D01*
X74098Y24249D01*
X74037Y24202D01*
X73984Y24163D01*
X73962Y24150D01*
X73940Y24138D01*
X73923Y24127D01*
X73912Y24122D01*
X73904Y24119D01*
X73901Y24116D01*
X73810Y24078D01*
X73719Y24050D01*
X73630Y24028D01*
X73588Y24022D01*
X73549Y24014D01*
X73514Y24011D01*
X73483Y24005D01*
X73453Y24003D01*
X73428D01*
X73408Y24000D01*
X73394D01*
X73383D01*
X73381D01*
X73278Y24005D01*
X73181Y24019D01*
X73137Y24028D01*
X73095Y24036D01*
X73054Y24047D01*
X73018Y24058D01*
X72984Y24069D01*
X72957Y24080D01*
X72929Y24089D01*
X72910Y24097D01*
X72890Y24105D01*
X72879Y24111D01*
X72871Y24116D01*
X72868D01*
X72788Y24166D01*
X72719Y24222D01*
X72658Y24280D01*
X72608Y24335D01*
X72569Y24388D01*
X72555Y24407D01*
X72541Y24427D01*
X72533Y24443D01*
X72525Y24454D01*
X72522Y24463D01*
X72519Y24465D01*
X72497Y24510D01*
X72480Y24554D01*
X72450Y24643D01*
X72430Y24728D01*
X72414Y24809D01*
X72411Y24845D01*
X72405Y24878D01*
X72403Y24909D01*
Y24934D01*
X72400Y24953D01*
Y24981D01*
X72403Y25058D01*
X72411Y25133D01*
X72425Y25202D01*
X72439Y25263D01*
X72444Y25288D01*
X72450Y25313D01*
X72458Y25335D01*
X72464Y25354D01*
X72469Y25368D01*
X72472Y25379D01*
X72475Y25385D01*
Y25388D01*
X72505Y25463D01*
X72541Y25532D01*
X72580Y25598D01*
X72616Y25657D01*
X72633Y25681D01*
X72649Y25706D01*
X72663Y25726D01*
X72674Y25742D01*
X72685Y25756D01*
X72694Y25767D01*
X72696Y25773D01*
X72699Y25776D01*
X73411D01*
Y24961D01*
D02*
G37*
G36*
X127353Y-6167D02*
X127110D01*
Y-4663D01*
X126107Y-6167D01*
X125844D01*
Y-4250D01*
X126087D01*
Y-5757D01*
X127093Y-4250D01*
X127353D01*
Y-6167D01*
D02*
G37*
G36*
X128644Y-4222D02*
X128741Y-4236D01*
X128785Y-4244D01*
X128827Y-4256D01*
X128866Y-4264D01*
X128902Y-4275D01*
X128935Y-4286D01*
X128963Y-4297D01*
X128988Y-4308D01*
X129010Y-4316D01*
X129026Y-4325D01*
X129037Y-4330D01*
X129046Y-4333D01*
X129049Y-4336D01*
X129087Y-4361D01*
X129126Y-4386D01*
X129192Y-4444D01*
X129251Y-4502D01*
X129298Y-4563D01*
X129337Y-4616D01*
X129350Y-4638D01*
X129361Y-4660D01*
X129373Y-4676D01*
X129378Y-4688D01*
X129381Y-4696D01*
X129384Y-4699D01*
X129422Y-4790D01*
X129450Y-4882D01*
X129472Y-4970D01*
X129478Y-5012D01*
X129486Y-5051D01*
X129489Y-5086D01*
X129495Y-5117D01*
X129497Y-5147D01*
Y-5172D01*
X129500Y-5192D01*
Y-5206D01*
Y-5217D01*
Y-5219D01*
X129495Y-5322D01*
X129481Y-5419D01*
X129472Y-5463D01*
X129464Y-5505D01*
X129453Y-5546D01*
X129442Y-5582D01*
X129431Y-5615D01*
X129420Y-5643D01*
X129411Y-5671D01*
X129403Y-5690D01*
X129395Y-5710D01*
X129389Y-5721D01*
X129384Y-5729D01*
Y-5732D01*
X129334Y-5812D01*
X129278Y-5881D01*
X129220Y-5942D01*
X129165Y-5992D01*
X129112Y-6031D01*
X129093Y-6045D01*
X129073Y-6059D01*
X129057Y-6067D01*
X129046Y-6075D01*
X129037Y-6078D01*
X129035Y-6081D01*
X128990Y-6103D01*
X128946Y-6120D01*
X128857Y-6150D01*
X128771Y-6169D01*
X128691Y-6186D01*
X128655Y-6189D01*
X128622Y-6194D01*
X128591Y-6197D01*
X128567D01*
X128547Y-6200D01*
X128519D01*
X128442Y-6197D01*
X128367Y-6189D01*
X128298Y-6175D01*
X128237Y-6161D01*
X128212Y-6156D01*
X128187Y-6150D01*
X128165Y-6142D01*
X128146Y-6136D01*
X128132Y-6131D01*
X128121Y-6128D01*
X128115Y-6125D01*
X128112D01*
X128037Y-6095D01*
X127968Y-6059D01*
X127902Y-6020D01*
X127843Y-5984D01*
X127819Y-5967D01*
X127794Y-5951D01*
X127774Y-5937D01*
X127758Y-5926D01*
X127744Y-5915D01*
X127733Y-5906D01*
X127727Y-5904D01*
X127724Y-5901D01*
Y-5189D01*
X128539D01*
Y-5416D01*
X127974D01*
Y-5776D01*
X128007Y-5804D01*
X128046Y-5829D01*
X128087Y-5851D01*
X128126Y-5870D01*
X128159Y-5887D01*
X128190Y-5901D01*
X128201Y-5906D01*
X128206Y-5909D01*
X128212Y-5912D01*
X128215D01*
X128273Y-5931D01*
X128331Y-5948D01*
X128384Y-5959D01*
X128434Y-5965D01*
X128475Y-5970D01*
X128492D01*
X128508Y-5973D01*
X128536D01*
X128605Y-5970D01*
X128672Y-5959D01*
X128733Y-5945D01*
X128788Y-5931D01*
X128832Y-5915D01*
X128852Y-5909D01*
X128866Y-5904D01*
X128879Y-5898D01*
X128888Y-5892D01*
X128893Y-5890D01*
X128896D01*
X128954Y-5854D01*
X129007Y-5815D01*
X129051Y-5773D01*
X129087Y-5732D01*
X129118Y-5693D01*
X129137Y-5663D01*
X129145Y-5652D01*
X129148Y-5643D01*
X129154Y-5638D01*
Y-5635D01*
X129181Y-5566D01*
X129204Y-5494D01*
X129218Y-5422D01*
X129228Y-5352D01*
X129231Y-5322D01*
X129234Y-5294D01*
X129237Y-5266D01*
Y-5244D01*
X129240Y-5228D01*
Y-5214D01*
Y-5206D01*
Y-5203D01*
X129237Y-5125D01*
X129228Y-5056D01*
X129218Y-4989D01*
X129204Y-4931D01*
X129198Y-4906D01*
X129190Y-4884D01*
X129184Y-4865D01*
X129179Y-4848D01*
X129173Y-4834D01*
X129170Y-4826D01*
X129168Y-4820D01*
Y-4818D01*
X129148Y-4779D01*
X129129Y-4743D01*
X129109Y-4710D01*
X129090Y-4682D01*
X129073Y-4660D01*
X129060Y-4640D01*
X129049Y-4629D01*
X129046Y-4627D01*
X129015Y-4596D01*
X128982Y-4569D01*
X128946Y-4546D01*
X128913Y-4524D01*
X128885Y-4510D01*
X128863Y-4496D01*
X128846Y-4491D01*
X128841Y-4488D01*
X128791Y-4469D01*
X128741Y-4455D01*
X128688Y-4447D01*
X128641Y-4438D01*
X128600Y-4436D01*
X128583D01*
X128569Y-4433D01*
X128539D01*
X128486Y-4436D01*
X128436Y-4441D01*
X128392Y-4449D01*
X128353Y-4458D01*
X128320Y-4469D01*
X128295Y-4477D01*
X128281Y-4483D01*
X128276Y-4485D01*
X128234Y-4505D01*
X128198Y-4527D01*
X128165Y-4549D01*
X128140Y-4571D01*
X128121Y-4591D01*
X128104Y-4605D01*
X128096Y-4616D01*
X128093Y-4618D01*
X128068Y-4652D01*
X128049Y-4690D01*
X128029Y-4726D01*
X128013Y-4765D01*
X128001Y-4798D01*
X127993Y-4823D01*
X127990Y-4834D01*
X127988Y-4843D01*
X127985Y-4845D01*
Y-4848D01*
X127755Y-4787D01*
X127774Y-4718D01*
X127799Y-4657D01*
X127824Y-4602D01*
X127846Y-4557D01*
X127868Y-4521D01*
X127885Y-4496D01*
X127896Y-4480D01*
X127902Y-4474D01*
X127940Y-4430D01*
X127982Y-4394D01*
X128026Y-4361D01*
X128068Y-4333D01*
X128107Y-4314D01*
X128137Y-4297D01*
X128148Y-4292D01*
X128156Y-4289D01*
X128162Y-4286D01*
X128165D01*
X128229Y-4264D01*
X128295Y-4247D01*
X128356Y-4233D01*
X128414Y-4225D01*
X128467Y-4219D01*
X128489D01*
X128506Y-4217D01*
X128594D01*
X128644Y-4222D01*
D02*
G37*
G36*
X125417Y-6167D02*
X124727D01*
X124664Y-6164D01*
X124605Y-6161D01*
X124553Y-6156D01*
X124509Y-6150D01*
X124470Y-6145D01*
X124442Y-6142D01*
X124434Y-6139D01*
X124425Y-6136D01*
X124420D01*
X124370Y-6122D01*
X124326Y-6106D01*
X124287Y-6092D01*
X124254Y-6075D01*
X124226Y-6061D01*
X124206Y-6050D01*
X124196Y-6042D01*
X124190Y-6039D01*
X124154Y-6014D01*
X124123Y-5984D01*
X124093Y-5956D01*
X124068Y-5928D01*
X124046Y-5904D01*
X124029Y-5884D01*
X124018Y-5870D01*
X124015Y-5865D01*
X123988Y-5821D01*
X123960Y-5773D01*
X123938Y-5729D01*
X123921Y-5685D01*
X123905Y-5646D01*
X123893Y-5615D01*
X123891Y-5604D01*
X123888Y-5596D01*
X123885Y-5591D01*
Y-5588D01*
X123869Y-5521D01*
X123855Y-5455D01*
X123846Y-5391D01*
X123838Y-5330D01*
X123835Y-5278D01*
Y-5255D01*
X123833Y-5236D01*
Y-5222D01*
Y-5208D01*
Y-5203D01*
Y-5200D01*
X123835Y-5106D01*
X123844Y-5020D01*
X123857Y-4942D01*
X123863Y-4906D01*
X123871Y-4876D01*
X123880Y-4845D01*
X123885Y-4820D01*
X123891Y-4798D01*
X123899Y-4779D01*
X123902Y-4762D01*
X123907Y-4751D01*
X123910Y-4746D01*
Y-4743D01*
X123941Y-4671D01*
X123977Y-4607D01*
X124015Y-4552D01*
X124051Y-4505D01*
X124085Y-4466D01*
X124112Y-4438D01*
X124123Y-4430D01*
X124132Y-4422D01*
X124135Y-4419D01*
X124137Y-4416D01*
X124182Y-4380D01*
X124229Y-4352D01*
X124276Y-4327D01*
X124320Y-4308D01*
X124359Y-4294D01*
X124389Y-4286D01*
X124400Y-4280D01*
X124409D01*
X124414Y-4278D01*
X124417D01*
X124464Y-4269D01*
X124520Y-4261D01*
X124575Y-4256D01*
X124630Y-4253D01*
X124680Y-4250D01*
X125417D01*
Y-6167D01*
D02*
G37*
G36*
X99765Y28329D02*
X99826Y28318D01*
X99878Y28301D01*
X99923Y28285D01*
X99959Y28268D01*
X99986Y28251D01*
X100003Y28240D01*
X100009Y28238D01*
X100050Y28199D01*
X100086Y28157D01*
X100114Y28113D01*
X100136Y28069D01*
X100153Y28030D01*
X100164Y27999D01*
X100166Y27988D01*
X100169Y27980D01*
X100172Y27974D01*
Y27972D01*
X100197Y28019D01*
X100222Y28058D01*
X100250Y28091D01*
X100275Y28118D01*
X100297Y28141D01*
X100316Y28157D01*
X100327Y28166D01*
X100333Y28168D01*
X100371Y28190D01*
X100410Y28207D01*
X100449Y28221D01*
X100485Y28229D01*
X100515Y28235D01*
X100538Y28238D01*
X100554D01*
X100560D01*
X100607Y28235D01*
X100654Y28227D01*
X100696Y28215D01*
X100732Y28201D01*
X100762Y28188D01*
X100787Y28177D01*
X100801Y28168D01*
X100806Y28166D01*
X100848Y28138D01*
X100884Y28105D01*
X100914Y28071D01*
X100942Y28038D01*
X100961Y28010D01*
X100978Y27986D01*
X100986Y27969D01*
X100989Y27966D01*
Y27963D01*
X101011Y27913D01*
X101028Y27864D01*
X101042Y27814D01*
X101050Y27769D01*
X101056Y27733D01*
X101058Y27703D01*
Y27634D01*
X101053Y27595D01*
X101039Y27520D01*
X101017Y27456D01*
X100995Y27401D01*
X100981Y27376D01*
X100970Y27357D01*
X100959Y27337D01*
X100948Y27323D01*
X100939Y27312D01*
X100934Y27304D01*
X100931Y27299D01*
X100928Y27296D01*
X100876Y27243D01*
X100817Y27202D01*
X100757Y27168D01*
X100696Y27141D01*
X100643Y27124D01*
X100621Y27116D01*
X100601Y27110D01*
X100585Y27107D01*
X100574Y27105D01*
X100565Y27102D01*
X100563D01*
X100521Y27337D01*
X100582Y27348D01*
X100635Y27365D01*
X100679Y27384D01*
X100715Y27404D01*
X100743Y27423D01*
X100762Y27440D01*
X100776Y27451D01*
X100779Y27454D01*
X100806Y27490D01*
X100829Y27528D01*
X100842Y27564D01*
X100853Y27600D01*
X100859Y27634D01*
X100865Y27659D01*
Y27681D01*
X100862Y27731D01*
X100851Y27775D01*
X100837Y27814D01*
X100823Y27847D01*
X100806Y27872D01*
X100793Y27891D01*
X100781Y27905D01*
X100779Y27908D01*
X100745Y27938D01*
X100709Y27961D01*
X100673Y27974D01*
X100640Y27986D01*
X100610Y27991D01*
X100587Y27997D01*
X100571D01*
X100568D01*
X100565D01*
X100535D01*
X100507Y27991D01*
X100460Y27977D01*
X100418Y27958D01*
X100382Y27936D01*
X100358Y27913D01*
X100338Y27894D01*
X100327Y27880D01*
X100324Y27877D01*
Y27875D01*
X100299Y27828D01*
X100280Y27783D01*
X100266Y27736D01*
X100258Y27695D01*
X100252Y27659D01*
X100247Y27628D01*
Y27592D01*
X100250Y27581D01*
Y27567D01*
X100042Y27540D01*
X100050Y27575D01*
X100056Y27609D01*
X100061Y27637D01*
X100064Y27661D01*
X100067Y27681D01*
Y27706D01*
X100061Y27764D01*
X100050Y27817D01*
X100033Y27864D01*
X100014Y27902D01*
X99995Y27933D01*
X99978Y27955D01*
X99967Y27969D01*
X99962Y27974D01*
X99920Y28010D01*
X99876Y28038D01*
X99831Y28058D01*
X99787Y28069D01*
X99751Y28077D01*
X99721Y28080D01*
X99709Y28082D01*
X99701D01*
X99696D01*
X99693D01*
X99632Y28077D01*
X99576Y28063D01*
X99529Y28046D01*
X99488Y28024D01*
X99455Y28002D01*
X99430Y27986D01*
X99413Y27972D01*
X99408Y27966D01*
X99369Y27922D01*
X99341Y27875D01*
X99322Y27828D01*
X99308Y27783D01*
X99299Y27744D01*
X99297Y27714D01*
X99294Y27703D01*
Y27686D01*
X99297Y27637D01*
X99308Y27589D01*
X99322Y27548D01*
X99338Y27515D01*
X99352Y27487D01*
X99366Y27465D01*
X99377Y27454D01*
X99380Y27448D01*
X99419Y27415D01*
X99463Y27387D01*
X99510Y27362D01*
X99560Y27343D01*
X99601Y27329D01*
X99621Y27323D01*
X99637Y27321D01*
X99651Y27318D01*
X99662Y27315D01*
X99668Y27312D01*
X99671D01*
X99640Y27077D01*
X99596Y27082D01*
X99554Y27091D01*
X99477Y27116D01*
X99410Y27146D01*
X99383Y27163D01*
X99355Y27179D01*
X99330Y27196D01*
X99310Y27213D01*
X99291Y27226D01*
X99277Y27240D01*
X99266Y27249D01*
X99258Y27257D01*
X99252Y27262D01*
X99250Y27265D01*
X99225Y27299D01*
X99200Y27332D01*
X99180Y27365D01*
X99164Y27401D01*
X99136Y27470D01*
X99119Y27537D01*
X99114Y27567D01*
X99108Y27595D01*
X99106Y27620D01*
X99103Y27642D01*
X99100Y27659D01*
Y27683D01*
X99103Y27736D01*
X99108Y27783D01*
X99117Y27830D01*
X99128Y27875D01*
X99142Y27916D01*
X99155Y27952D01*
X99172Y27988D01*
X99189Y28019D01*
X99203Y28049D01*
X99219Y28074D01*
X99233Y28096D01*
X99247Y28113D01*
X99258Y28127D01*
X99266Y28138D01*
X99272Y28143D01*
X99274Y28146D01*
X99308Y28179D01*
X99344Y28207D01*
X99380Y28232D01*
X99416Y28254D01*
X99449Y28271D01*
X99485Y28287D01*
X99551Y28310D01*
X99582Y28315D01*
X99610Y28321D01*
X99635Y28326D01*
X99657Y28329D01*
X99673Y28332D01*
X99687D01*
X99696D01*
X99698D01*
X99765Y28329D01*
D02*
G37*
G36*
X101050Y26684D02*
X99657Y26163D01*
X99599Y26141D01*
X99543Y26121D01*
X99491Y26105D01*
X99444Y26091D01*
X99402Y26077D01*
X99371Y26069D01*
X99360Y26066D01*
X99352Y26063D01*
X99347Y26060D01*
X99344D01*
X99455Y26027D01*
X99507Y26011D01*
X99554Y25994D01*
X99596Y25980D01*
X99612Y25975D01*
X99629Y25972D01*
X99640Y25966D01*
X99648Y25963D01*
X99654Y25961D01*
X99657D01*
X101050Y25462D01*
Y25185D01*
X99133Y25927D01*
Y26193D01*
X101050Y26941D01*
Y26684D01*
D02*
G37*
G36*
X99765Y25052D02*
X99826Y25041D01*
X99878Y25024D01*
X99923Y25008D01*
X99959Y24991D01*
X99986Y24974D01*
X100003Y24963D01*
X100009Y24961D01*
X100050Y24922D01*
X100086Y24880D01*
X100114Y24836D01*
X100136Y24792D01*
X100153Y24753D01*
X100164Y24722D01*
X100166Y24711D01*
X100169Y24703D01*
X100172Y24698D01*
Y24695D01*
X100197Y24742D01*
X100222Y24781D01*
X100250Y24814D01*
X100275Y24841D01*
X100297Y24864D01*
X100316Y24880D01*
X100327Y24889D01*
X100333Y24891D01*
X100371Y24914D01*
X100410Y24930D01*
X100449Y24944D01*
X100485Y24952D01*
X100515Y24958D01*
X100538Y24961D01*
X100554D01*
X100560D01*
X100607Y24958D01*
X100654Y24949D01*
X100696Y24938D01*
X100732Y24925D01*
X100762Y24911D01*
X100787Y24900D01*
X100801Y24891D01*
X100806Y24889D01*
X100848Y24861D01*
X100884Y24828D01*
X100914Y24794D01*
X100942Y24761D01*
X100961Y24734D01*
X100978Y24709D01*
X100986Y24692D01*
X100989Y24689D01*
Y24686D01*
X101011Y24636D01*
X101028Y24587D01*
X101042Y24537D01*
X101050Y24493D01*
X101056Y24456D01*
X101058Y24426D01*
Y24357D01*
X101053Y24318D01*
X101039Y24243D01*
X101017Y24180D01*
X100995Y24124D01*
X100981Y24099D01*
X100970Y24080D01*
X100959Y24060D01*
X100948Y24047D01*
X100939Y24035D01*
X100934Y24027D01*
X100931Y24022D01*
X100928Y24019D01*
X100876Y23966D01*
X100817Y23925D01*
X100757Y23891D01*
X100696Y23864D01*
X100643Y23847D01*
X100621Y23839D01*
X100601Y23833D01*
X100585Y23831D01*
X100574Y23828D01*
X100565Y23825D01*
X100563D01*
X100521Y24060D01*
X100582Y24071D01*
X100635Y24088D01*
X100679Y24107D01*
X100715Y24127D01*
X100743Y24146D01*
X100762Y24163D01*
X100776Y24174D01*
X100779Y24177D01*
X100806Y24213D01*
X100829Y24251D01*
X100842Y24287D01*
X100853Y24324D01*
X100859Y24357D01*
X100865Y24382D01*
Y24404D01*
X100862Y24454D01*
X100851Y24498D01*
X100837Y24537D01*
X100823Y24570D01*
X100806Y24595D01*
X100793Y24614D01*
X100781Y24628D01*
X100779Y24631D01*
X100745Y24661D01*
X100709Y24684D01*
X100673Y24698D01*
X100640Y24709D01*
X100610Y24714D01*
X100587Y24720D01*
X100571D01*
X100568D01*
X100565D01*
X100535D01*
X100507Y24714D01*
X100460Y24700D01*
X100418Y24681D01*
X100382Y24659D01*
X100358Y24636D01*
X100338Y24617D01*
X100327Y24603D01*
X100324Y24600D01*
Y24598D01*
X100299Y24551D01*
X100280Y24506D01*
X100266Y24459D01*
X100258Y24418D01*
X100252Y24382D01*
X100247Y24351D01*
Y24315D01*
X100250Y24304D01*
Y24290D01*
X100042Y24263D01*
X100050Y24299D01*
X100056Y24332D01*
X100061Y24360D01*
X100064Y24385D01*
X100067Y24404D01*
Y24429D01*
X100061Y24487D01*
X100050Y24540D01*
X100033Y24587D01*
X100014Y24625D01*
X99995Y24656D01*
X99978Y24678D01*
X99967Y24692D01*
X99962Y24698D01*
X99920Y24734D01*
X99876Y24761D01*
X99831Y24781D01*
X99787Y24792D01*
X99751Y24800D01*
X99721Y24803D01*
X99709Y24805D01*
X99701D01*
X99696D01*
X99693D01*
X99632Y24800D01*
X99576Y24786D01*
X99529Y24769D01*
X99488Y24747D01*
X99455Y24725D01*
X99430Y24709D01*
X99413Y24695D01*
X99408Y24689D01*
X99369Y24645D01*
X99341Y24598D01*
X99322Y24551D01*
X99308Y24506D01*
X99299Y24468D01*
X99297Y24437D01*
X99294Y24426D01*
Y24409D01*
X99297Y24360D01*
X99308Y24313D01*
X99322Y24271D01*
X99338Y24238D01*
X99352Y24210D01*
X99366Y24188D01*
X99377Y24177D01*
X99380Y24171D01*
X99419Y24138D01*
X99463Y24110D01*
X99510Y24085D01*
X99560Y24066D01*
X99601Y24052D01*
X99621Y24047D01*
X99637Y24044D01*
X99651Y24041D01*
X99662Y24038D01*
X99668Y24035D01*
X99671D01*
X99640Y23800D01*
X99596Y23806D01*
X99554Y23814D01*
X99477Y23839D01*
X99410Y23869D01*
X99383Y23886D01*
X99355Y23902D01*
X99330Y23919D01*
X99310Y23936D01*
X99291Y23950D01*
X99277Y23963D01*
X99266Y23972D01*
X99258Y23980D01*
X99252Y23986D01*
X99250Y23988D01*
X99225Y24022D01*
X99200Y24055D01*
X99180Y24088D01*
X99164Y24124D01*
X99136Y24193D01*
X99119Y24260D01*
X99114Y24290D01*
X99108Y24318D01*
X99106Y24343D01*
X99103Y24365D01*
X99100Y24382D01*
Y24407D01*
X99103Y24459D01*
X99108Y24506D01*
X99117Y24553D01*
X99128Y24598D01*
X99142Y24639D01*
X99155Y24675D01*
X99172Y24711D01*
X99189Y24742D01*
X99203Y24772D01*
X99219Y24797D01*
X99233Y24819D01*
X99247Y24836D01*
X99258Y24850D01*
X99266Y24861D01*
X99272Y24867D01*
X99274Y24869D01*
X99308Y24903D01*
X99344Y24930D01*
X99380Y24955D01*
X99416Y24977D01*
X99449Y24994D01*
X99485Y25010D01*
X99551Y25033D01*
X99582Y25038D01*
X99610Y25044D01*
X99635Y25049D01*
X99657Y25052D01*
X99673Y25055D01*
X99687D01*
X99696D01*
X99698D01*
X99765Y25052D01*
D02*
G37*
G36*
X112545Y34557D02*
X112594Y34552D01*
X112639Y34540D01*
X112678Y34532D01*
X112711Y34521D01*
X112736Y34510D01*
X112750Y34504D01*
X112755Y34502D01*
X112797Y34479D01*
X112833Y34452D01*
X112866Y34427D01*
X112891Y34402D01*
X112910Y34380D01*
X112927Y34363D01*
X112935Y34352D01*
X112938Y34347D01*
X112960Y34310D01*
X112979Y34269D01*
X112996Y34230D01*
X113010Y34194D01*
X113018Y34161D01*
X113024Y34136D01*
X113029Y34117D01*
Y34111D01*
X113035Y34069D01*
X113040Y34022D01*
X113043Y33972D01*
X113046Y33925D01*
X113049Y33884D01*
Y33097D01*
X111132D01*
Y33352D01*
X111910D01*
Y33842D01*
X111913Y33914D01*
X111918Y33984D01*
X111927Y34045D01*
X111938Y34100D01*
X111949Y34153D01*
X111963Y34197D01*
X111979Y34238D01*
X111996Y34275D01*
X112010Y34305D01*
X112027Y34333D01*
X112040Y34355D01*
X112054Y34371D01*
X112063Y34385D01*
X112071Y34394D01*
X112076Y34399D01*
X112079Y34402D01*
X112112Y34430D01*
X112146Y34455D01*
X112179Y34474D01*
X112215Y34493D01*
X112251Y34510D01*
X112284Y34521D01*
X112348Y34540D01*
X112378Y34546D01*
X112406Y34552D01*
X112431Y34554D01*
X112450Y34557D01*
X112470Y34560D01*
X112481D01*
X112489D01*
X112492D01*
X112545Y34557D01*
D02*
G37*
G36*
X113049Y32419D02*
X111941D01*
X111877D01*
X111816Y32413D01*
X111763Y32408D01*
X111714Y32399D01*
X111669Y32391D01*
X111628Y32380D01*
X111592Y32372D01*
X111561Y32360D01*
X111536Y32349D01*
X111511Y32338D01*
X111495Y32327D01*
X111478Y32319D01*
X111467Y32311D01*
X111459Y32305D01*
X111456Y32302D01*
X111453Y32300D01*
X111431Y32274D01*
X111412Y32247D01*
X111381Y32186D01*
X111359Y32122D01*
X111345Y32056D01*
X111334Y31995D01*
X111331Y31970D01*
Y31945D01*
X111328Y31928D01*
Y31901D01*
X111331Y31842D01*
X111340Y31790D01*
X111348Y31740D01*
X111362Y31701D01*
X111373Y31668D01*
X111381Y31643D01*
X111390Y31629D01*
X111392Y31624D01*
X111417Y31585D01*
X111448Y31552D01*
X111478Y31524D01*
X111506Y31504D01*
X111533Y31488D01*
X111553Y31474D01*
X111567Y31468D01*
X111572Y31466D01*
X111597Y31457D01*
X111622Y31452D01*
X111680Y31441D01*
X111741Y31432D01*
X111802Y31427D01*
X111855Y31424D01*
X111880D01*
X111899Y31421D01*
X111916D01*
X111930D01*
X111938D01*
X111941D01*
X113049D01*
Y31166D01*
X111941D01*
X111885D01*
X111833Y31169D01*
X111783Y31172D01*
X111736Y31178D01*
X111694Y31183D01*
X111655Y31189D01*
X111619Y31197D01*
X111586Y31203D01*
X111556Y31208D01*
X111531Y31216D01*
X111509Y31222D01*
X111492Y31227D01*
X111478Y31233D01*
X111467Y31236D01*
X111461Y31238D01*
X111459D01*
X111398Y31269D01*
X111342Y31308D01*
X111298Y31347D01*
X111259Y31388D01*
X111229Y31424D01*
X111207Y31455D01*
X111201Y31466D01*
X111196Y31474D01*
X111190Y31479D01*
Y31482D01*
X111160Y31552D01*
X111137Y31624D01*
X111121Y31698D01*
X111110Y31768D01*
X111107Y31798D01*
X111104Y31829D01*
X111101Y31856D01*
Y31878D01*
X111099Y31898D01*
Y31923D01*
X111104Y32022D01*
X111110Y32067D01*
X111115Y32108D01*
X111124Y32150D01*
X111132Y32186D01*
X111140Y32219D01*
X111151Y32250D01*
X111162Y32277D01*
X111171Y32300D01*
X111179Y32322D01*
X111187Y32338D01*
X111196Y32352D01*
X111198Y32360D01*
X111204Y32366D01*
Y32369D01*
X111245Y32430D01*
X111293Y32480D01*
X111337Y32518D01*
X111381Y32552D01*
X111420Y32576D01*
X111450Y32593D01*
X111461Y32599D01*
X111470Y32604D01*
X111475Y32607D01*
X111478D01*
X111511Y32618D01*
X111547Y32629D01*
X111622Y32646D01*
X111700Y32657D01*
X111775Y32665D01*
X111808Y32668D01*
X111841Y32671D01*
X111869D01*
X111894Y32673D01*
X111913D01*
X111927D01*
X111938D01*
X111941D01*
X113049D01*
Y32419D01*
D02*
G37*
G36*
X110769Y29424D02*
X110600D01*
Y30984D01*
X110769D01*
Y29424D01*
D02*
G37*
G36*
X112545Y29347D02*
X112594Y29341D01*
X112639Y29330D01*
X112678Y29322D01*
X112711Y29311D01*
X112736Y29300D01*
X112750Y29294D01*
X112755Y29291D01*
X112797Y29269D01*
X112833Y29241D01*
X112866Y29216D01*
X112891Y29191D01*
X112910Y29169D01*
X112927Y29153D01*
X112935Y29142D01*
X112938Y29136D01*
X112960Y29100D01*
X112979Y29059D01*
X112996Y29020D01*
X113010Y28984D01*
X113018Y28951D01*
X113024Y28926D01*
X113029Y28906D01*
Y28901D01*
X113035Y28859D01*
X113040Y28812D01*
X113043Y28762D01*
X113046Y28715D01*
X113049Y28673D01*
Y27887D01*
X111132D01*
Y28142D01*
X111910D01*
Y28632D01*
X111913Y28704D01*
X111918Y28773D01*
X111927Y28834D01*
X111938Y28890D01*
X111949Y28942D01*
X111963Y28986D01*
X111979Y29028D01*
X111996Y29064D01*
X112010Y29095D01*
X112027Y29122D01*
X112040Y29144D01*
X112054Y29161D01*
X112063Y29175D01*
X112071Y29183D01*
X112076Y29189D01*
X112079Y29191D01*
X112112Y29219D01*
X112146Y29244D01*
X112179Y29263D01*
X112215Y29283D01*
X112251Y29300D01*
X112284Y29311D01*
X112348Y29330D01*
X112378Y29336D01*
X112406Y29341D01*
X112431Y29344D01*
X112450Y29347D01*
X112470Y29349D01*
X112481D01*
X112489D01*
X112492D01*
X112545Y29347D01*
D02*
G37*
G36*
X113049Y27183D02*
X111132D01*
Y27438D01*
X113049D01*
Y27183D01*
D02*
G37*
G36*
Y26463D02*
X112262D01*
Y25471D01*
X113049D01*
Y25217D01*
X111132D01*
Y25471D01*
X112035D01*
Y26463D01*
X111132D01*
Y26718D01*
X113049D01*
Y26463D01*
D02*
G37*
G36*
X111802Y24640D02*
X111758Y24629D01*
X111716Y24615D01*
X111678Y24602D01*
X111642Y24588D01*
X111608Y24571D01*
X111581Y24554D01*
X111553Y24535D01*
X111528Y24519D01*
X111506Y24505D01*
X111489Y24488D01*
X111473Y24474D01*
X111459Y24463D01*
X111450Y24452D01*
X111442Y24444D01*
X111439Y24441D01*
X111436Y24438D01*
X111414Y24410D01*
X111398Y24380D01*
X111367Y24319D01*
X111345Y24261D01*
X111331Y24203D01*
X111320Y24153D01*
X111317Y24134D01*
Y24114D01*
X111315Y24098D01*
Y24078D01*
X111317Y24014D01*
X111328Y23953D01*
X111342Y23898D01*
X111359Y23848D01*
X111376Y23809D01*
X111384Y23793D01*
X111390Y23779D01*
X111395Y23768D01*
X111400Y23760D01*
X111403Y23754D01*
Y23751D01*
X111442Y23699D01*
X111484Y23654D01*
X111531Y23616D01*
X111575Y23585D01*
X111614Y23560D01*
X111647Y23543D01*
X111661Y23538D01*
X111669Y23532D01*
X111675Y23530D01*
X111678D01*
X111749Y23507D01*
X111822Y23491D01*
X111894Y23477D01*
X111960Y23469D01*
X111990Y23466D01*
X112018Y23463D01*
X112043D01*
X112063Y23460D01*
X112079D01*
X112093D01*
X112101D01*
X112104D01*
X112176Y23463D01*
X112243Y23469D01*
X112303Y23480D01*
X112359Y23491D01*
X112406Y23499D01*
X112425Y23505D01*
X112442Y23510D01*
X112456Y23513D01*
X112464Y23516D01*
X112470Y23518D01*
X112472D01*
X112536Y23546D01*
X112594Y23577D01*
X112642Y23610D01*
X112683Y23646D01*
X112716Y23676D01*
X112738Y23701D01*
X112752Y23721D01*
X112758Y23723D01*
Y23726D01*
X112794Y23785D01*
X112821Y23848D01*
X112841Y23909D01*
X112852Y23967D01*
X112860Y24020D01*
X112863Y24042D01*
Y24061D01*
X112866Y24075D01*
Y24098D01*
X112863Y24167D01*
X112852Y24230D01*
X112835Y24283D01*
X112819Y24330D01*
X112799Y24366D01*
X112785Y24394D01*
X112775Y24410D01*
X112769Y24416D01*
X112727Y24460D01*
X112680Y24502D01*
X112630Y24535D01*
X112581Y24563D01*
X112536Y24585D01*
X112514Y24593D01*
X112497Y24599D01*
X112484Y24604D01*
X112472Y24610D01*
X112467Y24613D01*
X112464D01*
X112522Y24862D01*
X112572Y24845D01*
X112617Y24829D01*
X112658Y24807D01*
X112700Y24787D01*
X112736Y24765D01*
X112769Y24740D01*
X112802Y24718D01*
X112830Y24696D01*
X112852Y24674D01*
X112874Y24654D01*
X112894Y24635D01*
X112907Y24621D01*
X112921Y24607D01*
X112930Y24596D01*
X112932Y24590D01*
X112935Y24588D01*
X112960Y24549D01*
X112985Y24510D01*
X113004Y24471D01*
X113021Y24430D01*
X113046Y24347D01*
X113063Y24272D01*
X113071Y24236D01*
X113074Y24205D01*
X113076Y24175D01*
X113079Y24150D01*
X113082Y24131D01*
Y24103D01*
X113076Y24012D01*
X113063Y23923D01*
X113046Y23845D01*
X113035Y23809D01*
X113024Y23776D01*
X113013Y23746D01*
X113002Y23718D01*
X112993Y23696D01*
X112985Y23674D01*
X112977Y23660D01*
X112971Y23649D01*
X112968Y23640D01*
X112966Y23638D01*
X112918Y23563D01*
X112863Y23499D01*
X112808Y23444D01*
X112752Y23397D01*
X112702Y23361D01*
X112680Y23347D01*
X112661Y23336D01*
X112647Y23325D01*
X112636Y23319D01*
X112628Y23316D01*
X112625Y23314D01*
X112539Y23275D01*
X112450Y23247D01*
X112362Y23228D01*
X112281Y23214D01*
X112245Y23208D01*
X112209Y23205D01*
X112182Y23203D01*
X112154D01*
X112135Y23200D01*
X112118D01*
X112107D01*
X112104D01*
X112004Y23205D01*
X111907Y23217D01*
X111822Y23231D01*
X111780Y23242D01*
X111744Y23250D01*
X111711Y23258D01*
X111680Y23269D01*
X111653Y23278D01*
X111630Y23283D01*
X111614Y23291D01*
X111600Y23294D01*
X111592Y23300D01*
X111589D01*
X111506Y23341D01*
X111431Y23388D01*
X111367Y23438D01*
X111342Y23463D01*
X111317Y23485D01*
X111295Y23507D01*
X111276Y23530D01*
X111259Y23549D01*
X111248Y23566D01*
X111237Y23577D01*
X111229Y23588D01*
X111226Y23593D01*
X111223Y23596D01*
X111201Y23635D01*
X111182Y23674D01*
X111151Y23757D01*
X111129Y23840D01*
X111115Y23920D01*
X111110Y23959D01*
X111104Y23992D01*
X111101Y24023D01*
Y24048D01*
X111099Y24070D01*
Y24100D01*
X111101Y24156D01*
X111107Y24208D01*
X111112Y24258D01*
X111124Y24305D01*
X111137Y24350D01*
X111151Y24391D01*
X111165Y24430D01*
X111182Y24466D01*
X111196Y24496D01*
X111209Y24527D01*
X111223Y24549D01*
X111237Y24571D01*
X111248Y24585D01*
X111254Y24599D01*
X111259Y24604D01*
X111262Y24607D01*
X111295Y24646D01*
X111328Y24679D01*
X111367Y24710D01*
X111406Y24740D01*
X111484Y24790D01*
X111561Y24829D01*
X111597Y24845D01*
X111630Y24859D01*
X111661Y24870D01*
X111686Y24879D01*
X111708Y24887D01*
X111725Y24893D01*
X111736Y24895D01*
X111739D01*
X111802Y24640D01*
D02*
G37*
G36*
X114706Y-25177D02*
X115617Y-24512D01*
Y-24789D01*
X115107Y-25171D01*
X115066Y-25205D01*
X115027Y-25232D01*
X114988Y-25260D01*
X114958Y-25282D01*
X114930Y-25302D01*
X114908Y-25315D01*
X114897Y-25324D01*
X114891Y-25326D01*
X114924Y-25346D01*
X114960Y-25368D01*
X114999Y-25393D01*
X115038Y-25418D01*
X115071Y-25443D01*
X115099Y-25459D01*
X115110Y-25468D01*
X115118Y-25473D01*
X115121Y-25479D01*
X115124D01*
X115617Y-25828D01*
Y-26130D01*
X114692Y-25476D01*
X113700Y-26216D01*
Y-25911D01*
X114365Y-25426D01*
X114381Y-25415D01*
X114401Y-25401D01*
X114445Y-25371D01*
X114467Y-25357D01*
X114484Y-25346D01*
X114495Y-25337D01*
X114498Y-25335D01*
X114456Y-25307D01*
X114417Y-25282D01*
X114404Y-25271D01*
X114392Y-25265D01*
X114384Y-25260D01*
X114381Y-25257D01*
X113700Y-24772D01*
Y-24459D01*
X114706Y-25177D01*
D02*
G37*
G36*
X115617Y-27800D02*
X115390D01*
Y-27168D01*
X113700D01*
Y-26914D01*
X115390D01*
Y-26282D01*
X115617D01*
Y-27800D01*
D02*
G37*
G36*
X119506Y-24827D02*
X120417Y-24162D01*
Y-24439D01*
X119907Y-24822D01*
X119866Y-24855D01*
X119827Y-24883D01*
X119788Y-24910D01*
X119758Y-24933D01*
X119730Y-24952D01*
X119708Y-24966D01*
X119697Y-24974D01*
X119691Y-24977D01*
X119724Y-24996D01*
X119760Y-25018D01*
X119799Y-25043D01*
X119838Y-25068D01*
X119871Y-25093D01*
X119899Y-25110D01*
X119910Y-25118D01*
X119918Y-25124D01*
X119921Y-25129D01*
X119924D01*
X120417Y-25478D01*
Y-25780D01*
X119492Y-25126D01*
X118500Y-25866D01*
Y-25561D01*
X119165Y-25076D01*
X119181Y-25065D01*
X119201Y-25052D01*
X119245Y-25021D01*
X119267Y-25007D01*
X119284Y-24996D01*
X119295Y-24988D01*
X119298Y-24985D01*
X119256Y-24957D01*
X119217Y-24933D01*
X119204Y-24921D01*
X119193Y-24916D01*
X119184Y-24910D01*
X119181Y-24908D01*
X118500Y-24423D01*
Y-24110D01*
X119506Y-24827D01*
D02*
G37*
G36*
X119021Y-26245D02*
X119076Y-26284D01*
X119126Y-26320D01*
X119168Y-26356D01*
X119206Y-26387D01*
X119234Y-26414D01*
X119256Y-26437D01*
X119270Y-26450D01*
X119276Y-26456D01*
X119292Y-26478D01*
X119312Y-26503D01*
X119342Y-26553D01*
X119353Y-26575D01*
X119364Y-26592D01*
X119370Y-26603D01*
X119373Y-26608D01*
X119381Y-26559D01*
X119389Y-26511D01*
X119403Y-26470D01*
X119414Y-26428D01*
X119428Y-26392D01*
X119445Y-26359D01*
X119458Y-26329D01*
X119472Y-26301D01*
X119489Y-26279D01*
X119503Y-26256D01*
X119514Y-26240D01*
X119525Y-26226D01*
X119533Y-26215D01*
X119542Y-26207D01*
X119544Y-26204D01*
X119547Y-26201D01*
X119575Y-26179D01*
X119603Y-26157D01*
X119661Y-26124D01*
X119719Y-26101D01*
X119774Y-26085D01*
X119821Y-26074D01*
X119841Y-26071D01*
X119860D01*
X119874Y-26068D01*
X119885D01*
X119890D01*
X119893D01*
X119951Y-26071D01*
X120004Y-26079D01*
X120054Y-26093D01*
X120096Y-26107D01*
X120132Y-26124D01*
X120159Y-26135D01*
X120176Y-26146D01*
X120179Y-26149D01*
X120181D01*
X120226Y-26182D01*
X120264Y-26215D01*
X120298Y-26251D01*
X120323Y-26284D01*
X120342Y-26315D01*
X120353Y-26340D01*
X120361Y-26356D01*
X120364Y-26359D01*
Y-26362D01*
X120372Y-26387D01*
X120381Y-26417D01*
X120395Y-26478D01*
X120403Y-26545D01*
X120411Y-26606D01*
X120414Y-26664D01*
Y-26689D01*
X120417Y-26711D01*
Y-27600D01*
X118500D01*
Y-27345D01*
X119350D01*
Y-27018D01*
X119348Y-26988D01*
Y-26966D01*
X119345Y-26946D01*
X119342Y-26932D01*
Y-26921D01*
X119339Y-26916D01*
Y-26913D01*
X119325Y-26869D01*
X119317Y-26849D01*
X119309Y-26833D01*
X119300Y-26816D01*
X119295Y-26805D01*
X119292Y-26799D01*
X119290Y-26797D01*
X119273Y-26774D01*
X119253Y-26752D01*
X119212Y-26711D01*
X119193Y-26691D01*
X119176Y-26678D01*
X119165Y-26669D01*
X119162Y-26667D01*
X119123Y-26639D01*
X119082Y-26608D01*
X119037Y-26578D01*
X118996Y-26547D01*
X118957Y-26522D01*
X118927Y-26503D01*
X118915Y-26495D01*
X118907Y-26489D01*
X118902Y-26484D01*
X118899D01*
X118500Y-26232D01*
Y-25916D01*
X119021Y-26245D01*
D02*
G37*
G36*
X75805Y-24927D02*
X76717Y-24262D01*
Y-24539D01*
X76207Y-24922D01*
X76166Y-24955D01*
X76127Y-24983D01*
X76088Y-25010D01*
X76058Y-25032D01*
X76030Y-25052D01*
X76008Y-25066D01*
X75997Y-25074D01*
X75991Y-25077D01*
X76024Y-25096D01*
X76060Y-25118D01*
X76099Y-25143D01*
X76138Y-25168D01*
X76171Y-25193D01*
X76199Y-25210D01*
X76210Y-25218D01*
X76218Y-25224D01*
X76221Y-25229D01*
X76224D01*
X76717Y-25578D01*
Y-25880D01*
X75792Y-25226D01*
X74800Y-25966D01*
Y-25661D01*
X75465Y-25177D01*
X75481Y-25166D01*
X75501Y-25152D01*
X75545Y-25121D01*
X75567Y-25107D01*
X75584Y-25096D01*
X75595Y-25088D01*
X75598Y-25085D01*
X75556Y-25057D01*
X75517Y-25032D01*
X75504Y-25021D01*
X75493Y-25016D01*
X75484Y-25010D01*
X75481Y-25008D01*
X74800Y-24523D01*
Y-24210D01*
X75805Y-24927D01*
D02*
G37*
G36*
X75321Y-26346D02*
X75376Y-26384D01*
X75426Y-26420D01*
X75468Y-26456D01*
X75506Y-26487D01*
X75534Y-26514D01*
X75556Y-26537D01*
X75570Y-26550D01*
X75576Y-26556D01*
X75592Y-26578D01*
X75612Y-26603D01*
X75642Y-26653D01*
X75653Y-26675D01*
X75664Y-26692D01*
X75670Y-26703D01*
X75673Y-26708D01*
X75681Y-26658D01*
X75689Y-26611D01*
X75703Y-26570D01*
X75714Y-26528D01*
X75728Y-26492D01*
X75745Y-26459D01*
X75758Y-26429D01*
X75772Y-26401D01*
X75789Y-26379D01*
X75803Y-26357D01*
X75814Y-26340D01*
X75825Y-26326D01*
X75833Y-26315D01*
X75841Y-26307D01*
X75844Y-26304D01*
X75847Y-26301D01*
X75875Y-26279D01*
X75902Y-26257D01*
X75961Y-26224D01*
X76019Y-26201D01*
X76074Y-26185D01*
X76121Y-26174D01*
X76141Y-26171D01*
X76160D01*
X76174Y-26168D01*
X76185D01*
X76191D01*
X76193D01*
X76252Y-26171D01*
X76304Y-26179D01*
X76354Y-26193D01*
X76395Y-26207D01*
X76432Y-26224D01*
X76459Y-26235D01*
X76476Y-26246D01*
X76479Y-26248D01*
X76481D01*
X76526Y-26282D01*
X76565Y-26315D01*
X76598Y-26351D01*
X76623Y-26384D01*
X76642Y-26415D01*
X76653Y-26440D01*
X76661Y-26456D01*
X76664Y-26459D01*
Y-26462D01*
X76673Y-26487D01*
X76681Y-26517D01*
X76695Y-26578D01*
X76703Y-26645D01*
X76711Y-26706D01*
X76714Y-26764D01*
Y-26789D01*
X76717Y-26811D01*
Y-27700D01*
X74800D01*
Y-27445D01*
X75650D01*
Y-27118D01*
X75648Y-27088D01*
Y-27066D01*
X75645Y-27046D01*
X75642Y-27032D01*
Y-27021D01*
X75639Y-27016D01*
Y-27013D01*
X75625Y-26969D01*
X75617Y-26949D01*
X75609Y-26933D01*
X75600Y-26916D01*
X75595Y-26905D01*
X75592Y-26899D01*
X75589Y-26897D01*
X75573Y-26875D01*
X75553Y-26852D01*
X75512Y-26811D01*
X75493Y-26791D01*
X75476Y-26778D01*
X75465Y-26769D01*
X75462Y-26766D01*
X75423Y-26739D01*
X75382Y-26708D01*
X75337Y-26678D01*
X75296Y-26647D01*
X75257Y-26623D01*
X75227Y-26603D01*
X75216Y-26595D01*
X75207Y-26589D01*
X75202Y-26584D01*
X75199D01*
X74800Y-26332D01*
Y-26016D01*
X75321Y-26346D01*
D02*
G37*
G36*
X33406Y-24627D02*
X34317Y-23962D01*
Y-24239D01*
X33807Y-24622D01*
X33766Y-24655D01*
X33727Y-24683D01*
X33688Y-24710D01*
X33658Y-24733D01*
X33630Y-24752D01*
X33608Y-24766D01*
X33597Y-24774D01*
X33591Y-24777D01*
X33624Y-24796D01*
X33660Y-24818D01*
X33699Y-24843D01*
X33738Y-24868D01*
X33771Y-24893D01*
X33799Y-24910D01*
X33810Y-24918D01*
X33818Y-24924D01*
X33821Y-24929D01*
X33824D01*
X34317Y-25278D01*
Y-25580D01*
X33392Y-24926D01*
X32400Y-25666D01*
Y-25361D01*
X33065Y-24877D01*
X33081Y-24866D01*
X33101Y-24852D01*
X33145Y-24821D01*
X33167Y-24807D01*
X33184Y-24796D01*
X33195Y-24788D01*
X33198Y-24785D01*
X33156Y-24757D01*
X33117Y-24733D01*
X33104Y-24721D01*
X33092Y-24716D01*
X33084Y-24710D01*
X33081Y-24708D01*
X32400Y-24223D01*
Y-23910D01*
X33406Y-24627D01*
D02*
G37*
G36*
X32921Y-26046D02*
X32976Y-26084D01*
X33026Y-26120D01*
X33068Y-26156D01*
X33106Y-26187D01*
X33134Y-26214D01*
X33156Y-26237D01*
X33170Y-26250D01*
X33176Y-26256D01*
X33192Y-26278D01*
X33212Y-26303D01*
X33242Y-26353D01*
X33253Y-26375D01*
X33264Y-26392D01*
X33270Y-26403D01*
X33273Y-26408D01*
X33281Y-26359D01*
X33289Y-26311D01*
X33303Y-26270D01*
X33314Y-26228D01*
X33328Y-26192D01*
X33345Y-26159D01*
X33358Y-26129D01*
X33372Y-26101D01*
X33389Y-26079D01*
X33403Y-26057D01*
X33414Y-26040D01*
X33425Y-26026D01*
X33433Y-26015D01*
X33441Y-26007D01*
X33444Y-26004D01*
X33447Y-26001D01*
X33475Y-25979D01*
X33503Y-25957D01*
X33561Y-25924D01*
X33619Y-25901D01*
X33674Y-25885D01*
X33721Y-25874D01*
X33741Y-25871D01*
X33760D01*
X33774Y-25868D01*
X33785D01*
X33790D01*
X33793D01*
X33852Y-25871D01*
X33904Y-25879D01*
X33954Y-25893D01*
X33996Y-25907D01*
X34032Y-25924D01*
X34059Y-25935D01*
X34076Y-25946D01*
X34079Y-25949D01*
X34081D01*
X34126Y-25982D01*
X34165Y-26015D01*
X34198Y-26051D01*
X34223Y-26084D01*
X34242Y-26115D01*
X34253Y-26140D01*
X34261Y-26156D01*
X34264Y-26159D01*
Y-26162D01*
X34273Y-26187D01*
X34281Y-26217D01*
X34295Y-26278D01*
X34303Y-26345D01*
X34311Y-26406D01*
X34314Y-26464D01*
Y-26489D01*
X34317Y-26511D01*
Y-27400D01*
X32400D01*
Y-27145D01*
X33250D01*
Y-26818D01*
X33248Y-26788D01*
Y-26766D01*
X33245Y-26746D01*
X33242Y-26732D01*
Y-26721D01*
X33239Y-26716D01*
Y-26713D01*
X33226Y-26669D01*
X33217Y-26649D01*
X33209Y-26633D01*
X33200Y-26616D01*
X33195Y-26605D01*
X33192Y-26599D01*
X33189Y-26597D01*
X33173Y-26575D01*
X33153Y-26552D01*
X33112Y-26511D01*
X33092Y-26491D01*
X33076Y-26478D01*
X33065Y-26469D01*
X33062Y-26467D01*
X33023Y-26439D01*
X32982Y-26408D01*
X32937Y-26378D01*
X32896Y-26347D01*
X32857Y-26322D01*
X32827Y-26303D01*
X32816Y-26295D01*
X32807Y-26289D01*
X32802Y-26284D01*
X32799D01*
X32400Y-26032D01*
Y-25716D01*
X32921Y-26046D01*
D02*
G37*
G36*
X109794Y-22435D02*
X109880Y-22444D01*
X109958Y-22457D01*
X109994Y-22463D01*
X110024Y-22471D01*
X110055Y-22480D01*
X110080Y-22485D01*
X110102Y-22491D01*
X110121Y-22499D01*
X110138Y-22502D01*
X110149Y-22507D01*
X110154Y-22510D01*
X110157D01*
X110229Y-22541D01*
X110293Y-22577D01*
X110348Y-22615D01*
X110395Y-22651D01*
X110434Y-22685D01*
X110462Y-22712D01*
X110470Y-22723D01*
X110478Y-22732D01*
X110481Y-22735D01*
X110484Y-22737D01*
X110520Y-22782D01*
X110548Y-22829D01*
X110573Y-22876D01*
X110592Y-22920D01*
X110606Y-22959D01*
X110614Y-22989D01*
X110620Y-23000D01*
Y-23009D01*
X110622Y-23014D01*
Y-23017D01*
X110631Y-23064D01*
X110639Y-23120D01*
X110644Y-23175D01*
X110647Y-23230D01*
X110650Y-23280D01*
Y-24017D01*
X108733D01*
Y-23327D01*
X108736Y-23264D01*
X108739Y-23205D01*
X108744Y-23153D01*
X108750Y-23109D01*
X108755Y-23070D01*
X108758Y-23042D01*
X108761Y-23034D01*
X108764Y-23025D01*
Y-23020D01*
X108778Y-22970D01*
X108794Y-22926D01*
X108808Y-22887D01*
X108825Y-22854D01*
X108838Y-22826D01*
X108850Y-22806D01*
X108858Y-22795D01*
X108861Y-22790D01*
X108886Y-22754D01*
X108916Y-22723D01*
X108944Y-22693D01*
X108972Y-22668D01*
X108996Y-22646D01*
X109016Y-22629D01*
X109030Y-22618D01*
X109035Y-22615D01*
X109080Y-22588D01*
X109127Y-22560D01*
X109171Y-22538D01*
X109215Y-22521D01*
X109254Y-22505D01*
X109284Y-22493D01*
X109296Y-22491D01*
X109304Y-22488D01*
X109309Y-22485D01*
X109312D01*
X109379Y-22469D01*
X109445Y-22455D01*
X109509Y-22446D01*
X109570Y-22438D01*
X109622Y-22435D01*
X109645D01*
X109664Y-22433D01*
X109678D01*
X109692D01*
X109697D01*
X109700D01*
X109794Y-22435D01*
D02*
G37*
G36*
X110650Y-24687D02*
X109143D01*
X110650Y-25693D01*
Y-25953D01*
X108733D01*
Y-25710D01*
X110237D01*
X108733Y-24707D01*
Y-24444D01*
X110650D01*
Y-24687D01*
D02*
G37*
G36*
X109711Y-27139D02*
X109484D01*
Y-26574D01*
X109124D01*
X109096Y-26607D01*
X109071Y-26646D01*
X109049Y-26687D01*
X109030Y-26726D01*
X109013Y-26759D01*
X108999Y-26790D01*
X108994Y-26801D01*
X108991Y-26806D01*
X108988Y-26812D01*
Y-26815D01*
X108969Y-26873D01*
X108952Y-26931D01*
X108941Y-26984D01*
X108935Y-27034D01*
X108930Y-27075D01*
Y-27092D01*
X108927Y-27108D01*
Y-27136D01*
X108930Y-27205D01*
X108941Y-27272D01*
X108955Y-27333D01*
X108969Y-27388D01*
X108985Y-27432D01*
X108991Y-27452D01*
X108996Y-27466D01*
X109002Y-27479D01*
X109008Y-27488D01*
X109010Y-27493D01*
Y-27496D01*
X109046Y-27554D01*
X109085Y-27607D01*
X109127Y-27651D01*
X109168Y-27687D01*
X109207Y-27718D01*
X109237Y-27737D01*
X109248Y-27745D01*
X109257Y-27748D01*
X109262Y-27754D01*
X109265D01*
X109334Y-27782D01*
X109406Y-27804D01*
X109478Y-27817D01*
X109548Y-27828D01*
X109578Y-27831D01*
X109606Y-27834D01*
X109634Y-27837D01*
X109656D01*
X109672Y-27840D01*
X109686D01*
X109694D01*
X109697D01*
X109775Y-27837D01*
X109844Y-27828D01*
X109911Y-27817D01*
X109969Y-27804D01*
X109994Y-27798D01*
X110016Y-27790D01*
X110035Y-27784D01*
X110052Y-27779D01*
X110066Y-27773D01*
X110074Y-27770D01*
X110080Y-27768D01*
X110082D01*
X110121Y-27748D01*
X110157Y-27729D01*
X110190Y-27709D01*
X110218Y-27690D01*
X110240Y-27673D01*
X110259Y-27660D01*
X110271Y-27648D01*
X110273Y-27646D01*
X110304Y-27615D01*
X110331Y-27582D01*
X110354Y-27546D01*
X110376Y-27513D01*
X110390Y-27485D01*
X110404Y-27463D01*
X110409Y-27446D01*
X110412Y-27441D01*
X110431Y-27391D01*
X110445Y-27341D01*
X110453Y-27288D01*
X110462Y-27241D01*
X110465Y-27200D01*
Y-27183D01*
X110467Y-27169D01*
Y-27139D01*
X110465Y-27086D01*
X110459Y-27036D01*
X110451Y-26992D01*
X110442Y-26953D01*
X110431Y-26920D01*
X110423Y-26895D01*
X110417Y-26881D01*
X110415Y-26876D01*
X110395Y-26834D01*
X110373Y-26798D01*
X110351Y-26765D01*
X110329Y-26740D01*
X110309Y-26720D01*
X110295Y-26704D01*
X110284Y-26696D01*
X110282Y-26693D01*
X110248Y-26668D01*
X110210Y-26649D01*
X110174Y-26629D01*
X110135Y-26612D01*
X110102Y-26601D01*
X110077Y-26593D01*
X110066Y-26590D01*
X110057Y-26588D01*
X110055Y-26585D01*
X110052D01*
X110113Y-26355D01*
X110182Y-26374D01*
X110243Y-26399D01*
X110298Y-26424D01*
X110343Y-26446D01*
X110379Y-26469D01*
X110404Y-26485D01*
X110420Y-26496D01*
X110426Y-26502D01*
X110470Y-26540D01*
X110506Y-26582D01*
X110539Y-26626D01*
X110567Y-26668D01*
X110586Y-26707D01*
X110603Y-26737D01*
X110608Y-26748D01*
X110611Y-26757D01*
X110614Y-26762D01*
Y-26765D01*
X110636Y-26829D01*
X110653Y-26895D01*
X110667Y-26956D01*
X110675Y-27014D01*
X110680Y-27067D01*
Y-27089D01*
X110683Y-27106D01*
Y-27194D01*
X110678Y-27244D01*
X110664Y-27341D01*
X110656Y-27385D01*
X110644Y-27427D01*
X110636Y-27466D01*
X110625Y-27502D01*
X110614Y-27535D01*
X110603Y-27563D01*
X110592Y-27588D01*
X110584Y-27610D01*
X110575Y-27626D01*
X110570Y-27637D01*
X110567Y-27646D01*
X110564Y-27648D01*
X110539Y-27687D01*
X110514Y-27726D01*
X110456Y-27793D01*
X110398Y-27851D01*
X110337Y-27898D01*
X110284Y-27937D01*
X110262Y-27950D01*
X110240Y-27962D01*
X110223Y-27973D01*
X110212Y-27978D01*
X110204Y-27981D01*
X110201Y-27984D01*
X110110Y-28022D01*
X110019Y-28050D01*
X109930Y-28072D01*
X109888Y-28078D01*
X109850Y-28086D01*
X109813Y-28089D01*
X109783Y-28095D01*
X109753Y-28097D01*
X109728D01*
X109708Y-28100D01*
X109694D01*
X109683D01*
X109681D01*
X109578Y-28095D01*
X109481Y-28081D01*
X109437Y-28072D01*
X109395Y-28064D01*
X109354Y-28053D01*
X109318Y-28042D01*
X109284Y-28031D01*
X109257Y-28020D01*
X109229Y-28011D01*
X109210Y-28003D01*
X109190Y-27995D01*
X109179Y-27989D01*
X109171Y-27984D01*
X109168D01*
X109088Y-27934D01*
X109019Y-27878D01*
X108958Y-27820D01*
X108908Y-27765D01*
X108869Y-27712D01*
X108855Y-27693D01*
X108841Y-27673D01*
X108833Y-27657D01*
X108825Y-27646D01*
X108822Y-27637D01*
X108819Y-27635D01*
X108797Y-27590D01*
X108780Y-27546D01*
X108750Y-27457D01*
X108730Y-27371D01*
X108714Y-27291D01*
X108711Y-27255D01*
X108705Y-27222D01*
X108703Y-27191D01*
Y-27167D01*
X108700Y-27147D01*
Y-27119D01*
X108703Y-27042D01*
X108711Y-26967D01*
X108725Y-26898D01*
X108739Y-26837D01*
X108744Y-26812D01*
X108750Y-26787D01*
X108758Y-26765D01*
X108764Y-26746D01*
X108769Y-26732D01*
X108772Y-26720D01*
X108775Y-26715D01*
Y-26712D01*
X108805Y-26637D01*
X108841Y-26568D01*
X108880Y-26502D01*
X108916Y-26443D01*
X108933Y-26419D01*
X108949Y-26394D01*
X108963Y-26374D01*
X108974Y-26358D01*
X108985Y-26344D01*
X108994Y-26333D01*
X108996Y-26327D01*
X108999Y-26324D01*
X109711D01*
Y-27139D01*
D02*
G37*
G36*
X64006Y27873D02*
X64917Y28538D01*
Y28261D01*
X64407Y27878D01*
X64366Y27845D01*
X64327Y27817D01*
X64288Y27790D01*
X64258Y27768D01*
X64230Y27748D01*
X64208Y27734D01*
X64197Y27726D01*
X64191Y27723D01*
X64224Y27704D01*
X64260Y27682D01*
X64299Y27657D01*
X64338Y27632D01*
X64371Y27607D01*
X64399Y27590D01*
X64410Y27582D01*
X64418Y27576D01*
X64421Y27571D01*
X64424D01*
X64917Y27222D01*
Y26920D01*
X63992Y27574D01*
X63000Y26834D01*
Y27139D01*
X63665Y27624D01*
X63681Y27635D01*
X63701Y27648D01*
X63745Y27679D01*
X63767Y27693D01*
X63784Y27704D01*
X63795Y27712D01*
X63798Y27715D01*
X63756Y27743D01*
X63717Y27768D01*
X63704Y27779D01*
X63692Y27784D01*
X63684Y27790D01*
X63681Y27792D01*
X63000Y28277D01*
Y28590D01*
X64006Y27873D01*
D02*
G37*
G36*
X63521Y26454D02*
X63576Y26416D01*
X63626Y26380D01*
X63668Y26344D01*
X63706Y26313D01*
X63734Y26286D01*
X63756Y26263D01*
X63770Y26250D01*
X63776Y26244D01*
X63792Y26222D01*
X63812Y26197D01*
X63842Y26147D01*
X63853Y26125D01*
X63864Y26108D01*
X63870Y26097D01*
X63873Y26092D01*
X63881Y26142D01*
X63889Y26189D01*
X63903Y26230D01*
X63914Y26272D01*
X63928Y26308D01*
X63945Y26341D01*
X63958Y26371D01*
X63972Y26399D01*
X63989Y26421D01*
X64003Y26443D01*
X64014Y26460D01*
X64025Y26474D01*
X64033Y26485D01*
X64042Y26493D01*
X64044Y26496D01*
X64047Y26499D01*
X64075Y26521D01*
X64103Y26543D01*
X64161Y26576D01*
X64219Y26599D01*
X64274Y26615D01*
X64321Y26626D01*
X64341Y26629D01*
X64360D01*
X64374Y26632D01*
X64385D01*
X64390D01*
X64393D01*
X64451Y26629D01*
X64504Y26621D01*
X64554Y26607D01*
X64596Y26593D01*
X64631Y26576D01*
X64659Y26565D01*
X64676Y26554D01*
X64679Y26551D01*
X64681D01*
X64726Y26518D01*
X64764Y26485D01*
X64798Y26449D01*
X64823Y26416D01*
X64842Y26385D01*
X64853Y26360D01*
X64861Y26344D01*
X64864Y26341D01*
Y26338D01*
X64872Y26313D01*
X64881Y26283D01*
X64895Y26222D01*
X64903Y26155D01*
X64911Y26094D01*
X64914Y26036D01*
Y26011D01*
X64917Y25989D01*
Y25100D01*
X63000D01*
Y25355D01*
X63850D01*
Y25682D01*
X63848Y25712D01*
Y25734D01*
X63845Y25754D01*
X63842Y25768D01*
Y25779D01*
X63839Y25784D01*
Y25787D01*
X63826Y25831D01*
X63817Y25851D01*
X63809Y25867D01*
X63801Y25884D01*
X63795Y25895D01*
X63792Y25901D01*
X63789Y25903D01*
X63773Y25925D01*
X63753Y25948D01*
X63712Y25989D01*
X63692Y26009D01*
X63676Y26022D01*
X63665Y26031D01*
X63662Y26033D01*
X63623Y26061D01*
X63582Y26092D01*
X63537Y26122D01*
X63496Y26153D01*
X63457Y26177D01*
X63427Y26197D01*
X63415Y26205D01*
X63407Y26211D01*
X63402Y26216D01*
X63399D01*
X63000Y26468D01*
Y26784D01*
X63521Y26454D01*
D02*
G37*
G36*
X127126Y15192D02*
X127866Y14200D01*
X127561D01*
X127076Y14865D01*
X127066Y14881D01*
X127052Y14901D01*
X127021Y14945D01*
X127007Y14967D01*
X126996Y14984D01*
X126988Y14995D01*
X126985Y14998D01*
X126957Y14956D01*
X126933Y14917D01*
X126921Y14904D01*
X126916Y14893D01*
X126910Y14884D01*
X126908Y14881D01*
X126423Y14200D01*
X126110D01*
X126827Y15205D01*
X126162Y16117D01*
X126439D01*
X126822Y15607D01*
X126855Y15566D01*
X126883Y15527D01*
X126910Y15488D01*
X126933Y15458D01*
X126952Y15430D01*
X126966Y15408D01*
X126974Y15397D01*
X126977Y15391D01*
X126996Y15424D01*
X127018Y15460D01*
X127043Y15499D01*
X127068Y15538D01*
X127093Y15571D01*
X127110Y15599D01*
X127118Y15610D01*
X127124Y15618D01*
X127129Y15621D01*
Y15624D01*
X127478Y16117D01*
X127780D01*
X127126Y15192D01*
D02*
G37*
G36*
X129600Y14200D02*
X129345D01*
Y15050D01*
X129018D01*
X128988Y15048D01*
X128966D01*
X128946Y15045D01*
X128932Y15042D01*
X128921D01*
X128916Y15039D01*
X128913D01*
X128869Y15025D01*
X128849Y15017D01*
X128833Y15009D01*
X128816Y15000D01*
X128805Y14995D01*
X128799Y14992D01*
X128797Y14989D01*
X128774Y14973D01*
X128752Y14953D01*
X128711Y14912D01*
X128691Y14893D01*
X128678Y14876D01*
X128669Y14865D01*
X128666Y14862D01*
X128639Y14823D01*
X128608Y14782D01*
X128578Y14737D01*
X128547Y14696D01*
X128523Y14657D01*
X128503Y14627D01*
X128495Y14615D01*
X128489Y14607D01*
X128484Y14602D01*
Y14599D01*
X128232Y14200D01*
X127916D01*
X128245Y14721D01*
X128284Y14776D01*
X128320Y14826D01*
X128356Y14868D01*
X128387Y14906D01*
X128414Y14934D01*
X128437Y14956D01*
X128451Y14970D01*
X128456Y14976D01*
X128478Y14992D01*
X128503Y15012D01*
X128553Y15042D01*
X128575Y15053D01*
X128592Y15064D01*
X128603Y15070D01*
X128608Y15073D01*
X128559Y15081D01*
X128511Y15089D01*
X128470Y15103D01*
X128428Y15114D01*
X128392Y15128D01*
X128359Y15145D01*
X128329Y15158D01*
X128301Y15172D01*
X128279Y15189D01*
X128256Y15203D01*
X128240Y15214D01*
X128226Y15225D01*
X128215Y15233D01*
X128207Y15242D01*
X128204Y15244D01*
X128201Y15247D01*
X128179Y15275D01*
X128157Y15303D01*
X128124Y15361D01*
X128101Y15419D01*
X128085Y15474D01*
X128074Y15521D01*
X128071Y15541D01*
Y15560D01*
X128068Y15574D01*
Y15585D01*
Y15590D01*
Y15593D01*
X128071Y15652D01*
X128079Y15704D01*
X128093Y15754D01*
X128107Y15796D01*
X128124Y15832D01*
X128135Y15859D01*
X128146Y15876D01*
X128148Y15879D01*
Y15881D01*
X128182Y15926D01*
X128215Y15965D01*
X128251Y15998D01*
X128284Y16023D01*
X128315Y16042D01*
X128340Y16053D01*
X128356Y16061D01*
X128359Y16064D01*
X128362D01*
X128387Y16072D01*
X128417Y16081D01*
X128478Y16095D01*
X128545Y16103D01*
X128606Y16111D01*
X128664Y16114D01*
X128689D01*
X128711Y16117D01*
X129600D01*
Y14200D01*
D02*
G37*
%LPC*%
G36*
X120396Y25471D02*
X120393D01*
X120390D01*
X120357Y25469D01*
X120324Y25463D01*
X120296Y25455D01*
X120271Y25447D01*
X120249Y25435D01*
X120233Y25427D01*
X120222Y25422D01*
X120219Y25419D01*
X120191Y25399D01*
X120166Y25374D01*
X120147Y25350D01*
X120130Y25325D01*
X120119Y25302D01*
X120111Y25286D01*
X120105Y25275D01*
X120103Y25269D01*
X120091Y25230D01*
X120083Y25186D01*
X120078Y25142D01*
X120075Y25098D01*
X120072Y25059D01*
X120069Y25025D01*
Y24455D01*
X120703D01*
Y25059D01*
X120701Y25133D01*
X120690Y25197D01*
X120676Y25253D01*
X120659Y25294D01*
X120643Y25330D01*
X120629Y25352D01*
X120618Y25366D01*
X120615Y25372D01*
X120579Y25405D01*
X120543Y25430D01*
X120504Y25447D01*
X120471Y25460D01*
X120438Y25466D01*
X120413Y25469D01*
X120396Y25471D01*
D02*
G37*
G36*
X108022Y30878D02*
X107997D01*
X107983D01*
X107981D01*
X107978D01*
X107892D01*
X107814Y30873D01*
X107745Y30867D01*
X107679Y30862D01*
X107623Y30854D01*
X107571Y30842D01*
X107526Y30831D01*
X107485Y30823D01*
X107451Y30812D01*
X107424Y30801D01*
X107399Y30793D01*
X107379Y30781D01*
X107366Y30776D01*
X107357Y30770D01*
X107352Y30765D01*
X107349D01*
X107321Y30743D01*
X107299Y30720D01*
X107277Y30698D01*
X107260Y30676D01*
X107233Y30629D01*
X107213Y30588D01*
X107202Y30549D01*
X107197Y30521D01*
X107194Y30510D01*
Y30493D01*
X107197Y30463D01*
X107199Y30435D01*
X107219Y30383D01*
X107244Y30336D01*
X107272Y30294D01*
X107299Y30264D01*
X107324Y30239D01*
X107343Y30225D01*
X107346Y30219D01*
X107349D01*
X107382Y30200D01*
X107421Y30183D01*
X107465Y30167D01*
X107512Y30156D01*
X107562Y30144D01*
X107615Y30136D01*
X107723Y30122D01*
X107773Y30117D01*
X107820Y30114D01*
X107864Y30111D01*
X107900D01*
X107933Y30108D01*
X107958D01*
X107972D01*
X107978D01*
X108064Y30111D01*
X108141Y30114D01*
X108213Y30119D01*
X108280Y30128D01*
X108338Y30136D01*
X108390Y30147D01*
X108438Y30158D01*
X108479Y30169D01*
X108515Y30180D01*
X108546Y30189D01*
X108571Y30200D01*
X108593Y30208D01*
X108607Y30216D01*
X108618Y30222D01*
X108623Y30228D01*
X108626D01*
X108651Y30247D01*
X108673Y30266D01*
X108690Y30288D01*
X108706Y30311D01*
X108731Y30355D01*
X108748Y30397D01*
X108756Y30433D01*
X108762Y30463D01*
X108765Y30474D01*
Y30491D01*
X108762Y30521D01*
X108759Y30552D01*
X108751Y30579D01*
X108740Y30604D01*
X108715Y30651D01*
X108687Y30693D01*
X108657Y30723D01*
X108632Y30748D01*
X108621Y30757D01*
X108612Y30762D01*
X108609Y30768D01*
X108607D01*
X108573Y30787D01*
X108535Y30804D01*
X108490Y30820D01*
X108443Y30831D01*
X108393Y30842D01*
X108341Y30851D01*
X108235Y30865D01*
X108183Y30870D01*
X108136Y30873D01*
X108091Y30876D01*
X108055D01*
X108022Y30878D01*
D02*
G37*
G36*
X108028Y29377D02*
X108011D01*
X108000D01*
X107992D01*
X107989D01*
X107922Y29374D01*
X107859Y29369D01*
X107798Y29360D01*
X107742Y29349D01*
X107693Y29333D01*
X107645Y29319D01*
X107601Y29302D01*
X107562Y29286D01*
X107529Y29266D01*
X107499Y29250D01*
X107474Y29236D01*
X107454Y29222D01*
X107438Y29208D01*
X107424Y29200D01*
X107418Y29194D01*
X107415Y29191D01*
X107379Y29155D01*
X107349Y29117D01*
X107324Y29078D01*
X107299Y29039D01*
X107280Y29000D01*
X107266Y28959D01*
X107252Y28923D01*
X107241Y28884D01*
X107233Y28851D01*
X107227Y28818D01*
X107222Y28790D01*
X107219Y28765D01*
Y28745D01*
X107216Y28732D01*
Y28718D01*
X107219Y28665D01*
X107224Y28615D01*
X107235Y28571D01*
X107246Y28527D01*
X107263Y28485D01*
X107280Y28446D01*
X107296Y28410D01*
X107316Y28377D01*
X107335Y28349D01*
X107352Y28324D01*
X107368Y28302D01*
X107385Y28283D01*
X107396Y28269D01*
X107407Y28258D01*
X107413Y28253D01*
X107415Y28250D01*
X107454Y28216D01*
X107496Y28189D01*
X107540Y28164D01*
X107585Y28142D01*
X107632Y28125D01*
X107676Y28108D01*
X107764Y28086D01*
X107803Y28081D01*
X107842Y28075D01*
X107875Y28070D01*
X107903Y28067D01*
X107928Y28064D01*
X107947D01*
X107958D01*
X107961D01*
X108039Y28067D01*
X108111Y28072D01*
X108180Y28081D01*
X108241Y28095D01*
X108296Y28108D01*
X108346Y28125D01*
X108393Y28144D01*
X108432Y28161D01*
X108468Y28181D01*
X108499Y28197D01*
X108523Y28214D01*
X108543Y28228D01*
X108560Y28241D01*
X108571Y28250D01*
X108576Y28255D01*
X108579Y28258D01*
X108612Y28294D01*
X108640Y28333D01*
X108665Y28372D01*
X108687Y28413D01*
X108703Y28452D01*
X108720Y28491D01*
X108742Y28563D01*
X108748Y28596D01*
X108753Y28626D01*
X108759Y28651D01*
X108762Y28676D01*
X108765Y28696D01*
Y28721D01*
X108762Y28790D01*
X108751Y28856D01*
X108734Y28914D01*
X108717Y28964D01*
X108698Y29006D01*
X108690Y29022D01*
X108684Y29036D01*
X108676Y29050D01*
X108673Y29059D01*
X108668Y29061D01*
Y29064D01*
X108629Y29117D01*
X108584Y29164D01*
X108540Y29205D01*
X108496Y29239D01*
X108457Y29263D01*
X108424Y29283D01*
X108413Y29289D01*
X108404Y29294D01*
X108399Y29297D01*
X108396D01*
X108330Y29324D01*
X108258Y29344D01*
X108191Y29358D01*
X108127Y29366D01*
X108097Y29372D01*
X108072Y29374D01*
X108047D01*
X108028Y29377D01*
D02*
G37*
G36*
X108404Y26552D02*
X108390D01*
X108388D01*
X108385D01*
X108327Y26546D01*
X108277Y26535D01*
X108233Y26518D01*
X108197Y26499D01*
X108169Y26480D01*
X108147Y26463D01*
X108136Y26452D01*
X108130Y26446D01*
X108114Y26427D01*
X108100Y26402D01*
X108078Y26349D01*
X108061Y26291D01*
X108050Y26233D01*
X108044Y26180D01*
X108042Y26158D01*
Y26139D01*
X108039Y26120D01*
Y25604D01*
X108723D01*
Y26153D01*
X108720Y26203D01*
X108717Y26244D01*
X108715Y26278D01*
X108709Y26300D01*
X108706Y26316D01*
X108703Y26327D01*
Y26330D01*
X108690Y26366D01*
X108673Y26397D01*
X108657Y26424D01*
X108637Y26449D01*
X108618Y26466D01*
X108604Y26480D01*
X108593Y26488D01*
X108590Y26491D01*
X108557Y26510D01*
X108523Y26527D01*
X108487Y26538D01*
X108457Y26543D01*
X108429Y26549D01*
X108404Y26552D01*
D02*
G37*
G36*
X67833Y-22593D02*
X67819D01*
X67808D01*
X67805D01*
X67728Y-22596D01*
X67656Y-22601D01*
X67592Y-22610D01*
X67537Y-22618D01*
X67515Y-22623D01*
X67495Y-22629D01*
X67476Y-22635D01*
X67462Y-22637D01*
X67451Y-22640D01*
X67443Y-22643D01*
X67437Y-22646D01*
X67434D01*
X67382Y-22665D01*
X67335Y-22687D01*
X67293Y-22712D01*
X67257Y-22734D01*
X67229Y-22754D01*
X67210Y-22770D01*
X67199Y-22781D01*
X67193Y-22784D01*
X67171Y-22812D01*
X67152Y-22840D01*
X67135Y-22867D01*
X67119Y-22895D01*
X67107Y-22920D01*
X67099Y-22939D01*
X67096Y-22953D01*
X67094Y-22959D01*
X67083Y-23000D01*
X67074Y-23050D01*
X67069Y-23100D01*
X67066Y-23147D01*
X67063Y-23189D01*
X67060Y-23208D01*
Y-23662D01*
X68523D01*
Y-23219D01*
X68520Y-23183D01*
Y-23147D01*
X68517Y-23114D01*
X68509Y-23058D01*
X68503Y-23014D01*
X68495Y-22978D01*
X68487Y-22953D01*
X68484Y-22939D01*
X68481Y-22934D01*
X68457Y-22884D01*
X68426Y-22837D01*
X68390Y-22795D01*
X68354Y-22759D01*
X68321Y-22731D01*
X68293Y-22709D01*
X68282Y-22704D01*
X68274Y-22698D01*
X68268Y-22693D01*
X68265D01*
X68235Y-22676D01*
X68199Y-22659D01*
X68127Y-22635D01*
X68049Y-22618D01*
X67975Y-22604D01*
X67941Y-22601D01*
X67908Y-22599D01*
X67880Y-22596D01*
X67855D01*
X67833Y-22593D01*
D02*
G37*
G36*
X25533Y-22493D02*
X25519D01*
X25508D01*
X25506D01*
X25428Y-22496D01*
X25356Y-22501D01*
X25292Y-22510D01*
X25237Y-22518D01*
X25215Y-22523D01*
X25195Y-22529D01*
X25176Y-22535D01*
X25162Y-22537D01*
X25151Y-22540D01*
X25143Y-22543D01*
X25137Y-22546D01*
X25134D01*
X25082Y-22565D01*
X25035Y-22587D01*
X24993Y-22612D01*
X24957Y-22634D01*
X24929Y-22654D01*
X24910Y-22670D01*
X24899Y-22681D01*
X24893Y-22684D01*
X24871Y-22712D01*
X24852Y-22739D01*
X24835Y-22767D01*
X24818Y-22795D01*
X24807Y-22820D01*
X24799Y-22839D01*
X24796Y-22853D01*
X24794Y-22859D01*
X24782Y-22900D01*
X24774Y-22950D01*
X24769Y-23000D01*
X24766Y-23047D01*
X24763Y-23088D01*
X24760Y-23108D01*
Y-23562D01*
X26223D01*
Y-23119D01*
X26220Y-23083D01*
Y-23047D01*
X26217Y-23014D01*
X26209Y-22958D01*
X26204Y-22914D01*
X26195Y-22878D01*
X26187Y-22853D01*
X26184Y-22839D01*
X26181Y-22834D01*
X26156Y-22784D01*
X26126Y-22737D01*
X26090Y-22695D01*
X26054Y-22659D01*
X26021Y-22632D01*
X25993Y-22609D01*
X25982Y-22604D01*
X25974Y-22598D01*
X25968Y-22593D01*
X25965D01*
X25935Y-22576D01*
X25899Y-22559D01*
X25827Y-22535D01*
X25749Y-22518D01*
X25675Y-22504D01*
X25641Y-22501D01*
X25608Y-22499D01*
X25580Y-22496D01*
X25555D01*
X25533Y-22493D01*
D02*
G37*
G36*
X104133Y28607D02*
X104119D01*
X104108D01*
X104105D01*
X104028Y28604D01*
X103956Y28599D01*
X103892Y28590D01*
X103837Y28582D01*
X103815Y28577D01*
X103795Y28571D01*
X103776Y28565D01*
X103762Y28563D01*
X103751Y28560D01*
X103743Y28557D01*
X103737Y28554D01*
X103734D01*
X103682Y28535D01*
X103635Y28513D01*
X103593Y28488D01*
X103557Y28466D01*
X103529Y28446D01*
X103510Y28430D01*
X103499Y28419D01*
X103493Y28416D01*
X103471Y28388D01*
X103452Y28361D01*
X103435Y28333D01*
X103419Y28305D01*
X103408Y28280D01*
X103399Y28261D01*
X103396Y28247D01*
X103394Y28241D01*
X103383Y28200D01*
X103374Y28150D01*
X103369Y28100D01*
X103366Y28053D01*
X103363Y28012D01*
X103360Y27992D01*
Y27538D01*
X104823D01*
Y27981D01*
X104820Y28017D01*
Y28053D01*
X104817Y28086D01*
X104809Y28142D01*
X104804Y28186D01*
X104795Y28222D01*
X104787Y28247D01*
X104784Y28261D01*
X104781Y28266D01*
X104756Y28316D01*
X104726Y28363D01*
X104690Y28405D01*
X104654Y28441D01*
X104621Y28468D01*
X104593Y28491D01*
X104582Y28496D01*
X104574Y28502D01*
X104568Y28507D01*
X104565D01*
X104535Y28524D01*
X104499Y28541D01*
X104427Y28565D01*
X104349Y28582D01*
X104274Y28596D01*
X104241Y28599D01*
X104208Y28602D01*
X104180Y28604D01*
X104155D01*
X104133Y28607D01*
D02*
G37*
G36*
X100895Y-715D02*
X100806D01*
X100751Y-726D01*
X100645Y-753D01*
X100551Y-798D01*
X100473Y-842D01*
X100407Y-892D01*
X100357Y-937D01*
X100329Y-965D01*
X100318Y-970D01*
Y-975D01*
X100279Y-1025D01*
X100240Y-1081D01*
X100185Y-1209D01*
X100146Y-1336D01*
X100118Y-1464D01*
X100101Y-1575D01*
X100096Y-1625D01*
Y-1669D01*
X100090Y-1703D01*
Y-1730D01*
Y-1747D01*
Y-1753D01*
Y-1847D01*
X100101Y-1941D01*
X100112Y-2025D01*
X100124Y-2097D01*
X100140Y-2169D01*
X100162Y-2235D01*
X100179Y-2291D01*
X100201Y-2341D01*
X100224Y-2391D01*
X100240Y-2430D01*
X100262Y-2463D01*
X100279Y-2485D01*
X100290Y-2507D01*
X100301Y-2524D01*
X100312Y-2530D01*
Y-2535D01*
X100357Y-2579D01*
X100401Y-2618D01*
X100490Y-2679D01*
X100584Y-2724D01*
X100668Y-2751D01*
X100745Y-2774D01*
X100806Y-2779D01*
X100828Y-2785D01*
X100862D01*
X100923Y-2779D01*
X100978Y-2774D01*
X101084Y-2746D01*
X101178Y-2707D01*
X101256Y-2657D01*
X101322Y-2613D01*
X101367Y-2574D01*
X101395Y-2546D01*
X101406Y-2535D01*
X101444Y-2485D01*
X101478Y-2430D01*
X101533Y-2302D01*
X101567Y-2174D01*
X101594Y-2041D01*
X101611Y-1925D01*
X101617Y-1869D01*
Y-1825D01*
X101622Y-1786D01*
Y-1758D01*
Y-1742D01*
Y-1736D01*
Y-1642D01*
X101611Y-1558D01*
X101600Y-1481D01*
X101589Y-1403D01*
X101572Y-1336D01*
X101556Y-1275D01*
X101533Y-1214D01*
X101511Y-1164D01*
X101494Y-1120D01*
X101472Y-1081D01*
X101456Y-1048D01*
X101439Y-1025D01*
X101428Y-1003D01*
X101417Y-987D01*
X101406Y-981D01*
Y-975D01*
X101361Y-931D01*
X101317Y-887D01*
X101228Y-826D01*
X101139Y-776D01*
X101050Y-748D01*
X100978Y-726D01*
X100917Y-720D01*
X100895Y-715D01*
D02*
G37*
G36*
X75371Y-1775D02*
X75365D01*
X75371Y-1952D01*
X75376Y-2063D01*
X75382Y-2158D01*
X75393Y-2235D01*
X75410Y-2302D01*
X75426Y-2352D01*
X75437Y-2391D01*
X75443Y-2413D01*
X75448Y-2419D01*
X75493Y-2491D01*
X75537Y-2557D01*
X75593Y-2613D01*
X75643Y-2657D01*
X75687Y-2696D01*
X75726Y-2724D01*
X75748Y-2740D01*
X75759Y-2746D01*
X75842Y-2785D01*
X75926Y-2813D01*
X76003Y-2835D01*
X76081Y-2846D01*
X76142Y-2857D01*
X76198Y-2863D01*
X76242D01*
X76342Y-2857D01*
X76425Y-2846D01*
X76497Y-2824D01*
X76558Y-2802D01*
X76603Y-2779D01*
X76636Y-2757D01*
X76658Y-2746D01*
X76664Y-2740D01*
X76708Y-2691D01*
X76741Y-2635D01*
X76769Y-2585D01*
X76786Y-2535D01*
X76797Y-2491D01*
X76802Y-2457D01*
Y-2430D01*
Y-2424D01*
X76797Y-2380D01*
X76791Y-2335D01*
X76780Y-2302D01*
X76769Y-2269D01*
X76758Y-2241D01*
X76753Y-2219D01*
X76741Y-2208D01*
Y-2202D01*
X76686Y-2135D01*
X76619Y-2091D01*
X76597Y-2074D01*
X76575Y-2063D01*
X76558Y-2052D01*
X76553D01*
X76497Y-2030D01*
X76436Y-2013D01*
X76370Y-1997D01*
X76303Y-1986D01*
X76242Y-1975D01*
X76187Y-1963D01*
X76153Y-1958D01*
X76142D01*
X76048Y-1941D01*
X75959Y-1930D01*
X75881Y-1914D01*
X75804Y-1897D01*
X75731Y-1880D01*
X75670Y-1864D01*
X75609Y-1853D01*
X75559Y-1836D01*
X75515Y-1825D01*
X75476Y-1814D01*
X75443Y-1802D01*
X75415Y-1791D01*
X75393Y-1786D01*
X75376Y-1780D01*
X75371Y-1775D01*
D02*
G37*
G36*
X107677Y-715D02*
X107644D01*
X107577Y-720D01*
X107516Y-726D01*
X107400Y-759D01*
X107300Y-804D01*
X107217Y-853D01*
X107150Y-903D01*
X107100Y-948D01*
X107072Y-981D01*
X107061Y-987D01*
Y-992D01*
X107011Y-1064D01*
X106967Y-1148D01*
X106939Y-1231D01*
X106911Y-1320D01*
X106895Y-1392D01*
X106884Y-1458D01*
Y-1481D01*
X106878Y-1497D01*
Y-1508D01*
Y-1514D01*
X108438D01*
X108421Y-1386D01*
X108388Y-1270D01*
X108349Y-1170D01*
X108304Y-1092D01*
X108265Y-1025D01*
X108227Y-975D01*
X108204Y-948D01*
X108193Y-937D01*
X108105Y-865D01*
X108016Y-809D01*
X107921Y-770D01*
X107833Y-742D01*
X107760Y-726D01*
X107699Y-720D01*
X107677Y-715D01*
D02*
G37*
G36*
X94840D02*
X94807D01*
X94740Y-720D01*
X94679Y-726D01*
X94563Y-759D01*
X94463Y-804D01*
X94379Y-853D01*
X94313Y-903D01*
X94263Y-948D01*
X94235Y-981D01*
X94224Y-987D01*
Y-992D01*
X94174Y-1064D01*
X94130Y-1148D01*
X94102Y-1231D01*
X94074Y-1320D01*
X94057Y-1392D01*
X94046Y-1458D01*
Y-1481D01*
X94041Y-1497D01*
Y-1508D01*
Y-1514D01*
X95600D01*
X95584Y-1386D01*
X95550Y-1270D01*
X95512Y-1170D01*
X95467Y-1092D01*
X95428Y-1025D01*
X95389Y-975D01*
X95367Y-948D01*
X95356Y-937D01*
X95267Y-865D01*
X95179Y-809D01*
X95084Y-770D01*
X94995Y-742D01*
X94923Y-726D01*
X94862Y-720D01*
X94840Y-715D01*
D02*
G37*
G36*
X112089Y212D02*
X111201D01*
X111129Y207D01*
X111057D01*
X110991Y201D01*
X110880Y184D01*
X110791Y173D01*
X110719Y157D01*
X110669Y140D01*
X110641Y134D01*
X110630Y129D01*
X110530Y79D01*
X110435Y18D01*
X110352Y-54D01*
X110280Y-126D01*
X110225Y-193D01*
X110180Y-249D01*
X110169Y-271D01*
X110158Y-287D01*
X110147Y-298D01*
Y-304D01*
X110114Y-365D01*
X110080Y-437D01*
X110030Y-581D01*
X109997Y-737D01*
X109969Y-887D01*
X109964Y-953D01*
X109958Y-1020D01*
X109953Y-1075D01*
Y-1125D01*
X109947Y-1170D01*
Y-1198D01*
Y-1220D01*
Y-1225D01*
X109953Y-1381D01*
X109964Y-1525D01*
X109980Y-1653D01*
X109997Y-1764D01*
X110008Y-1808D01*
X110019Y-1847D01*
X110030Y-1886D01*
X110036Y-1914D01*
X110041Y-1936D01*
X110047Y-1952D01*
X110053Y-1963D01*
Y-1969D01*
X110091Y-2074D01*
X110136Y-2169D01*
X110186Y-2252D01*
X110230Y-2324D01*
X110269Y-2380D01*
X110302Y-2419D01*
X110325Y-2441D01*
X110330Y-2452D01*
X110386Y-2496D01*
X110441Y-2535D01*
X110497Y-2568D01*
X110552Y-2602D01*
X110602Y-2624D01*
X110641Y-2641D01*
X110669Y-2646D01*
X110680Y-2652D01*
X110763Y-2674D01*
X110863Y-2691D01*
X110963Y-2702D01*
X111057Y-2707D01*
X111140Y-2713D01*
X111179Y-2718D01*
X112089D01*
Y212D01*
D02*
G37*
G36*
X87936D02*
X87026D01*
X86904Y201D01*
X86809Y195D01*
X86726Y184D01*
X86665Y173D01*
X86626Y168D01*
X86598Y157D01*
X86593D01*
X86532Y134D01*
X86476Y101D01*
X86432Y68D01*
X86393Y35D01*
X86365Y7D01*
X86343Y-21D01*
X86332Y-38D01*
X86326Y-43D01*
X86293Y-99D01*
X86271Y-154D01*
X86254Y-210D01*
X86243Y-265D01*
X86238Y-310D01*
X86232Y-343D01*
Y-365D01*
Y-376D01*
X86238Y-448D01*
X86249Y-515D01*
X86265Y-570D01*
X86282Y-615D01*
X86299Y-654D01*
X86315Y-687D01*
X86326Y-704D01*
X86332Y-709D01*
X86371Y-753D01*
X86421Y-798D01*
X86471Y-831D01*
X86515Y-853D01*
X86559Y-876D01*
X86593Y-892D01*
X86615Y-898D01*
X86626Y-903D01*
X86687Y-915D01*
X86765Y-926D01*
X86842Y-931D01*
X86920Y-937D01*
X86992Y-942D01*
X87936D01*
Y212D01*
D02*
G37*
G36*
Y-1397D02*
X86926D01*
X86809Y-1409D01*
X86715Y-1419D01*
X86637Y-1431D01*
X86576Y-1442D01*
X86526Y-1453D01*
X86504Y-1458D01*
X86493Y-1464D01*
X86421Y-1492D01*
X86360Y-1525D01*
X86304Y-1564D01*
X86260Y-1603D01*
X86226Y-1636D01*
X86204Y-1664D01*
X86187Y-1686D01*
X86182Y-1691D01*
X86143Y-1753D01*
X86115Y-1814D01*
X86093Y-1875D01*
X86082Y-1930D01*
X86071Y-1980D01*
X86065Y-2025D01*
Y-2047D01*
Y-2058D01*
X86071Y-2124D01*
X86076Y-2191D01*
X86088Y-2246D01*
X86104Y-2291D01*
X86121Y-2330D01*
X86132Y-2363D01*
X86138Y-2380D01*
X86143Y-2385D01*
X86176Y-2435D01*
X86204Y-2480D01*
X86243Y-2513D01*
X86271Y-2546D01*
X86299Y-2568D01*
X86321Y-2585D01*
X86337Y-2596D01*
X86343Y-2602D01*
X86437Y-2646D01*
X86532Y-2679D01*
X86571Y-2691D01*
X86604Y-2696D01*
X86626Y-2702D01*
X86632D01*
X86676Y-2707D01*
X86726Y-2713D01*
X86842Y-2718D01*
X87936D01*
Y-1397D01*
D02*
G37*
G36*
X91948Y-715D02*
X91921D01*
X91860Y-720D01*
X91804Y-726D01*
X91699Y-759D01*
X91604Y-798D01*
X91527Y-848D01*
X91466Y-898D01*
X91416Y-942D01*
X91388Y-975D01*
X91377Y-981D01*
Y-987D01*
X91338Y-1042D01*
X91305Y-1098D01*
X91249Y-1231D01*
X91210Y-1370D01*
X91183Y-1503D01*
X91171Y-1569D01*
X91166Y-1630D01*
X91160Y-1686D01*
Y-1730D01*
X91155Y-1769D01*
Y-1797D01*
Y-1819D01*
Y-1825D01*
Y-1919D01*
X91166Y-2008D01*
X91177Y-2086D01*
X91188Y-2163D01*
X91205Y-2230D01*
X91227Y-2296D01*
X91244Y-2352D01*
X91266Y-2402D01*
X91288Y-2446D01*
X91305Y-2491D01*
X91327Y-2518D01*
X91343Y-2546D01*
X91355Y-2568D01*
X91366Y-2585D01*
X91377Y-2591D01*
Y-2596D01*
X91416Y-2641D01*
X91460Y-2679D01*
X91549Y-2740D01*
X91638Y-2785D01*
X91721Y-2813D01*
X91793Y-2835D01*
X91854Y-2840D01*
X91876Y-2846D01*
X91904D01*
X91960Y-2840D01*
X92015Y-2835D01*
X92115Y-2807D01*
X92209Y-2763D01*
X92287Y-2713D01*
X92348Y-2668D01*
X92398Y-2624D01*
X92426Y-2596D01*
X92431Y-2585D01*
X92437D01*
X92476Y-2530D01*
X92509Y-2474D01*
X92564Y-2346D01*
X92603Y-2213D01*
X92631Y-2086D01*
X92648Y-1969D01*
X92653Y-1919D01*
Y-1875D01*
X92659Y-1836D01*
Y-1808D01*
Y-1791D01*
Y-1786D01*
Y-1686D01*
X92648Y-1592D01*
X92637Y-1503D01*
X92625Y-1425D01*
X92609Y-1353D01*
X92592Y-1286D01*
X92576Y-1225D01*
X92553Y-1170D01*
X92531Y-1125D01*
X92514Y-1087D01*
X92498Y-1053D01*
X92481Y-1025D01*
X92465Y-1003D01*
X92459Y-987D01*
X92448Y-981D01*
Y-975D01*
X92409Y-931D01*
X92365Y-887D01*
X92276Y-826D01*
X92187Y-776D01*
X92104Y-748D01*
X92032Y-726D01*
X91971Y-720D01*
X91948Y-715D01*
D02*
G37*
G36*
X69188Y-715D02*
X69155D01*
X69088Y-720D01*
X69027Y-726D01*
X68916Y-754D01*
X68816Y-798D01*
X68733Y-848D01*
X68666Y-898D01*
X68616Y-937D01*
X68583Y-970D01*
X68572Y-976D01*
Y-981D01*
X68527Y-1031D01*
X68494Y-1092D01*
X68433Y-1214D01*
X68389Y-1347D01*
X68361Y-1469D01*
X68344Y-1586D01*
X68339Y-1636D01*
Y-1680D01*
X68333Y-1714D01*
Y-1742D01*
Y-1758D01*
Y-1764D01*
Y-1864D01*
X68344Y-1958D01*
X68355Y-2041D01*
X68372Y-2124D01*
X68389Y-2197D01*
X68411Y-2263D01*
X68427Y-2324D01*
X68450Y-2380D01*
X68472Y-2424D01*
X68494Y-2468D01*
X68516Y-2502D01*
X68533Y-2530D01*
X68550Y-2552D01*
X68561Y-2568D01*
X68566Y-2574D01*
X68572Y-2579D01*
X68616Y-2624D01*
X68666Y-2668D01*
X68761Y-2735D01*
X68861Y-2779D01*
X68949Y-2813D01*
X69033Y-2829D01*
X69094Y-2840D01*
X69121Y-2846D01*
X69155D01*
X69221Y-2840D01*
X69282Y-2835D01*
X69399Y-2807D01*
X69499Y-2763D01*
X69582Y-2713D01*
X69649Y-2668D01*
X69699Y-2624D01*
X69732Y-2596D01*
X69737Y-2585D01*
X69743D01*
X69782Y-2530D01*
X69821Y-2474D01*
X69876Y-2346D01*
X69920Y-2213D01*
X69948Y-2080D01*
X69965Y-1963D01*
X69971Y-1914D01*
Y-1869D01*
X69976Y-1830D01*
Y-1802D01*
Y-1786D01*
Y-1780D01*
X69971Y-1686D01*
X69965Y-1592D01*
X69954Y-1508D01*
X69937Y-1431D01*
X69920Y-1359D01*
X69904Y-1292D01*
X69882Y-1236D01*
X69859Y-1181D01*
X69837Y-1137D01*
X69815Y-1092D01*
X69798Y-1059D01*
X69782Y-1031D01*
X69765Y-1009D01*
X69754Y-992D01*
X69743Y-987D01*
Y-981D01*
X69699Y-937D01*
X69649Y-892D01*
X69554Y-826D01*
X69454Y-781D01*
X69360Y-748D01*
X69277Y-726D01*
X69216Y-720D01*
X69188Y-715D01*
D02*
G37*
G36*
X73433Y29407D02*
X73419D01*
X73408D01*
X73405D01*
X73328Y29404D01*
X73256Y29399D01*
X73192Y29390D01*
X73137Y29382D01*
X73115Y29377D01*
X73095Y29371D01*
X73076Y29366D01*
X73062Y29363D01*
X73051Y29360D01*
X73043Y29357D01*
X73037Y29354D01*
X73034D01*
X72982Y29335D01*
X72935Y29313D01*
X72893Y29288D01*
X72857Y29266D01*
X72829Y29246D01*
X72810Y29230D01*
X72799Y29219D01*
X72793Y29216D01*
X72771Y29188D01*
X72752Y29160D01*
X72735Y29133D01*
X72719Y29105D01*
X72707Y29080D01*
X72699Y29061D01*
X72696Y29047D01*
X72694Y29041D01*
X72682Y29000D01*
X72674Y28950D01*
X72669Y28900D01*
X72666Y28853D01*
X72663Y28811D01*
X72660Y28792D01*
Y28338D01*
X74123D01*
Y28781D01*
X74120Y28817D01*
Y28853D01*
X74117Y28886D01*
X74109Y28942D01*
X74103Y28986D01*
X74095Y29022D01*
X74087Y29047D01*
X74084Y29061D01*
X74081Y29066D01*
X74057Y29116D01*
X74026Y29163D01*
X73990Y29205D01*
X73954Y29241D01*
X73921Y29269D01*
X73893Y29291D01*
X73882Y29296D01*
X73874Y29302D01*
X73868Y29307D01*
X73865D01*
X73835Y29324D01*
X73799Y29341D01*
X73727Y29366D01*
X73649Y29382D01*
X73575Y29396D01*
X73541Y29399D01*
X73508Y29401D01*
X73480Y29404D01*
X73455D01*
X73433Y29407D01*
D02*
G37*
G36*
X125162Y-4477D02*
X124719D01*
X124683Y-4480D01*
X124647D01*
X124614Y-4483D01*
X124558Y-4491D01*
X124514Y-4496D01*
X124478Y-4505D01*
X124453Y-4513D01*
X124439Y-4516D01*
X124434Y-4519D01*
X124384Y-4544D01*
X124337Y-4574D01*
X124295Y-4610D01*
X124259Y-4646D01*
X124232Y-4679D01*
X124209Y-4707D01*
X124204Y-4718D01*
X124198Y-4726D01*
X124193Y-4732D01*
Y-4735D01*
X124176Y-4765D01*
X124159Y-4801D01*
X124135Y-4873D01*
X124118Y-4951D01*
X124104Y-5026D01*
X124101Y-5059D01*
X124099Y-5092D01*
X124096Y-5120D01*
Y-5145D01*
X124093Y-5167D01*
Y-5181D01*
Y-5192D01*
Y-5195D01*
X124096Y-5272D01*
X124101Y-5344D01*
X124110Y-5408D01*
X124118Y-5463D01*
X124123Y-5485D01*
X124129Y-5505D01*
X124135Y-5524D01*
X124137Y-5538D01*
X124140Y-5549D01*
X124143Y-5557D01*
X124146Y-5563D01*
Y-5566D01*
X124165Y-5618D01*
X124187Y-5665D01*
X124212Y-5707D01*
X124234Y-5743D01*
X124254Y-5771D01*
X124270Y-5790D01*
X124281Y-5801D01*
X124284Y-5807D01*
X124312Y-5829D01*
X124339Y-5848D01*
X124367Y-5865D01*
X124395Y-5881D01*
X124420Y-5892D01*
X124439Y-5901D01*
X124453Y-5904D01*
X124459Y-5906D01*
X124500Y-5917D01*
X124550Y-5926D01*
X124600Y-5931D01*
X124647Y-5934D01*
X124688Y-5937D01*
X124708Y-5940D01*
X125162D01*
Y-4477D01*
D02*
G37*
G36*
X112503Y34299D02*
X112489D01*
X112486D01*
X112484D01*
X112425Y34294D01*
X112376Y34283D01*
X112331Y34266D01*
X112295Y34247D01*
X112267Y34227D01*
X112245Y34211D01*
X112234Y34200D01*
X112229Y34194D01*
X112212Y34175D01*
X112198Y34150D01*
X112176Y34097D01*
X112160Y34039D01*
X112148Y33981D01*
X112143Y33928D01*
X112140Y33906D01*
Y33887D01*
X112137Y33867D01*
Y33352D01*
X112821D01*
Y33900D01*
X112819Y33950D01*
X112816Y33992D01*
X112813Y34025D01*
X112808Y34047D01*
X112805Y34064D01*
X112802Y34075D01*
Y34078D01*
X112788Y34114D01*
X112772Y34144D01*
X112755Y34172D01*
X112736Y34197D01*
X112716Y34214D01*
X112702Y34227D01*
X112691Y34236D01*
X112689Y34238D01*
X112655Y34258D01*
X112622Y34275D01*
X112586Y34286D01*
X112556Y34291D01*
X112528Y34297D01*
X112503Y34299D01*
D02*
G37*
G36*
Y29089D02*
X112489D01*
X112486D01*
X112484D01*
X112425Y29083D01*
X112376Y29072D01*
X112331Y29056D01*
X112295Y29036D01*
X112267Y29017D01*
X112245Y29000D01*
X112234Y28989D01*
X112229Y28984D01*
X112212Y28964D01*
X112198Y28939D01*
X112176Y28887D01*
X112160Y28829D01*
X112148Y28771D01*
X112143Y28718D01*
X112140Y28696D01*
Y28676D01*
X112137Y28657D01*
Y28142D01*
X112821D01*
Y28690D01*
X112819Y28740D01*
X112816Y28782D01*
X112813Y28815D01*
X112808Y28837D01*
X112805Y28854D01*
X112802Y28865D01*
Y28867D01*
X112788Y28903D01*
X112772Y28934D01*
X112755Y28962D01*
X112736Y28986D01*
X112716Y29003D01*
X112702Y29017D01*
X112691Y29025D01*
X112689Y29028D01*
X112655Y29048D01*
X112622Y29064D01*
X112586Y29075D01*
X112556Y29081D01*
X112528Y29086D01*
X112503Y29089D01*
D02*
G37*
G36*
X119896Y-26329D02*
X119893D01*
X119890D01*
X119857Y-26331D01*
X119824Y-26337D01*
X119796Y-26345D01*
X119771Y-26353D01*
X119749Y-26365D01*
X119733Y-26373D01*
X119722Y-26378D01*
X119719Y-26381D01*
X119691Y-26401D01*
X119666Y-26425D01*
X119647Y-26450D01*
X119630Y-26475D01*
X119619Y-26498D01*
X119611Y-26514D01*
X119605Y-26525D01*
X119603Y-26531D01*
X119591Y-26570D01*
X119583Y-26614D01*
X119578Y-26658D01*
X119575Y-26702D01*
X119572Y-26741D01*
X119569Y-26774D01*
Y-27345D01*
X120203D01*
Y-26741D01*
X120201Y-26667D01*
X120190Y-26603D01*
X120176Y-26547D01*
X120159Y-26506D01*
X120143Y-26470D01*
X120129Y-26448D01*
X120118Y-26434D01*
X120115Y-26428D01*
X120079Y-26395D01*
X120043Y-26370D01*
X120004Y-26353D01*
X119971Y-26340D01*
X119938Y-26334D01*
X119913Y-26331D01*
X119896Y-26329D01*
D02*
G37*
G36*
X76196Y-26429D02*
X76193D01*
X76191D01*
X76157Y-26431D01*
X76124Y-26437D01*
X76096Y-26445D01*
X76071Y-26454D01*
X76049Y-26465D01*
X76033Y-26473D01*
X76022Y-26478D01*
X76019Y-26481D01*
X75991Y-26501D01*
X75966Y-26526D01*
X75947Y-26550D01*
X75930Y-26575D01*
X75919Y-26597D01*
X75911Y-26614D01*
X75905Y-26625D01*
X75902Y-26631D01*
X75891Y-26670D01*
X75883Y-26714D01*
X75877Y-26758D01*
X75875Y-26803D01*
X75872Y-26841D01*
X75869Y-26875D01*
Y-27445D01*
X76503D01*
Y-26841D01*
X76501Y-26766D01*
X76490Y-26703D01*
X76476Y-26647D01*
X76459Y-26606D01*
X76443Y-26570D01*
X76429Y-26548D01*
X76418Y-26534D01*
X76415Y-26528D01*
X76379Y-26495D01*
X76343Y-26470D01*
X76304Y-26454D01*
X76271Y-26440D01*
X76238Y-26434D01*
X76213Y-26431D01*
X76196Y-26429D01*
D02*
G37*
G36*
X33796Y-26129D02*
X33793D01*
X33790D01*
X33757Y-26131D01*
X33724Y-26137D01*
X33696Y-26145D01*
X33671Y-26153D01*
X33649Y-26165D01*
X33633Y-26173D01*
X33622Y-26178D01*
X33619Y-26181D01*
X33591Y-26201D01*
X33566Y-26226D01*
X33547Y-26250D01*
X33530Y-26275D01*
X33519Y-26298D01*
X33511Y-26314D01*
X33505Y-26325D01*
X33503Y-26331D01*
X33491Y-26370D01*
X33483Y-26414D01*
X33478Y-26458D01*
X33475Y-26502D01*
X33472Y-26541D01*
X33469Y-26575D01*
Y-27145D01*
X34104D01*
Y-26541D01*
X34101Y-26467D01*
X34090Y-26403D01*
X34076Y-26347D01*
X34059Y-26306D01*
X34043Y-26270D01*
X34029Y-26248D01*
X34018Y-26234D01*
X34015Y-26228D01*
X33979Y-26195D01*
X33943Y-26170D01*
X33904Y-26153D01*
X33871Y-26140D01*
X33838Y-26134D01*
X33813Y-26131D01*
X33796Y-26129D01*
D02*
G37*
G36*
X109733Y-22693D02*
X109719D01*
X109708D01*
X109705D01*
X109628Y-22696D01*
X109556Y-22701D01*
X109492Y-22710D01*
X109437Y-22718D01*
X109415Y-22723D01*
X109395Y-22729D01*
X109376Y-22735D01*
X109362Y-22737D01*
X109351Y-22740D01*
X109343Y-22743D01*
X109337Y-22746D01*
X109334D01*
X109282Y-22765D01*
X109235Y-22787D01*
X109193Y-22812D01*
X109157Y-22834D01*
X109129Y-22854D01*
X109110Y-22870D01*
X109099Y-22881D01*
X109093Y-22884D01*
X109071Y-22912D01*
X109052Y-22940D01*
X109035Y-22967D01*
X109019Y-22995D01*
X109008Y-23020D01*
X108999Y-23039D01*
X108996Y-23053D01*
X108994Y-23059D01*
X108983Y-23100D01*
X108974Y-23150D01*
X108969Y-23200D01*
X108966Y-23247D01*
X108963Y-23289D01*
X108960Y-23308D01*
Y-23762D01*
X110423D01*
Y-23319D01*
X110420Y-23283D01*
Y-23247D01*
X110417Y-23214D01*
X110409Y-23158D01*
X110404Y-23114D01*
X110395Y-23078D01*
X110387Y-23053D01*
X110384Y-23039D01*
X110381Y-23034D01*
X110356Y-22984D01*
X110326Y-22937D01*
X110290Y-22895D01*
X110254Y-22859D01*
X110221Y-22831D01*
X110193Y-22809D01*
X110182Y-22804D01*
X110174Y-22798D01*
X110168Y-22793D01*
X110165D01*
X110135Y-22776D01*
X110099Y-22759D01*
X110027Y-22735D01*
X109949Y-22718D01*
X109874Y-22704D01*
X109841Y-22701D01*
X109808Y-22698D01*
X109780Y-22696D01*
X109755D01*
X109733Y-22693D01*
D02*
G37*
G36*
X64396Y26371D02*
X64393D01*
X64390D01*
X64357Y26369D01*
X64324Y26363D01*
X64296Y26355D01*
X64271Y26346D01*
X64249Y26335D01*
X64233Y26327D01*
X64222Y26322D01*
X64219Y26319D01*
X64191Y26299D01*
X64166Y26274D01*
X64147Y26250D01*
X64130Y26225D01*
X64119Y26202D01*
X64111Y26186D01*
X64105Y26175D01*
X64103Y26169D01*
X64091Y26130D01*
X64083Y26086D01*
X64078Y26042D01*
X64075Y25997D01*
X64072Y25959D01*
X64069Y25925D01*
Y25355D01*
X64704D01*
Y25959D01*
X64701Y26033D01*
X64690Y26097D01*
X64676Y26153D01*
X64659Y26194D01*
X64643Y26230D01*
X64629Y26252D01*
X64618Y26266D01*
X64615Y26272D01*
X64579Y26305D01*
X64543Y26330D01*
X64504Y26346D01*
X64471Y26360D01*
X64438Y26366D01*
X64413Y26369D01*
X64396Y26371D01*
D02*
G37*
G36*
X129345Y15904D02*
X128741D01*
X128666Y15901D01*
X128603Y15890D01*
X128547Y15876D01*
X128506Y15859D01*
X128470Y15843D01*
X128448Y15829D01*
X128434Y15818D01*
X128428Y15815D01*
X128395Y15779D01*
X128370Y15743D01*
X128354Y15704D01*
X128340Y15671D01*
X128334Y15638D01*
X128331Y15613D01*
X128329Y15596D01*
Y15593D01*
Y15590D01*
X128331Y15557D01*
X128337Y15524D01*
X128345Y15496D01*
X128354Y15471D01*
X128365Y15449D01*
X128373Y15433D01*
X128378Y15422D01*
X128381Y15419D01*
X128401Y15391D01*
X128426Y15366D01*
X128451Y15347D01*
X128475Y15330D01*
X128498Y15319D01*
X128514Y15311D01*
X128525Y15305D01*
X128531Y15303D01*
X128570Y15291D01*
X128614Y15283D01*
X128658Y15278D01*
X128702Y15275D01*
X128741Y15272D01*
X128774Y15269D01*
X129345D01*
Y15904D01*
D02*
G37*
%LPD*%
M02*
